<?xml version="1.0" encoding="UTF-8"?>
<svg version="1.1" xmlns="http://www.w3.org/2000/svg" width="512" height="512">
<path d="M0 0 C1.04932483 -0.01659798 2.09864965 -0.03319596 3.1797722 -0.0502969 C4.91493948 -0.04714437 4.91493948 -0.04714437 6.68516064 -0.04392815 C8.52403789 -0.06387158 8.52403789 -0.06387158 10.40006417 -0.08421791 C13.8097645 -0.11685762 17.21867675 -0.1314118 20.62847006 -0.13819146 C24.30367309 -0.14969562 27.97867691 -0.18394696 31.65375805 -0.21488762 C40.53505373 -0.28445063 49.41633334 -0.31557838 58.29784206 -0.34313422 C62.48256505 -0.35705684 66.66726826 -0.37537109 70.85197544 -0.3933506 C84.76871039 -0.45177714 98.68542597 -0.50135361 112.60227203 -0.52259827 C113.4933634 -0.52397966 114.38445476 -0.52536104 115.3025489 -0.52678429 C116.19576246 -0.52816832 117.08897602 -0.52955235 118.00925666 -0.53097832 C119.81920869 -0.53380229 121.62916069 -0.53664391 123.43911266 -0.5395031 C124.33690947 -0.54091344 125.23470628 -0.54232378 126.15970906 -0.54377685 C140.68730573 -0.56824532 155.21385501 -0.65375508 169.74101756 -0.7653835 C184.66415407 -0.87912036 199.58676232 -0.93991163 214.51033658 -0.94862258 C222.88612295 -0.95477557 231.2604568 -0.98357149 239.63582325 -1.07118416 C246.77315763 -1.14563581 253.90864711 -1.17162368 261.04631422 -1.13577439 C264.68484313 -1.11893596 268.31961222 -1.1241267 271.95764065 -1.19141197 C296.00132889 -1.61167547 296.00132889 -1.61167547 303.76091689 5.45679104 C306.43238403 8.31378401 308.7153791 11.3313804 310.95351696 14.53129768 C312.12403171 15.90017271 313.30578934 17.25990387 314.51601696 18.59379768 C315.0303529 19.19965706 315.54468884 19.80551643 316.07461071 20.42973518 C320.7822162 25.6952066 325.93155012 30.56824777 330.95351696 35.53129768 C343.81170183 48.23863234 343.81170183 48.23863234 349.1112318 54.46635628 C353.42920282 59.3061918 358.15079032 63.78894779 362.76601696 68.34379768 C364.83793355 70.38906583 366.90646139 72.43767724 368.97304821 74.48832893 C369.88159557 75.38527473 370.79014294 76.28222054 371.72622204 77.20634651 C375.7104493 81.36526312 376.20404604 83.63665016 376.20799255 89.29238987 C376.21119903 89.98688623 376.21440551 90.68138259 376.21770915 91.39692429 C376.22605981 93.74147547 376.22006733 96.08577456 376.21421337 98.43033028 C376.21723175 100.12123854 376.22111965 101.81214544 376.22580594 103.50304991 C376.23613512 108.16321802 376.23389166 112.82330962 376.22962534 117.48348415 C376.22716701 122.50401327 376.23616112 127.52452355 376.24366283 132.54504585 C376.25643671 142.38593682 376.25820019 152.22680055 376.25586257 162.06769841 C376.25408228 170.06340141 376.25582282 178.05909612 376.26008701 186.05479813 C376.2606822 187.19113487 376.26127739 188.32747162 376.26189062 189.49824281 C376.26310232 191.80642529 376.26431645 194.11460776 376.26553299 196.42279024 C376.27641884 218.08722497 376.27424107 239.75164415 376.26814815 261.41607977 C376.26297778 281.25250955 376.27423573 301.08889024 376.29324637 320.92531031 C376.31259969 341.27469256 376.32088519 361.62405157 376.31712312 381.97344309 C376.31520729 393.40556011 376.31773563 404.83763534 376.33183765 416.26974487 C376.34372053 426.00166752 376.34519123 435.73352265 376.33304749 445.46544617 C376.32713704 450.43398523 376.32611885 455.40240062 376.33804989 460.37093163 C376.34883545 464.91512274 376.34589347 469.45908581 376.3317882 474.00326592 C376.32912093 475.65128483 376.3315708 477.2993212 376.33952407 478.94732308 C376.34955479 481.17994932 376.3412738 483.41177125 376.32824707 485.64436436 C376.32830209 486.88670194 376.3283571 488.12903952 376.32841378 489.4090237 C375.91563432 492.84679779 375.58341137 494.2773712 372.95351696 496.53129768 C370.16062641 497.03269434 370.16062641 497.03269434 366.68938732 497.03466225 C366.04861933 497.04047601 365.40785133 497.04628977 364.74766612 497.05227971 C362.58560096 497.06695852 360.42465717 497.05295937 358.26259899 497.03923225 C356.70296743 497.0438381 355.1433402 497.05018888 353.58372211 497.05814123 C349.28637982 497.07490136 344.989391 497.06655808 340.69204712 497.05419636 C336.06211751 497.04517537 331.43225025 497.05910087 326.80233288 497.07011604 C317.72776239 497.08793752 308.65332396 497.08404517 299.57874823 497.07246548 C292.20612183 497.06344567 284.83353254 497.06220085 277.46090221 497.06656075 C276.4130883 497.06717368 275.36527439 497.06778661 274.28570855 497.06841812 C272.15734433 497.06969697 270.02898012 497.07099382 267.90061593 497.07230848 C247.92534296 497.08372491 227.95014331 497.07058392 207.97488236 497.04910702 C190.82123945 497.03123508 173.6677048 497.03433889 156.51406384 497.05278206 C136.61210057 497.07417002 116.71020164 497.08262617 96.80822849 497.070333 C94.68752957 497.06905876 92.56683065 497.06780128 90.44613171 497.06656075 C88.88084183 497.06563509 88.88084183 497.06563509 87.28392994 497.06469074 C79.91696103 497.06123161 72.5500328 497.06707828 65.18307018 497.07647896 C56.20976155 497.08767731 47.23659293 497.08470461 38.26330042 497.06335598 C33.68167663 497.05281632 29.10028661 497.04877311 24.51866436 497.06195259 C20.32910531 497.07382233 16.13999796 497.06740435 11.95048022 497.04604238 C10.43034272 497.04155317 8.91016749 497.04389419 7.39005399 497.05354553 C5.33203336 497.06561549 3.27558352 497.05333415 1.2176466 497.03466225 C0.0721377 497.03401284 -1.0733712 497.03336343 -2.25359249 497.03269434 C-5.04648304 496.53129768 -5.04648304 496.53129768 -6.91439593 495.00623083 C-8.5157564 491.50538706 -8.45838484 488.20418406 -8.42400646 484.42900276 C-8.42836678 483.60165941 -8.43272711 482.77431606 -8.43721956 481.9219017 C-8.44822502 479.13138008 -8.43772924 476.34134749 -8.42743397 473.55082893 C-8.43088844 471.53732232 -8.43565158 469.52381759 -8.4416157 467.51031685 C-8.45418428 461.96305757 -8.44792875 456.41595236 -8.43865705 450.8686924 C-8.43189081 444.89179609 -8.44233571 438.91492694 -8.45059681 432.93803596 C-8.46318915 421.90130796 -8.46206504 410.86462252 -8.4538624 399.82789421 C-8.4463223 389.632832 -8.44434256 379.43778789 -8.44793034 369.24272346 C-8.44815949 368.56704169 -8.44838865 367.89135992 -8.44862475 367.19520295 C-8.44955873 364.45254287 -8.45051392 361.70988281 -8.45150404 358.96722275 C-8.46068561 333.22734684 -8.45235342 307.48750237 -8.43621335 281.74763131 C-8.42197602 258.86821159 -8.42324988 235.98884196 -8.43759632 213.10942268 C-8.45365252 187.41729145 -8.46003451 161.725188 -8.45075953 136.03305244 C-8.44979735 133.2953256 -8.44885883 130.55759876 -8.44793034 127.8198719 C-8.4476931 127.14575016 -8.44745587 126.47162842 -8.44721145 125.77707875 C-8.44379585 115.58723396 -8.44779578 105.39740923 -8.455369 95.20756721 C-8.46393514 83.62382458 -8.46153751 72.04012963 -8.44552676 60.45639229 C-8.43762254 54.54205656 -8.43458899 48.62782269 -8.44447422 42.71348763 C-8.45337718 37.305197 -8.44856123 31.89710319 -8.43254156 26.48883057 C-8.42917503 24.52657899 -8.43092949 22.56431097 -8.43816893 20.60206985 C-8.44722178 17.94567052 -8.43800621 15.2899555 -8.42400646 12.63359261 C-8.43102996 11.86232347 -8.43805346 11.09105434 -8.44528979 10.29641342 C-8.41242864 7.20099149 -8.20629847 4.85844282 -6.83829302 2.05811036 C-4.46188184 0.03315529 -3.10577398 0.02074718 0 0 Z M6.95351696 15.53129768 C6.95351696 169.31129768 6.95351696 323.09129768 6.95351696 481.53129768 C123.77351696 481.53129768 240.59351696 481.53129768 360.95351696 481.53129768 C360.95351696 353.49129768 360.95351696 225.45129768 360.95351696 93.53129768 C324.32351696 93.03629768 324.32351696 93.03629768 286.95351696 92.53129768 C268.77997086 74.35775159 283.30079978 41.23022665 282.95351696 15.53129768 C191.87351696 15.53129768 100.79351696 15.53129768 6.95351696 15.53129768 Z " fill="#1F4571" transform="translate(72.04648303985596,7.46870231628418)"/>
<path d="M0 0 C15.17986671 12.85835151 25.4555973 30.46438129 27.22119141 50.51147461 C28.24251105 72.73060936 23.20197691 91.5088913 8.390625 108.51171875 C-5.37699807 122.84174472 -23.75871562 131.76850875 -43.71923828 132.46875 C-63.60805123 132.69739811 -82.49941301 127.11917477 -97.04248047 113.0703125 C-98.37895992 111.73058579 -99.69027055 110.36588936 -101 109 C-101.68707031 108.29746094 -102.37414062 107.59492188 -103.08203125 106.87109375 C-116.28848508 92.62883962 -121.58732446 73.76661178 -121.25 54.64453125 C-119.87169897 34.55148652 -111.47204032 16.95276274 -97 3 C-69.2469116 -21.05527157 -29.04212537 -22.64683869 0 0 Z M-60.375 27.6875 C-62.74211931 32.51278167 -63.87141357 36.93110873 -62.37109375 42.21484375 C-60.24419051 46.99370165 -57.68940778 49.50563416 -53 52 C-48.94531366 53.35156211 -45.2227074 53.85381662 -41.12890625 52.28125 C-36.52221162 49.8243462 -33.36322129 46.72644258 -31 42 C-30.45639554 37.04517906 -30.43562926 33.12874148 -32.6875 28.625 C-35.74448006 25.15491452 -39.11599779 21.35829763 -43.91796875 20.76171875 C-51.20579964 20.52339037 -55.40509416 22.06365918 -60.375 27.6875 Z M-80.58984375 97.19140625 C-82.25645791 99.3289197 -83.09971714 101.45572235 -84 104 C-70.60466138 114.71009793 -55.84117512 118.07496862 -39 117 C-28.56677939 115.62155025 -16.13025938 110.95163729 -9 103 C-16.60755246 92.21244169 -25.74142374 84.54241516 -39 82 C-55.9676853 80.84612174 -68.31785637 85.09348962 -80.58984375 97.19140625 Z " fill="#1F4571" transform="translate(225,99)"/>
<path d="M0 0 C1.13547272 -0.0071553 2.27094543 -0.01431061 3.44082642 -0.02168274 C7.19330091 -0.0385887 10.94458409 -0.01915538 14.69702148 0.00219727 C17.30346272 0.00136881 19.9099039 -0.00108968 22.51634216 -0.00511169 C27.97799398 -0.00962912 33.43930292 0.00621645 38.90087891 0.03417969 C45.2125566 0.06624654 51.52361653 0.06620882 57.83533818 0.04896492 C63.91214948 0.03309542 69.98869825 0.03993243 76.06550407 0.05690193 C78.64953034 0.06209149 81.23357439 0.06159262 83.81759834 0.05535698 C87.42566576 0.04991835 91.03267777 0.07023809 94.640625 0.09765625 C96.24832512 0.08786743 96.24832512 0.08786743 97.88850403 0.07788086 C105.0649553 0.17080216 105.0649553 0.17080216 108.41696167 2.40480042 C109.8452225 4.78012858 110.26498982 6.03810326 110.2890625 8.78540039 C110.30489883 9.59303833 110.32073517 10.40067627 110.33705139 11.23278809 C110.33209152 12.09641968 110.32713165 12.96005127 110.32202148 13.84985352 C110.32822006 14.74474487 110.33441864 15.63963623 110.34080505 16.56164551 C110.3478999 18.45116082 110.34473503 20.34073868 110.33203125 22.23022461 C110.31816116 25.12153042 110.35224383 28.00960212 110.39038086 30.90063477 C110.39133204 32.73787514 110.38947329 34.57511957 110.38452148 36.41235352 C110.39777969 37.27598511 110.4110379 38.1396167 110.42469788 39.02941895 C110.40589821 40.24087585 110.40589821 40.24087585 110.38671875 41.47680664 C110.38575699 42.18421997 110.38479523 42.8916333 110.38380432 43.6204834 C109.32608611 47.00588049 107.83884462 47.89863417 104.75561523 49.63110352 C101.04410472 50.22395324 97.37106384 50.18767596 93.61889648 50.16455078 C91.9327272 50.17747414 91.9327272 50.17747414 90.2124939 50.19065857 C86.49746667 50.2133577 82.7831913 50.20657227 79.06811523 50.19750977 C76.4864886 50.20274333 73.90486388 50.20901882 71.32324219 50.21629333 C65.91290276 50.22670474 60.50285063 50.22245404 55.0925293 50.20751953 C48.84328872 50.19059212 42.59474635 50.20644315 36.34558201 50.23874241 C30.32643831 50.26867108 24.30764983 50.27062082 18.28842163 50.26124382 C15.73032727 50.26042286 13.17221851 50.26731365 10.61416626 50.28201485 C7.03970227 50.29940846 3.46673728 50.28495914 -0.10766602 50.26220703 C-1.16652008 50.27389923 -2.22537415 50.28559143 -3.3163147 50.29763794 C-8.06336952 50.23607219 -10.47379367 50.18913613 -14.3999939 47.34593201 C-16.16410606 44.74926877 -16.87307315 43.6269106 -16.89135742 40.56274414 C-16.90711823 39.79845093 -16.92287903 39.03415771 -16.93911743 38.2467041 C-16.92899628 37.43511841 -16.91887512 36.62353271 -16.90844727 35.78735352 C-16.9132309 34.94064087 -16.91801453 34.09392822 -16.92294312 33.22155762 C-16.92633651 31.43634171 -16.91717317 29.6510632 -16.89624023 27.8659668 C-16.86946358 25.13912929 -16.89600375 22.41640732 -16.92797852 19.68969727 C-16.92467431 17.95140696 -16.91826786 16.21311922 -16.90844727 14.47485352 C-16.91856842 13.66326782 -16.92868958 12.85168213 -16.93911743 12.01550293 C-16.92335663 11.25120972 -16.90759583 10.4869165 -16.89135742 9.69946289 C-16.88737946 9.03281616 -16.88340149 8.36616943 -16.87930298 7.67932129 C-14.29645684 -0.6528249 -7.26314348 -0.0793831 0 0 Z " fill="#214773" transform="translate(291.244384765625,398.368896484375)"/>
<path d="M0 0 C1.32837891 0.00845947 1.32837891 0.00845947 2.68359375 0.01708984 C19.1635928 0.32127111 33.60798527 6.59043727 45.3125 18.3125 C51.56506197 25.89725636 56.09937926 34.01065046 59.3125 43.3125 C59.55742187 43.98410156 59.80234375 44.65570313 60.0546875 45.34765625 C64.73189937 60.43646987 59.95641468 75.87179445 53.00585938 89.28466797 C52.11759208 90.96567661 51.21644919 92.63987192 50.3125 94.3125 C47.82653677 91.8955913 45.48217695 89.53328446 43.3671875 86.78125 C35.27384204 77.05692618 21.76015618 71.12998098 9.4375 69.5 C8.40625 69.438125 7.375 69.37625 6.3125 69.3125 C8.54644141 67.07855859 10.04760345 66.59335209 13 65.5625 C20.52885909 62.60744997 25.14126059 58.74569489 28.48828125 51.33984375 C28.76027344 50.67082031 29.03226562 50.00179687 29.3125 49.3125 C29.66957031 48.52359375 30.02664062 47.7346875 30.39453125 46.921875 C32.97108883 39.59787303 31.8152443 31.56980511 28.63671875 24.6328125 C24.59900439 17.55787937 19.80763094 13.35539504 12.3125 10.3125 C11.136875 9.69375 11.136875 9.69375 9.9375 9.0625 C2.37884316 6.90288376 -5.59785925 8.14022444 -12.6875 11.3125 C-19.96149205 15.58654947 -24.63730158 21.09533985 -27.2890625 29.13671875 C-29.13243689 39.20298868 -28.12972957 47.6544075 -22.6875 56.3125 C-22.33816406 57.04082031 -21.98882812 57.76914063 -21.62890625 58.51953125 C-20.36305483 60.93042669 -19.179297 61.23496616 -16.6875 62.3125 C-15.57375 62.9725 -14.46 63.6325 -13.3125 64.3125 C-10.21377641 66.10614562 -7.13370491 67.30385466 -3.6875 68.3125 C-3.6875 68.6425 -3.6875 68.9725 -3.6875 69.3125 C-4.61949219 69.44785156 -5.55148438 69.58320313 -6.51171875 69.72265625 C-22.91538496 72.4925372 -35.42680409 80.05037604 -45.6875 93.3125 C-49.22342373 92.13385876 -49.69212506 90.96092111 -51.33959961 87.75732422 C-58.12485089 73.72828497 -60.85107475 57.01358203 -56.0625 41.75 C-55.32216666 39.91593378 -54.53080135 38.10155987 -53.6875 36.3125 C-53.26339844 35.38308594 -52.83929688 34.45367187 -52.40234375 33.49609375 C-44.20355411 17.07567661 -30.4204819 7.10193853 -13.39453125 1.1640625 C-8.85979995 0.12236448 -4.63719361 -0.0308324 0 0 Z " fill="#A1D1FC" transform="translate(176.6875,97.6875)"/>
<path d="M0 0 C1.13990654 -0.00623996 2.27981309 -0.01247993 3.45426226 -0.01890898 C7.28836043 -0.03491191 11.1218293 -0.02220555 14.95593262 -0.00964355 C17.69877947 -0.01286024 20.44159929 -0.02203701 23.18443298 -0.03088379 C29.8695811 -0.04868686 36.55454976 -0.04482115 43.23970497 -0.03323323 C48.67198974 -0.02420617 54.10422416 -0.02297174 59.53651428 -0.02732849 C60.30914322 -0.02794142 61.08177215 -0.02855436 61.87781408 -0.02918586 C63.44730804 -0.03046474 65.01680198 -0.03176159 66.5862959 -0.03307623 C81.30959112 -0.04448726 96.03278678 -0.03136015 110.75606567 -0.00987476 C123.39418967 0.00799672 136.03216673 0.00489276 148.67028809 -0.0135498 C163.34025414 -0.03494732 178.01013289 -0.04338857 192.68011236 -0.03110075 C194.2438898 -0.02982653 195.80766724 -0.02856905 197.3714447 -0.02732849 C198.52561065 -0.02640284 198.52561065 -0.02640284 199.70309308 -0.02545848 C205.12996928 -0.02200222 210.5567902 -0.02783987 215.98365784 -0.0372467 C222.595642 -0.04845567 229.20743618 -0.04545006 235.81939852 -0.02412373 C239.19419628 -0.013598 242.56841409 -0.01166308 245.94325066 -0.02272034 C249.59847309 -0.03359492 253.2527945 -0.02000874 256.90795898 0 C258.51475108 -0.01338433 258.51475108 -0.01338433 260.15400362 -0.02703905 C267.28189725 0.04903386 267.28189725 0.04903386 270.60919952 2.32093048 C272.61996279 5.59101747 272.55695111 7.75611115 271.95397949 11.50793457 C269.79616995 14.06880825 268.01901619 15.3367376 264.67776012 15.87382042 C261.73497073 16.02952805 258.8172615 16.04551232 255.87036133 16.02259827 C254.73847303 16.02954379 253.60658473 16.03648932 252.44039679 16.04364532 C248.63938665 16.06197334 244.83899655 16.05163435 241.03796387 16.04138184 C238.31629395 16.04624286 235.59465454 16.05704359 232.8730011 16.06748962 C226.24314231 16.08913728 219.61345512 16.08900091 212.9835726 16.08086408 C207.59565487 16.07456583 202.2077872 16.07569949 196.81987 16.08213615 C196.053216 16.08303781 195.286562 16.08393946 194.49667606 16.08486844 C192.93926337 16.08671963 191.3818507 16.08858219 189.82443804 16.090456 C175.21842828 16.10703694 160.61251511 16.09831258 146.00651115 16.08147042 C132.64057884 16.06677109 119.27487128 16.08140455 105.90896791 16.11024059 C92.18702034 16.1396245 78.46517653 16.15060995 64.74319887 16.14105839 C63.1914956 16.14003582 61.6397923 16.13904122 60.08808899 16.13807487 C59.32460894 16.13759848 58.5611289 16.1371221 57.7745131 16.13663127 C52.39266013 16.13446591 47.01090529 16.14427754 41.6290741 16.1588459 C35.07091281 16.1763508 28.51303815 16.17627857 21.95488822 16.15349425 C18.6082013 16.14233489 15.26243632 16.14191999 11.91570473 16.15779495 C8.28918201 16.17363947 4.66405354 16.15885336 1.03759766 16.13612366 C-0.02222022 16.14795939 -1.08203809 16.15979511 -2.17397165 16.1719895 C-6.95206542 16.11091176 -9.28181704 16.07616883 -13.20359039 13.160079 C-15.04602051 10.50793457 -15.04602051 10.50793457 -15.60852051 7.44543457 C-13.98372007 -1.03963436 -7.09485715 -0.05909907 0 0 Z " fill="#1E4570" transform="translate(129.0460205078125,309.4920654296875)"/>
<path d="M0 0 C1.70501613 -0.00935994 1.70501613 -0.00935994 3.44447702 -0.01890898 C7.26165114 -0.03489171 11.07819138 -0.02221341 14.89537048 -0.00964355 C17.62851278 -0.01286142 20.36162798 -0.02203853 23.09475708 -0.03088379 C29.7523628 -0.04867583 36.4097882 -0.04482622 43.067401 -0.03323323 C48.47725535 -0.0242026 53.88705914 -0.02297329 59.29691887 -0.02732849 C60.06663695 -0.02794142 60.83635504 -0.02855436 61.62939791 -0.02918586 C63.19301333 -0.03046475 64.75662874 -0.0317616 66.32024413 -0.03307623 C80.98393231 -0.04448383 95.64752048 -0.03136512 110.31119227 -0.00987476 C122.89756997 0.00799996 135.48380013 0.00488942 148.07017517 -0.0135498 C162.68264983 -0.03494723 177.29503686 -0.04338893 191.907525 -0.03110075 C193.46510818 -0.02982654 195.02269138 -0.02856905 196.58027458 -0.02732849 C197.34665945 -0.02671139 198.11304432 -0.02609429 198.90265297 -0.02545848 C204.30749948 -0.02200246 209.71229046 -0.02783928 215.11712837 -0.0372467 C221.70164024 -0.04845541 228.28596132 -0.04545045 234.87045128 -0.02412373 C238.23107988 -0.0135982 241.5911261 -0.01166287 244.95179367 -0.02272034 C248.59163722 -0.03359508 252.23057597 -0.02000861 255.87036133 0 C256.93698299 -0.00892289 258.00360465 -0.01784577 259.10254818 -0.02703905 C266.19930551 0.04902063 266.19930551 0.04902063 269.52802181 2.32093048 C271.51839188 5.56053328 271.40309694 7.78807792 270.87168884 11.50793457 C269.53081512 13.69493866 269.53081512 13.69493866 266.87168884 15.50793457 C263.19547477 16.11810243 259.54463901 16.04684759 255.82566833 16.01586914 C254.68576179 16.0221091 253.54585525 16.02834907 252.37140608 16.03477812 C248.5373079 16.05078105 244.70383904 16.03807469 240.86973572 16.0255127 C238.12688886 16.02872938 235.38406905 16.03790615 232.64123535 16.04675293 C225.95608723 16.064556 219.27111857 16.06069029 212.58596337 16.04910237 C207.15367859 16.04007531 201.72144417 16.03884088 196.28915405 16.04319763 C195.13021065 16.04411703 195.13021065 16.04411703 193.94785425 16.045055 C192.3783603 16.04633388 190.80886636 16.04763073 189.23937243 16.04894537 C174.51607722 16.0603564 159.79288156 16.04722929 145.06960267 16.0257439 C132.43147866 16.00787242 119.7935016 16.01097639 107.15538025 16.02941895 C92.4854142 16.05081646 77.81553545 16.05925771 63.14555597 16.04696989 C61.58177854 16.04569567 60.01800109 16.04443819 58.45422363 16.04319763 C57.30005768 16.04227198 57.30005768 16.04227198 56.12257525 16.04132763 C50.69569905 16.03787136 45.26887814 16.04370901 39.8420105 16.05311584 C33.23002634 16.06432481 26.61823216 16.0613192 20.00626981 16.03999287 C16.63147206 16.02946714 13.25725425 16.02753222 9.88241768 16.03858948 C6.22719524 16.04946406 2.57287384 16.03587788 -1.08229065 16.01586914 C-2.68908274 16.02925347 -2.68908274 16.02925347 -4.32833529 16.04290819 C-11.45622891 15.96683528 -11.45622891 15.96683528 -14.78353119 13.69493866 C-16.79429445 10.42485167 -16.73128278 8.25975799 -16.12831116 4.50793457 C-11.69928839 -0.75739328 -6.35271133 -0.05325536 0 0 Z " fill="#1E4471" transform="translate(130.12831115722656,251.4920654296875)"/>
<path d="M0 0 C0.95584769 -0.00322445 1.91169538 -0.00644889 2.89650816 -0.00977105 C3.94367508 -0.00822245 4.990842 -0.00667385 6.06974125 -0.00507832 C7.18444091 -0.00734387 8.29914058 -0.00960943 9.44761902 -0.01194364 C13.19626838 -0.01829203 16.94488166 -0.01745373 20.6935358 -0.01662922 C23.37563558 -0.01962016 26.05773249 -0.02299406 28.73983097 -0.02680683 C35.27686721 -0.03511501 41.81389443 -0.03786174 48.35093551 -0.03841921 C53.66353741 -0.03889424 58.97613634 -0.04094834 64.2887373 -0.04411983 C79.34692315 -0.05292645 94.40510188 -0.05753914 109.46329033 -0.05678936 C110.27516489 -0.0567494 111.08703945 -0.05670945 111.92351627 -0.05666828 C113.14281269 -0.05660696 113.14281269 -0.05660696 114.38674135 -0.0565444 C127.56513567 -0.05613781 140.74350144 -0.06571063 153.92188751 -0.07980665 C167.44941877 -0.09416212 180.9769361 -0.10107731 194.50447518 -0.10021287 C202.10078135 -0.09988064 209.69705758 -0.10263921 217.2933569 -0.11339092 C223.75996189 -0.12248497 230.22652336 -0.12468018 236.69313198 -0.1178815 C239.99297363 -0.11461088 243.29271415 -0.11566074 246.59255123 -0.12323475 C250.16835666 -0.13091219 253.74394084 -0.12633799 257.31974125 -0.11860371 C258.88714555 -0.12631905 258.88714555 -0.12631905 260.48621458 -0.13419026 C261.92389774 -0.12729207 261.92389774 -0.12729207 263.390625 -0.12025452 C264.62848846 -0.12058057 264.62848846 -0.12058057 265.89135927 -0.12091321 C269.77392439 0.28843901 272.49648055 1.36688193 275.25823307 4.12863445 C275.58637088 7.67252282 275.79348719 10.16860378 274.03437895 13.32373667 C272.25823307 15.12863445 272.25823307 15.12863445 270.09487206 15.63003111 C268.82397293 15.63100522 268.82397293 15.63100522 267.52739906 15.63199902 C266.54854195 15.64243001 265.56968484 15.65286099 264.56116539 15.66360807 C263.48316687 15.65468519 262.40516835 15.6457623 261.29450321 15.63656902 C260.15136754 15.64280899 259.00823187 15.64904895 257.83045572 15.655478 C254.65230802 15.66870136 251.47476812 15.66390345 248.29663527 15.65153313 C244.87118815 15.64250458 241.44582492 15.65644145 238.02039433 15.66745281 C231.3077038 15.68526683 224.59519188 15.68138515 217.88249428 15.66980225 C212.42777908 15.66077873 206.97311403 15.65953923 201.51839352 15.66389751 C200.74285373 15.66451045 199.96731394 15.66512338 199.16827295 15.66575488 C197.59290047 15.66703375 196.01752799 15.66833061 194.44215553 15.66964525 C179.65925328 15.68105968 164.87645014 15.66792424 150.09356415 15.64644378 C137.40369383 15.62857553 124.71396988 15.63167296 112.02410221 15.65011883 C97.29664477 15.67151642 82.5692743 15.67995724 67.84180349 15.66766977 C66.2718318 15.66639555 64.7018601 15.66513806 63.13188839 15.66389751 C62.35938533 15.66328041 61.58688226 15.66266331 60.79097002 15.66202751 C55.34206412 15.658571 49.89321328 15.66440948 44.44431591 15.67381573 C37.80485945 15.68502494 31.16559218 15.68201869 24.52615745 15.66069275 C21.13726421 15.65016705 17.7486866 15.64608585 14.35979557 15.65928936 C10.68919424 15.67016378 7.01949019 15.65657788 3.34894657 15.63656902 C2.27317877 15.64549191 1.19741098 15.6544148 0.08904415 15.66360807 C-7.07858489 15.58743065 -7.07858489 15.58743065 -10.40759277 13.28438854 C-12.23027175 10.33931002 -12.23827027 8.5332288 -11.74176693 5.12863445 C-10.40634916 2.65811158 -9.62405167 1.41936713 -6.92875236 0.53120536 C-4.57028262 0.09706836 -2.39825987 0.00204755 0 0 Z " fill="#1E4571" transform="translate(125.74176692962646,366.8713655471802)"/>
<path d="M0 0 C1.21189499 -0.0087616 2.42378998 -0.01752319 3.67240906 -0.02655029 C6.98900885 -0.04476869 10.30404605 -0.04052582 13.62055779 -0.02465487 C17.09491922 -0.01197463 20.56921498 -0.02374184 24.0435791 -0.03158569 C29.8776444 -0.04067617 35.71139297 -0.02871052 41.54541016 -0.00488281 C48.28543495 0.0223278 55.02470348 0.01351317 61.76470995 -0.01401484 C67.55683876 -0.03672244 73.34874022 -0.03989808 79.14089918 -0.02682149 C82.59799053 -0.01903586 86.05472667 -0.01796035 89.51179504 -0.03450394 C93.36623411 -0.05166149 97.21982964 -0.02786595 101.07421875 0 C102.21722946 -0.01012115 103.36024017 -0.02024231 104.53788757 -0.03067017 C112.23078165 0.07248878 112.23078165 0.07248878 116.28479004 2.96084595 C118.03710938 5.64697266 118.03710938 5.64697266 118.03710938 9.27197266 C117.04887207 12.60727355 116.72463398 13.64123382 114.03710938 15.64697266 C111.69573307 16.02728939 111.69573307 16.02728939 108.8818512 16.03465271 C107.28143982 16.04950966 107.28143982 16.04950966 105.6486969 16.06466675 C104.47822311 16.0601651 103.30774933 16.05566345 102.10180664 16.05102539 C100.25273209 16.06132027 100.25273209 16.06132027 98.36630249 16.07182312 C94.98390243 16.08700585 91.60205264 16.08858038 88.21965909 16.08288074 C85.39653364 16.07979321 82.57345826 16.08587649 79.75033993 16.09191948 C73.09027227 16.10597366 66.43033285 16.10439625 59.77026367 16.09301758 C52.89858702 16.08153682 46.02730068 16.09560891 39.15567547 16.12241405 C33.25663489 16.14456403 27.35771688 16.15121001 21.45863765 16.14533764 C17.93506874 16.14196494 14.41174999 16.14440339 10.88821602 16.16158867 C6.959257 16.17991437 3.03077865 16.16587784 -0.89819336 16.14868164 C-2.06664291 16.15834961 -3.23509247 16.16801758 -4.43894958 16.17797852 C-6.0435907 16.16322731 -6.0435907 16.16322731 -7.6806488 16.1481781 C-9.07408587 16.14786417 -9.07408587 16.14786417 -10.49567318 16.14754391 C-13.73752209 15.48980846 -14.93355514 14.20863443 -16.96289062 11.64697266 C-17.69901745 7.8027548 -17.36781978 6.24751525 -15.17541504 2.9960022 C-10.32071681 -0.55380103 -5.87199366 -0.05199545 0 0 Z " fill="#1E4571" transform="translate(130.962890625,424.35302734375)"/>
<path d="M0 0 C1.58572815 -0.01073296 1.58572815 -0.01073296 3.20349121 -0.02168274 C4.9505687 -0.02571609 4.9505687 -0.02571609 6.73294067 -0.02983093 C7.95575745 -0.03640213 9.17857422 -0.04297333 10.43844604 -0.04974365 C13.79800588 -0.06609853 17.1575027 -0.07770533 20.51708746 -0.08594918 C22.61535864 -0.09109848 24.7136254 -0.0971742 26.81189346 -0.10346031 C33.37503219 -0.12251151 39.93815966 -0.13674355 46.50132072 -0.14507228 C54.08108019 -0.15484961 61.66054802 -0.18118198 69.24020469 -0.22157317 C75.09673719 -0.25171282 80.95318598 -0.26653903 86.80979455 -0.26985329 C90.30882267 -0.272206 93.80753919 -0.28119453 97.30648422 -0.30631447 C101.20914855 -0.3338804 105.11142758 -0.32977062 109.01419067 -0.32279968 C110.17486053 -0.33560974 111.3355304 -0.3484198 112.53137207 -0.36161804 C113.59416382 -0.35467422 114.65695557 -0.34773041 115.75195312 -0.34057617 C117.1362769 -0.3441587 117.1362769 -0.3441587 118.54856682 -0.34781361 C121.79798684 0.30750635 122.98675246 1.5624725 125.00296021 4.14717102 C125.56546021 7.64717102 125.56546021 7.64717102 125.00296021 11.14717102 C122.81573095 13.82524203 120.9989511 14.99892464 117.55837822 15.5110302 C114.37368313 15.66315778 111.21248331 15.67581056 108.02420044 15.64888 C106.20394852 15.65698448 106.20394852 15.65698448 104.34692383 15.66525269 C101.02644703 15.67560595 97.70696913 15.66805166 94.38658023 15.65154147 C90.90909866 15.63767077 87.4316466 15.64415322 83.95414734 15.64767456 C78.11592255 15.65037474 72.27790359 15.63691657 66.43972778 15.61372375 C59.69188567 15.5871026 52.94438737 15.58537149 46.19651073 15.59711212 C39.70113826 15.60789352 33.20589003 15.60170085 26.71052742 15.58755684 C23.94783653 15.58180138 21.1852367 15.58187618 18.42254448 15.58662224 C14.56567257 15.59228333 10.70914435 15.57306847 6.85232544 15.55122375 C5.70571945 15.5557254 4.55911346 15.56022705 3.37776184 15.56486511 C1.80269867 15.55000816 1.80269867 15.55000816 0.19581604 15.53485107 C-1.17160154 15.53120623 -1.17160154 15.53120623 -2.56664371 15.52748775 C-5.49987491 15.06848565 -6.86229213 14.18517677 -8.99703979 12.14717102 C-10.19012141 8.4883874 -10.32371723 6.8471941 -8.68453979 3.33467102 C-6.02904628 -0.10763539 -4.16490971 0.01930172 0 0 Z " fill="#1E4470" transform="translate(275.9970397949219,200.8528289794922)"/>
<path d="M0 0 C1.59628738 -0.01073296 1.59628738 -0.01073296 3.224823 -0.02168274 C4.40248734 -0.02437164 5.58015167 -0.02706055 6.79350281 -0.02983093 C8.02592712 -0.03640213 9.25835144 -0.04297333 10.52812195 -0.04974365 C13.91873167 -0.06611622 17.30927874 -0.07771217 20.69991326 -0.08594918 C22.81710765 -0.09109462 24.93429761 -0.09717058 27.05148888 -0.10346031 C33.67229615 -0.12251992 40.29309221 -0.13674891 46.91392165 -0.14507228 C54.56274071 -0.15484597 62.21127046 -0.18116533 69.85998756 -0.22157317 C75.76745487 -0.25171347 81.67483918 -0.26653919 87.5823819 -0.26985329 C91.11272287 -0.2722064 94.64275504 -0.28119963 98.17301369 -0.30631447 C102.11170886 -0.33388117 106.05002227 -0.3297704 109.98881531 -0.32279968 C111.16040695 -0.33560974 112.3319986 -0.3484198 113.53909302 -0.36161804 C115.14806961 -0.35120232 115.14806961 -0.35120232 116.78955078 -0.34057617 C118.1868843 -0.3441587 118.1868843 -0.3441587 119.61244678 -0.34781361 C122.87552439 0.30536117 124.06301069 1.55048993 126.08525085 4.14717102 C126.64775085 7.64717102 126.64775085 7.64717102 126.08525085 11.14717102 C123.90035863 13.81502572 122.0898088 14.99784696 118.65664482 15.5081749 C115.49701729 15.65597839 112.36128574 15.66432517 109.19828796 15.63301086 C107.3926664 15.6387059 107.3926664 15.6387059 105.55056763 15.64451599 C102.25693618 15.65064909 98.96431192 15.63893381 95.67079997 15.61860991 C92.22135611 15.60101014 88.77192834 15.60456453 85.32244873 15.60533142 C79.53129498 15.60345995 73.74035118 15.58611599 67.94926453 15.55879211 C61.25600338 15.52732804 54.56297196 15.51679653 47.8696422 15.51826322 C40.739298 15.5196146 33.60904223 15.50573114 26.47872472 15.48737001 C24.42569279 15.48310976 22.37267515 15.48168799 20.31963921 15.48089218 C16.49395009 15.47850823 12.66845155 15.45907751 8.84281921 15.43769836 C7.70556396 15.43860474 6.56830872 15.43951111 5.39659119 15.44044495 C3.83414925 15.42764999 3.83414925 15.42764999 2.24014282 15.41459656 C1.33590545 15.41124487 0.43166807 15.40789318 -0.49997044 15.40443993 C-3.13385913 15.12382719 -4.72022614 14.62492915 -6.91474915 13.14717102 C-8.35224915 9.83467102 -8.35224915 9.83467102 -8.91474915 6.14717102 C-6.56900929 1.00888371 -5.45476963 0.025054 0 0 Z " fill="#1E4571" transform="translate(274.9147491455078,149.8528289794922)"/>
<path d="M0 0 C31.68 0 63.36 0 96 0 C96 6.27 96 12.54 96 19 C64.32 19 32.64 19 0 19 C0 12.73 0 6.46 0 0 Z " fill="#A4D4FF" transform="translate(290,414)"/>
<path d="M0 0 C4.484009 3.84343629 8.12276758 7.07212647 11.9375 11.375 C19.13234973 19.3601977 26.8153643 26.86997713 34.45874023 34.42138672 C41.74162481 41.63332538 48.43675922 49.12411106 55 57 C36.85 57 18.7 57 0 57 C0 38.19 0 19.38 0 0 Z " fill="#A0D0FB" transform="translate(369,30)"/>
</svg>
