<?xml version="1.0" encoding="UTF-8"?>
<svg version="1.1" xmlns="http://www.w3.org/2000/svg" width="512" height="512">
<path d="M0 0 C1.18723905 -0.00382555 2.37447811 -0.00765109 3.5976941 -0.01159257 C6.88047703 -0.02010818 10.16311651 -0.01969561 13.44590318 -0.01541197 C16.99134706 -0.01294127 20.53676483 -0.02196324 24.0821991 -0.02944946 C31.02357333 -0.0421894 37.96490887 -0.043991 44.90629283 -0.0416492 C50.55011419 -0.03986492 56.19392381 -0.04161805 61.83774376 -0.04587364 C62.64153822 -0.04646883 63.44533268 -0.04706402 64.27348455 -0.04767724 C65.90650351 -0.04888902 67.53952245 -0.05010316 69.1725414 -0.05131962 C84.48257838 -0.06219266 99.79259332 -0.06003392 115.10263153 -0.05393478 C129.0987217 -0.04876711 143.09474223 -0.0600175 157.09081862 -0.07903299 C171.47163292 -0.09842097 185.85241429 -0.10666563 200.23324174 -0.10290974 C208.30307347 -0.10099899 216.37284595 -0.10347288 224.44266701 -0.11762428 C231.31348017 -0.12955136 238.18419763 -0.1309282 245.05501214 -0.11883412 C248.5580478 -0.11295441 252.06090852 -0.11182059 255.56393242 -0.12383652 C259.36781585 -0.13429551 263.17123097 -0.12620923 266.97509766 -0.11352539 C268.07346036 -0.12089968 269.17182306 -0.12827396 270.30346948 -0.13587171 C282.1721338 -0.05277133 292.47538211 3.23888303 301.40849304 11.26460266 C308.34623353 18.54076951 313.33063067 27.80643518 313.28316975 38.0141449 C313.2812438 38.97264249 313.27931786 39.93114008 313.27733356 40.91868305 C313.27012623 41.96885703 313.2629189 43.01903101 313.25549316 44.10102844 C313.25196435 45.21895625 313.24843554 46.33688406 313.24479979 47.48868847 C313.23645569 49.94388672 313.22577998 52.39907786 313.21310616 54.85425758 C313.19249942 58.84944324 313.17750992 62.84462813 313.164505 66.83984375 C313.15027222 71.14309788 313.13575614 75.44634898 313.11914504 79.74959469 C313.07842015 90.42606866 313.05779767 101.10246099 313.04928589 111.77900696 C313.04863993 112.55141547 313.04799398 113.32382397 313.04732845 114.1196388 C313.04143375 121.29288254 313.03678455 128.46612695 313.03260958 135.63937187 C313.02965134 140.55823205 313.02593712 145.47709122 313.02153015 150.39595032 C313.02044623 151.62146431 313.02044623 151.62146431 313.01934042 152.87173617 C313.0064453 166.0973191 312.95413884 179.32248047 312.88813166 192.54789209 C312.82130602 206.13545001 312.80027618 219.72254422 312.82059973 233.31025314 C312.83162738 241.68561572 312.80681448 250.05928622 312.73547562 258.43435901 C312.68988276 264.18103416 312.68865256 269.92666892 312.72169075 275.67342526 C312.73942057 278.98602699 312.73148174 282.29315707 312.68364143 285.60582542 C311.89209983 300.95765783 311.89209983 300.95765783 318.42178792 314.14145184 C320.87256944 316.3932465 323.48860815 318.30021272 326.17802429 320.26069641 C332.61435934 328.03544772 334.75634261 337.36555343 334.46318054 347.30757141 C333.68712262 355.34455484 330.82643593 361.741226 326.17802429 368.26069641 C325.57989929 369.14757141 324.98177429 370.03444641 324.36552429 370.94819641 C322.17802429 373.26069641 322.17802429 373.26069641 320.24461365 373.99992371 C317.55545696 375.09275869 316.08341803 376.0461861 314.17802429 378.26069641 C312.97567489 383.74364274 313.20485109 389.18071861 313.31864929 394.76850891 C313.32129022 396.41652782 313.31982105 398.06455796 313.31443787 399.71257019 C313.30866046 404.0523682 313.34708327 408.39053636 313.39830017 412.72999573 C313.47578204 419.65261069 313.49974721 426.57508647 313.49820709 433.49808884 C313.5059745 435.9019159 313.54072999 438.30423082 313.57847595 440.70774841 C313.69103022 454.02318073 310.76685654 464.87201294 301.65849304 474.94038391 C294.16463289 481.97841316 284.31533577 486.37395172 274.05165005 486.39491749 C273.03542708 486.39937533 272.01920411 486.40383318 270.97218651 486.40842611 C269.8626702 486.40824174 268.75315389 486.40805738 267.61001587 486.40786743 C265.83383726 486.41338246 265.83383726 486.41338246 264.02177626 486.41900891 C260.73837611 486.42811761 257.45500534 486.43274146 254.17159474 486.43539822 C250.62880819 486.43930909 247.08603601 486.44888688 243.54325867 486.45761108 C234.98904076 486.47735348 226.4348217 486.48743891 217.88058671 486.49633887 C213.84903581 486.50072545 209.81748622 486.5060913 205.78593636 486.51132774 C192.37864295 486.52833785 178.97135035 486.54283109 165.56404781 486.55007648 C162.08649634 486.55198628 158.60894488 486.55390662 155.13139343 486.55586243 C154.26709977 486.55634617 153.4028061 486.55682991 152.51232172 486.55732831 C138.51744236 486.56562517 124.52264858 486.59095724 110.52780657 486.6234431 C96.14931084 486.65654656 81.77085854 486.67452822 67.39232451 486.67772073 C59.32348641 486.67988279 51.25477309 486.68858684 43.18597221 486.7141819 C36.31296181 486.73593387 29.44010651 486.7439173 22.56706559 486.73421512 C19.06373694 486.72968335 15.56072801 486.73149034 12.05744362 486.75097656 C8.24966756 486.76870825 4.4426954 486.76158165 0.63491821 486.7484436 C-1.00593367 486.76489747 -1.00593367 486.76489747 -2.67993408 486.78168374 C-15.17239108 486.67805997 -25.0987592 482.92211865 -33.94697571 474.15522766 C-42.28307321 465.25215294 -46.06797787 456.07849015 -46.0764513 443.80742073 C-46.08126102 442.74452337 -46.08126102 442.74452337 -46.0861679 441.66015333 C-46.094436 439.29767924 -46.08855493 436.93546079 -46.08267212 434.57298279 C-46.08569426 432.85728663 -46.08958406 431.14159182 -46.09426469 429.42589939 C-46.10454533 424.72020234 -46.10236268 420.01458148 -46.09808409 415.30887818 C-46.095617 410.23038044 -46.10463082 405.15190105 -46.11212158 400.07341003 C-46.12487101 390.12758444 -46.12666197 380.18178585 -46.12432132 370.23595347 C-46.1225383 362.15174887 -46.12428747 354.06755246 -46.12854576 345.98334885 C-46.12943854 344.25748016 -46.12943854 344.25748016 -46.13034936 342.49674543 C-46.13156112 340.15934301 -46.13277525 337.8219406 -46.13399174 335.48453818 C-46.14486819 313.56428495 -46.14270427 291.64404711 -46.13660689 269.72379301 C-46.13143749 249.67187281 -46.14269364 229.62000117 -46.16170511 209.56809057 C-46.18107836 188.97669845 -46.18934042 168.38532932 -46.18558186 147.79392803 C-46.18366906 136.23426202 -46.18616511 124.67463736 -46.2002964 113.11497879 C-46.2122046 103.27428772 -46.21362134 93.43366344 -46.20150623 83.59297146 C-46.19561368 78.57302304 -46.1945286 73.55319684 -46.20650864 68.53325653 C-46.21735406 63.93528999 -46.21427998 59.33754792 -46.20024695 54.73959194 C-46.19759634 53.07882979 -46.19997799 51.41805013 -46.20798282 49.75730516 C-46.27632988 34.51609631 -43.76435313 22.4614028 -33.07197571 10.94819641 C-23.57125812 1.95612145 -12.58323357 -0.04303507 0 0 Z " fill="#FEFEFE" transform="translate(111.82197570800781,12.739303588867188)"/>
<path d="M0 0 C1.18723905 -0.00382555 2.37447811 -0.00765109 3.5976941 -0.01159257 C6.88047703 -0.02010818 10.16311651 -0.01969561 13.44590318 -0.01541197 C16.99134706 -0.01294127 20.53676483 -0.02196324 24.0821991 -0.02944946 C31.02357333 -0.0421894 37.96490887 -0.043991 44.90629283 -0.0416492 C50.55011419 -0.03986492 56.19392381 -0.04161805 61.83774376 -0.04587364 C62.64153822 -0.04646883 63.44533268 -0.04706402 64.27348455 -0.04767724 C65.90650351 -0.04888902 67.53952245 -0.05010316 69.1725414 -0.05131962 C84.48257838 -0.06219266 99.79259332 -0.06003392 115.10263153 -0.05393478 C129.0987217 -0.04876711 143.09474223 -0.0600175 157.09081862 -0.07903299 C171.47163292 -0.09842097 185.85241429 -0.10666563 200.23324174 -0.10290974 C208.30307347 -0.10099899 216.37284595 -0.10347288 224.44266701 -0.11762428 C231.31348017 -0.12955136 238.18419763 -0.1309282 245.05501214 -0.11883412 C248.5580478 -0.11295441 252.06090852 -0.11182059 255.56393242 -0.12383652 C259.36781585 -0.13429551 263.17123097 -0.12620923 266.97509766 -0.11352539 C268.07346036 -0.12089968 269.17182306 -0.12827396 270.30346948 -0.13587171 C282.1721338 -0.05277133 292.47538211 3.23888303 301.40849304 11.26460266 C308.34623353 18.54076951 313.33063067 27.80643518 313.28316975 38.0141449 C313.2812438 38.97264249 313.27931786 39.93114008 313.27733356 40.91868305 C313.27012623 41.96885703 313.2629189 43.01903101 313.25549316 44.10102844 C313.25196435 45.21895625 313.24843554 46.33688406 313.24479979 47.48868847 C313.23645569 49.94388672 313.22577998 52.39907786 313.21310616 54.85425758 C313.19249942 58.84944324 313.17750992 62.84462813 313.164505 66.83984375 C313.15027222 71.14309788 313.13575614 75.44634898 313.11914504 79.74959469 C313.07842015 90.42606866 313.05779767 101.10246099 313.04928589 111.77900696 C313.04863993 112.55141547 313.04799398 113.32382397 313.04732845 114.1196388 C313.04143375 121.29288254 313.03678455 128.46612695 313.03260958 135.63937187 C313.02965134 140.55823205 313.02593712 145.47709122 313.02153015 150.39595032 C313.02044623 151.62146431 313.02044623 151.62146431 313.01934042 152.87173617 C313.0064453 166.0973191 312.95413884 179.32248047 312.88813166 192.54789209 C312.82130602 206.13545001 312.80027618 219.72254422 312.82059973 233.31025314 C312.83162738 241.68561572 312.80681448 250.05928622 312.73547562 258.43435901 C312.68988276 264.18103416 312.68865256 269.92666892 312.72169075 275.67342526 C312.73942057 278.98602699 312.73148174 282.29315707 312.68364143 285.60582542 C311.89209983 300.95765783 311.89209983 300.95765783 318.42178792 314.14145184 C320.87256944 316.3932465 323.48860815 318.30021272 326.17802429 320.26069641 C332.61435934 328.03544772 334.75634261 337.36555343 334.46318054 347.30757141 C333.68712262 355.34455484 330.82643593 361.741226 326.17802429 368.26069641 C325.57989929 369.14757141 324.98177429 370.03444641 324.36552429 370.94819641 C322.17802429 373.26069641 322.17802429 373.26069641 320.24461365 373.99992371 C317.55545696 375.09275869 316.08341803 376.0461861 314.17802429 378.26069641 C312.97567489 383.74364274 313.20485109 389.18071861 313.31864929 394.76850891 C313.32129022 396.41652782 313.31982105 398.06455796 313.31443787 399.71257019 C313.30866046 404.0523682 313.34708327 408.39053636 313.39830017 412.72999573 C313.47578204 419.65261069 313.49974721 426.57508647 313.49820709 433.49808884 C313.5059745 435.9019159 313.54072999 438.30423082 313.57847595 440.70774841 C313.69103022 454.02318073 310.76685654 464.87201294 301.65849304 474.94038391 C294.16463289 481.97841316 284.31533577 486.37395172 274.05165005 486.39491749 C273.03542708 486.39937533 272.01920411 486.40383318 270.97218651 486.40842611 C269.8626702 486.40824174 268.75315389 486.40805738 267.61001587 486.40786743 C265.83383726 486.41338246 265.83383726 486.41338246 264.02177626 486.41900891 C260.73837611 486.42811761 257.45500534 486.43274146 254.17159474 486.43539822 C250.62880819 486.43930909 247.08603601 486.44888688 243.54325867 486.45761108 C234.98904076 486.47735348 226.4348217 486.48743891 217.88058671 486.49633887 C213.84903581 486.50072545 209.81748622 486.5060913 205.78593636 486.51132774 C192.37864295 486.52833785 178.97135035 486.54283109 165.56404781 486.55007648 C162.08649634 486.55198628 158.60894488 486.55390662 155.13139343 486.55586243 C154.26709977 486.55634617 153.4028061 486.55682991 152.51232172 486.55732831 C138.51744236 486.56562517 124.52264858 486.59095724 110.52780657 486.6234431 C96.14931084 486.65654656 81.77085854 486.67452822 67.39232451 486.67772073 C59.32348641 486.67988279 51.25477309 486.68858684 43.18597221 486.7141819 C36.31296181 486.73593387 29.44010651 486.7439173 22.56706559 486.73421512 C19.06373694 486.72968335 15.56072801 486.73149034 12.05744362 486.75097656 C8.24966756 486.76870825 4.4426954 486.76158165 0.63491821 486.7484436 C-1.00593367 486.76489747 -1.00593367 486.76489747 -2.67993408 486.78168374 C-15.17239108 486.67805997 -25.0987592 482.92211865 -33.94697571 474.15522766 C-42.28307321 465.25215294 -46.06797787 456.07849015 -46.0764513 443.80742073 C-46.08126102 442.74452337 -46.08126102 442.74452337 -46.0861679 441.66015333 C-46.094436 439.29767924 -46.08855493 436.93546079 -46.08267212 434.57298279 C-46.08569426 432.85728663 -46.08958406 431.14159182 -46.09426469 429.42589939 C-46.10454533 424.72020234 -46.10236268 420.01458148 -46.09808409 415.30887818 C-46.095617 410.23038044 -46.10463082 405.15190105 -46.11212158 400.07341003 C-46.12487101 390.12758444 -46.12666197 380.18178585 -46.12432132 370.23595347 C-46.1225383 362.15174887 -46.12428747 354.06755246 -46.12854576 345.98334885 C-46.12943854 344.25748016 -46.12943854 344.25748016 -46.13034936 342.49674543 C-46.13156112 340.15934301 -46.13277525 337.8219406 -46.13399174 335.48453818 C-46.14486819 313.56428495 -46.14270427 291.64404711 -46.13660689 269.72379301 C-46.13143749 249.67187281 -46.14269364 229.62000117 -46.16170511 209.56809057 C-46.18107836 188.97669845 -46.18934042 168.38532932 -46.18558186 147.79392803 C-46.18366906 136.23426202 -46.18616511 124.67463736 -46.2002964 113.11497879 C-46.2122046 103.27428772 -46.21362134 93.43366344 -46.20150623 83.59297146 C-46.19561368 78.57302304 -46.1945286 73.55319684 -46.20650864 68.53325653 C-46.21735406 63.93528999 -46.21427998 59.33754792 -46.20024695 54.73959194 C-46.19759634 53.07882979 -46.19997799 51.41805013 -46.20798282 49.75730516 C-46.27632988 34.51609631 -43.76435313 22.4614028 -33.07197571 10.94819641 C-23.57125812 1.95612145 -12.58323357 -0.04303507 0 0 Z M-25.58719599 25.35822994 C-31.37550299 34.27646844 -31.39508816 42.67362102 -31.34336853 52.97927856 C-31.34941442 54.68616789 -31.35719483 56.3930518 -31.36655366 58.09992617 C-31.38709484 62.77677014 -31.38275503 67.45330715 -31.37419248 72.13017619 C-31.36925453 77.17940799 -31.38729062 82.22856621 -31.40226746 87.277771 C-31.4277564 97.16466079 -31.43134946 107.05144194 -31.42666693 116.93835906 C-31.4230996 124.97581173 -31.42660197 133.01323143 -31.43511581 141.05068016 C-31.43630619 142.19499563 -31.43749657 143.3393111 -31.43872302 144.51830279 C-31.44114655 146.84305822 -31.44357482 149.16781364 -31.44600777 151.49256905 C-31.46775707 173.29081732 -31.46343468 195.0890037 -31.45123808 216.88725545 C-31.4409008 236.82142214 -31.46340802 256.75539333 -31.50143452 276.68952135 C-31.54019511 297.16570743 -31.5567026 317.64180104 -31.54918802 338.11802405 C-31.54536438 349.61071848 -31.5503351 361.10324654 -31.5786171 372.59591103 C-31.60245165 382.38022644 -31.60524702 392.16427308 -31.58103676 401.94859222 C-31.56926372 406.93854774 -31.56704675 411.92801172 -31.59104156 416.91793442 C-31.61277546 421.49091275 -31.60653562 426.06298967 -31.5785182 430.63592597 C-31.57322851 432.28525347 -31.57794449 433.9346518 -31.59398992 435.58390973 C-31.68409135 445.5406152 -30.8166015 453.86048452 -24.82197571 462.26069641 C-19.28208074 467.66364046 -13.67399679 471.50507598 -5.73686695 471.51796532 C-4.72986077 471.52441421 -3.72285459 471.5308631 -2.68533307 471.53750741 C-1.58612537 471.53441021 -0.48691766 471.53131301 0.64559937 471.52812195 C1.81887891 471.53265306 2.99215846 471.53718417 4.20099193 471.54185259 C7.45408478 471.55232302 10.70703862 471.55382238 13.96014297 471.55146384 C17.47017937 471.55105561 20.98018282 471.56209554 24.49020386 471.57157898 C31.36634177 471.58818975 38.2424454 471.5936886 45.1186017 471.59480374 C50.70955385 471.59575435 56.30049468 471.59986532 61.89144325 471.60620499 C77.7484598 471.62381905 93.60544928 471.63304382 109.46247568 471.63154404 C110.31727616 471.63146413 111.17207663 471.63138421 112.05278015 471.63130188 C113.33654981 471.63117924 113.33654981 471.63117924 114.64625422 471.63105412 C128.50992667 471.63024159 142.37349037 471.64937055 156.23713138 471.67757861 C170.47776198 471.70632462 184.71833959 471.7201179 198.95899993 471.71839106 C206.95175474 471.71772766 214.94439561 471.7231977 222.93712425 471.74474716 C229.74395885 471.76298177 236.55062789 471.7672878 243.35747638 471.75372832 C246.82814758 471.74720954 250.29850137 471.74704133 253.76914215 471.76443481 C257.53822109 471.77987968 261.30646983 471.7705825 265.07553101 471.75517273 C266.1635851 471.76545986 267.2516392 471.77574698 268.37266463 471.78634584 C277.02685856 471.70831227 284.42753566 469.94295877 291.05302429 464.13569641 C298.77582377 455.49629991 298.72996378 445.40281374 298.56864929 434.40913391 C298.56117317 432.89885717 298.55548673 431.38857062 298.55149841 429.87828064 C298.53634962 425.93585117 298.49716366 421.99402715 298.4526825 418.05183411 C298.41149498 414.0160694 298.39343769 409.98020523 298.37333679 405.94429016 C298.33065637 398.04948351 298.2625391 390.15516563 298.17802429 382.26069641 C297.12743835 382.02995422 296.07685242 381.79921204 294.99443054 381.56147766 C293.57629469 381.23277068 292.15833518 380.90330225 290.74052429 380.57319641 C290.05280945 380.42430969 289.3650946 380.27542297 288.65653992 380.12202454 C279.00320036 377.8321626 273.21042642 374.11969909 267.77830315 365.76289177 C257.05301602 349.28317575 241.90112227 330.8038543 222.02275848 325.80342865 C193.73106306 319.9254438 163.17360301 322.48956907 134.51261127 323.67171085 C121.56039178 324.19702676 108.60520196 324.41495661 95.64482117 324.63374329 C82.42097564 324.86342215 69.20191868 325.11890368 55.98364258 325.57315063 C53.97510685 325.63891445 51.96656711 325.70455591 49.95802307 325.77006531 C46.23648395 325.89198822 42.51640189 326.03357572 38.79602051 326.18643188 C37.15070035 326.24166268 35.50535641 326.29619122 33.85998535 326.34988403 C32.74703849 326.40422166 32.74703849 326.40422166 31.61160785 326.45965701 C26.68939274 326.59700056 26.68939274 326.59700056 24.22133923 324.97387218 C22.45568242 322.0745746 22.82577506 319.54835592 23.17802429 316.26069641 C24.23521137 314.56686687 24.23521137 314.56686687 26.17802429 313.26069641 C28.74438234 312.96052722 31.07031482 312.84465401 33.63803101 312.86196899 C34.40421857 312.85532217 35.17040614 312.84867534 35.95981151 312.84182709 C38.53488025 312.82312994 41.10948708 312.82580684 43.68461609 312.82832336 C45.52740641 312.81931029 47.37019072 312.8089842 49.21296692 312.79743958 C54.22297576 312.76979003 59.23287111 312.76057428 64.24294639 312.7545855 C69.47605651 312.74522249 74.70908116 312.71902085 79.94213867 312.69458008 C89.85495112 312.65085422 99.76774704 312.62234467 109.68062669 312.59925669 C120.9646902 312.5722376 132.24866799 312.52832411 143.53267038 312.48296797 C166.74774191 312.39003454 189.96284034 312.31839367 213.17802429 312.26069641 C212.96690002 311.43613953 212.75577576 310.61158264 212.53825378 309.76203918 C212.26404602 308.68071716 211.98983826 307.59939514 211.70732117 306.48530579 C211.4343219 305.4132489 211.16132263 304.34119202 210.88005066 303.23664856 C208.65827498 293.81834403 209.89910706 286.36006677 214.27958679 277.81929016 C215.4530246 275.35846715 215.4530246 275.35846715 214.44267273 273.33247375 C212.12878781 269.54181209 208.91536289 266.58706062 205.80302429 263.44819641 C204.79368835 262.38955383 204.79368835 262.38955383 203.76396179 261.30952454 C202.78169617 260.31662415 202.78169617 260.31662415 201.77958679 259.30366516 C201.18484558 258.69546936 200.59010437 258.08727356 199.9773407 257.46064758 C198.25048585 256.0355039 198.25048585 256.0355039 196.12211609 256.45674133 C193.20357793 257.66366663 190.8977261 259.5064523 188.36552429 261.38569641 C171.63111062 273.35970551 151.55227384 279.69624698 130.99052429 279.57319641 C129.98948669 279.56755676 128.9884491 279.56191711 127.95707703 279.55610657 C103.09869022 279.1534609 80.61373229 269.86712486 62.17802429 253.26069641 C61.39814148 252.5633136 60.61825867 251.86593079 59.81474304 251.14741516 C41.79462115 234.12322401 30.72890342 208.87765416 29.99443054 184.20210266 C29.82568724 174.7346708 29.93407021 165.50733478 32.17802429 156.26069641 C32.42294617 155.1817511 32.66786804 154.10280579 32.92021179 152.99116516 C39.25995728 127.99685882 55.37751605 106.02083532 77.28739929 92.47944641 C100.67758059 78.76225212 128.56461342 74.06430978 155.03739929 80.6698761 C181.31787093 87.92338219 203.85840808 103.37395254 217.54130554 127.32319641 C221.98771504 135.35045493 225.91255168 143.32466556 228.17802429 152.26069641 C228.47450867 153.42214172 228.77099304 154.58358704 229.07646179 155.78022766 C235.2334654 183.6562027 229.35344924 209.88050584 215.17021179 234.24507141 C213.6472028 236.55048894 212.20618656 238.38000055 210.37333679 240.40132141 C207.93836543 242.91792123 207.93836543 242.91792123 208.31596375 245.19624329 C209.39253683 247.77440868 210.77762977 249.20046869 212.77568054 251.15132141 C213.85365906 252.21479797 213.85365906 252.21479797 214.95341492 253.29975891 C215.70816101 254.02936829 216.4629071 254.75897766 217.24052429 255.51069641 C217.99913757 256.25577454 218.75775085 257.00085266 219.53935242 257.76850891 C221.41234636 259.60616335 223.2919804 261.43645365 225.17802429 263.26069641 C229.26071197 261.92858788 229.26071197 261.92858788 233.27568054 260.40913391 C241.98324318 256.98150488 250.77950595 256.97608064 259.49052429 260.38569641 C270.06497942 265.00164972 277.68450664 273.54243456 285.61552429 281.63569641 C287.26144356 283.30924386 288.90883605 284.9812764 290.55914307 286.65049744 C291.57912036 287.68273535 292.59641264 288.71763463 293.61074829 289.75541687 C294.78111596 290.94259834 295.97700357 292.10453486 297.17802429 293.26069641 C297.50802429 293.26069641 297.83802429 293.26069641 298.17802429 293.26069641 C298.29251462 260.41885715 298.38059593 227.57706973 298.43335094 194.73507637 C298.43960433 190.85616489 298.44607596 186.97725379 298.4526825 183.0983429 C298.45399405 182.32613446 298.4553056 181.55392603 298.4566569 180.75831734 C298.47840256 168.26130735 298.51781942 155.76441258 298.56378827 143.2674709 C298.61057635 130.44066388 298.63832465 117.61391711 298.64846677 104.78702825 C298.65532108 96.87461866 298.67695508 88.96253475 298.71760663 81.05022543 C298.74720688 74.97896388 298.75029252 68.9079814 298.7435627 62.8366394 C298.74493761 60.34899835 298.75487489 57.8613449 298.77405167 55.37377739 C298.79897432 51.97394315 298.79293083 48.57549583 298.77929688 45.17562866 C298.79386108 44.19408863 298.80842529 43.21254859 298.82343084 42.20126492 C298.73878442 34.37777181 296.26740266 28.8988865 291.22099304 22.95600891 C290.30253601 22.17870422 290.30253601 22.17870422 289.36552429 21.38569641 C288.76095398 20.85202454 288.15638367 20.31835266 287.53349304 19.76850891 C280.32478858 15.15398168 273.68282524 14.82557233 265.34968567 14.86628723 C264.17384285 14.86019613 262.99800003 14.85410502 261.78652561 14.84782934 C258.5401503 14.8341059 255.29409817 14.83373437 252.04770875 14.83920431 C248.5397562 14.84188253 245.0318675 14.82732795 241.52394104 14.81510925 C234.65822738 14.79408671 227.79259822 14.78951256 220.92685618 14.79129714 C215.34455157 14.79260631 209.76227326 14.78879271 204.1799736 14.78137207 C202.5701586 14.77927281 200.9603436 14.77717521 199.3505286 14.77507925 C198.54920481 14.77403572 197.74788102 14.77299219 196.92227469 14.77191705 C181.77770825 14.75302765 166.63319027 14.75406094 151.48861693 14.76088637 C137.6445054 14.76646148 123.80057895 14.74563552 109.95651068 14.7125259 C95.72933706 14.67876504 81.50225205 14.66362351 67.27503765 14.66824293 C59.29236616 14.67048512 51.30986574 14.66528108 43.32722855 14.64035034 C36.53141194 14.61930626 29.73586022 14.61577591 22.94003262 14.63464993 C19.47535486 14.64378866 16.01117057 14.64500906 12.54653168 14.62429428 C8.78401522 14.60611035 5.02280734 14.61884752 1.2603302 14.63923645 C0.17432246 14.6267186 -0.91168527 14.61420075 -2.03060234 14.60130358 C-11.50400141 14.71114178 -19.73794995 17.58487324 -25.58719599 25.35822994 Z " fill="#0F77F0" transform="translate(111.82197570800781,12.739303588867188)"/>
<path d="M0 0 C1.06734375 0.35191406 2.1346875 0.70382813 3.234375 1.06640625 C16.72298089 5.86341046 26.99187905 13.00575993 37 23 C38.22396484 24.2065625 38.22396484 24.2065625 39.47265625 25.4375 C55.99756873 42.67102794 61.58224456 64.6649813 61.48730469 87.99462891 C60.97519162 107.52588104 53.27275002 126.60728723 40 141 C39.18917969 141.90234375 38.37835938 142.8046875 37.54296875 143.734375 C21.38105155 160.86648049 0.12689233 169.73056363 -23.33935547 170.45361328 C-45.84726665 170.75973376 -64.76670886 164.81039278 -82 150 C-82.66128906 149.48179687 -83.32257813 148.96359375 -84.00390625 148.4296875 C-98.9060247 136.35634692 -109.23781431 115.82868568 -112 97 C-112.98424107 81.31568253 -113.49132445 65.56625476 -107 51 C-106.68885254 50.29488281 -106.37770508 49.58976562 -106.05712891 48.86328125 C-95.96933314 26.73963405 -78.79589991 10.16906685 -56.06835938 1.24121094 C-39.0658991 -4.83368302 -17.19465225 -5.97970448 0 0 Z " fill="#C7DDF6" transform="translate(268,108)"/>
<path d="M0 0 C7.94116663 4.55837359 14.30384094 12.38137063 17.1484375 21.1640625 C19.18911494 31.98694107 17.66796436 41.13844032 11.76171875 50.3203125 C10.0845513 52.74931363 8.36800107 55.13165062 6.5859375 57.484375 C7.47345703 57.90396484 7.47345703 57.90396484 8.37890625 58.33203125 C17.25328128 62.9655545 22.93538181 71.71235978 26.5234375 80.859375 C28.13611793 86.46825724 28.75062538 92.76054708 27.5859375 98.484375 C25.07740851 100.97637332 23.50637964 102.30477653 20.0234375 102.984375 C16.7294926 102.30869399 15.68880301 101.08381039 13.5859375 98.484375 C12.96875 95.6015625 12.96875 95.6015625 12.7109375 92.359375 C11.631915 83.99929635 8.38139443 77.80785081 2.2109375 72.046875 C-5.61332418 66.05562908 -13.7291463 65.50500145 -23.4140625 66.484375 C-30.82288394 68.33161466 -36.99726241 71.5947485 -41.07421875 78.15625 C-43.9866904 83.58184731 -46.06998253 88.34485614 -46.2109375 94.546875 C-46.46160513 96.93785855 -47.14228664 98.44953363 -48.4140625 100.484375 C-51.4140625 102.484375 -51.4140625 102.484375 -54.9140625 102.359375 C-58.4140625 101.484375 -58.4140625 101.484375 -60.3515625 99.984375 C-63.34202501 92.94799263 -61.04021643 85.6128368 -58.734375 78.6953125 C-55.14604889 69.96867326 -49.01341588 63.02524773 -41.4140625 57.484375 C-40.7540625 57.484375 -40.0940625 57.484375 -39.4140625 57.484375 C-39.95675781 56.783125 -40.49945313 56.081875 -41.05859375 55.359375 C-49.03663052 44.77949201 -51.7729005 36.87753379 -50.70703125 23.55712891 C-49.48947579 14.94292404 -44.29633813 8.44341145 -37.7265625 3.10546875 C-25.91178611 -5.17684916 -12.95738626 -5.87982234 0 0 Z " fill="#0F78F0" transform="translate(262.4140625,135.515625)"/>
<path d="M0 0 C0.90105469 -0.02578125 1.80210937 -0.0515625 2.73046875 -0.078125 C9.99472662 0.69525607 14.88453883 3.57340915 19.90551758 8.71191406 C20.45782043 9.25706161 21.01012329 9.80220917 21.5791626 10.36387634 C23.38437271 12.15230769 25.17094461 13.95811073 26.95703125 15.765625 C28.21556172 17.02332584 29.4749088 18.28021001 30.73503113 19.53631592 C33.36616078 22.16459502 35.98833983 24.80139713 38.60424805 27.44482422 C41.94911759 30.82379185 45.31367807 34.1823053 48.68497181 37.53488541 C51.28587496 40.12519482 53.87690172 42.7252046 56.46500206 45.32830048 C57.70171419 46.57017621 58.94123804 47.80925874 60.18366432 49.04541779 C61.92125133 50.7775234 63.64531084 52.52208204 65.36645508 54.27050781 C65.87609299 54.77361984 66.3857309 55.27673187 66.91081238 55.79508972 C71.38034915 60.38507567 74.22345596 65.52889371 74.3125 72.0625 C74.09682889 78.49342049 71.60848111 84.03923048 67.390625 88.8828125 C61.77236895 93.92716067 55.86448566 95.56255462 48.53515625 95.74609375 C41.75763337 94.5111649 36.55522377 90.58800168 31.8112793 85.75048828 C31.26873001 85.21334198 30.72618073 84.67619568 30.16719055 84.12277222 C28.39702915 82.36500098 26.64164176 80.59328726 24.88671875 78.8203125 C23.65046286 77.58421179 22.41353839 76.34877943 21.17597961 75.11398315 C18.59358235 72.53296542 16.01825547 69.94515659 13.44799805 67.35205078 C10.16028184 64.03590699 6.8571835 60.7356073 3.54887676 57.44001961 C0.99614342 54.89425353 -1.54914792 52.34115149 -4.09218407 49.78570175 C-5.3073126 48.5660721 -6.52451643 47.34850632 -7.74386024 46.13309097 C-9.44780374 44.43207107 -11.14168485 42.72161744 -12.83325195 41.00830078 C-13.33353912 40.51251526 -13.83382629 40.01672974 -14.34927368 39.50592041 C-19.27537607 34.47460902 -21.61645979 29.92921673 -21.625 22.875 C-21.45573216 17.14593466 -20.89999579 12.73838777 -17.1875 8.25 C-11.80315432 3.26413478 -7.48132379 0.12662325 0 0 Z " fill="#C8DDF6" transform="translate(357.1875,284.75)"/>
<path d="M0 0 C0.64988026 -0.00623996 1.29976052 -0.01247993 1.96933413 -0.01890898 C4.14524992 -0.03485395 6.32004774 -0.02223024 8.49597168 -0.00964355 C10.05656081 -0.01506406 11.61714481 -0.02218632 13.17771912 -0.03088379 C17.41534646 -0.0491288 21.65258453 -0.04204489 25.89021873 -0.02936745 C30.3233076 -0.01924582 34.75636296 -0.02863079 39.18945312 -0.03491211 C46.63429758 -0.04219097 54.07898335 -0.0325946 61.52380371 -0.0135498 C70.13310923 0.00821945 78.74203585 0.00116824 87.35133219 -0.02085543 C94.74083148 -0.03900267 102.13021667 -0.04157107 109.51973104 -0.03110075 C113.93416143 -0.02486208 118.34841368 -0.02404038 122.76283264 -0.0372467 C126.91292128 -0.04879483 131.06252106 -0.04079886 135.21255684 -0.01766968 C136.73635102 -0.01237697 138.26018628 -0.013906 139.78396416 -0.02272034 C141.86296198 -0.03363832 143.9403896 -0.01996097 146.01928711 0 C147.18292534 0.0015081 148.34656357 0.0030162 149.54546356 0.00457001 C153.14879876 0.61647322 154.33205354 1.62017576 156.50964355 4.50793457 C157.00964355 7.50793457 157.00964355 7.50793457 156.50964355 10.50793457 C154.33205354 13.39569338 153.14879876 14.39939593 149.54546356 15.01129913 C147.80000622 15.01356129 147.80000622 15.01356129 146.01928711 15.01586914 C145.04446672 15.02522908 145.04446672 15.02522908 144.04995298 15.03477812 C141.87403719 15.05072309 139.69923936 15.03809938 137.52331543 15.0255127 C135.9627263 15.0309332 134.4021423 15.03805546 132.84156799 15.04675293 C128.60394065 15.06499794 124.36670258 15.05791404 120.12906837 15.04523659 C115.69597951 15.03511496 111.26292415 15.04449993 106.82983398 15.05078125 C99.38498953 15.05806011 91.94030376 15.04846374 84.4954834 15.02941895 C75.88617788 15.00764969 67.27725126 15.0147009 58.66795492 15.03672457 C51.27845562 15.05487181 43.88907044 15.05744022 36.49955606 15.04696989 C32.08512568 15.04073122 27.67087343 15.03990952 23.25645447 15.05311584 C19.10636583 15.06466397 14.95676605 15.056668 10.80673027 15.03353882 C9.28293609 15.02824612 7.75910083 15.02977514 6.23532295 15.03858948 C4.15632513 15.04950746 2.07889751 15.03583011 0 15.01586914 C-1.16363823 15.01436104 -2.32727646 15.01285294 -3.52617645 15.01129913 C-7.12951165 14.39939593 -8.31276643 13.39569338 -10.49035645 10.50793457 C-10.99035645 7.50793457 -10.99035645 7.50793457 -10.49035645 4.50793457 C-7.37210578 0.37274119 -5.0605789 0.00655863 0 0 Z " fill="#0C76F0" transform="translate(172.4903564453125,418.4920654296875)"/>
<path d="M0 0 C1.7005806 -0.01292336 1.7005806 -0.01292336 3.43551636 -0.02610779 C7.18844339 -0.04883676 10.94062788 -0.04201548 14.69360352 -0.03295898 C17.29907962 -0.03819162 19.90455382 -0.04446676 22.51002502 -0.05174255 C27.97339239 -0.06359187 33.43654771 -0.05789488 38.89990234 -0.04296875 C45.21103573 -0.02604916 51.52147738 -0.04187905 57.83253521 -0.07419163 C63.90880266 -0.10412104 69.98475387 -0.10606947 76.06108284 -0.09669304 C78.64429689 -0.09587197 81.22752519 -0.10276494 83.81069756 -0.11746407 C87.4211881 -0.13485765 91.03019454 -0.12040777 94.640625 -0.09765625 C95.71040085 -0.10934845 96.7801767 -0.12104065 97.88237 -0.13308716 C105.12455934 -0.04010101 105.12455934 -0.04010101 109.04481506 2.91664124 C110.88500977 5.53344727 110.88500977 5.53344727 111.57250977 8.03344727 C110.73966066 11.06198948 109.3187154 12.53076391 106.88148689 14.46516037 C102.79297418 16.65286615 98.25760758 16.22426642 93.7265625 16.18041992 C92.61205719 16.18918152 91.49755188 16.19794312 90.34927368 16.20697021 C86.67198553 16.22894437 82.99590351 16.21441798 79.31860352 16.19750977 C76.76082631 16.20087819 74.20305066 16.20573102 71.64527893 16.21200562 C66.28792586 16.21937414 60.93100383 16.20914862 55.57373047 16.18530273 C49.3863621 16.15807946 43.19981726 16.1669186 37.01246876 16.19443476 C31.05047483 16.21988381 25.08873611 16.21715903 19.12669563 16.20252609 C16.59372912 16.19918946 14.06074159 16.2032881 11.52779961 16.21492386 C7.9893194 16.22761278 4.45242452 16.20828028 0.9140625 16.18041992 C-0.13386978 16.19054108 -1.18180206 16.20066223 -2.26148987 16.21109009 C-7.02873869 16.14149812 -9.35800609 16.09720382 -13.26914978 13.18441772 C-15.11499023 10.53344727 -15.11499023 10.53344727 -15.67749023 7.47094727 C-14.04988614 -1.02876299 -7.10825324 -0.04328009 0 0 Z " fill="#137AF0" transform="translate(198.114990234375,371.466552734375)"/>
<path d="M0 0 C5.46808105 1.85741166 9.35658549 5.62106657 12.15234375 10.625 C14.05048725 15.94330069 14.04771888 21.78075204 12.30078125 27.1484375 C9.67071699 32.23100894 5.58762328 35.53134895 0.6875 38.3125 C-5.67977906 39.94133883 -11.351004 39.64076477 -17.140625 36.41015625 C-21.34023319 33.22515928 -24.34223515 28.97329456 -26 24 C-26.53365648 18.03741509 -26.57181177 13.0228603 -23 8 C-15.49918318 0.60655683 -10.66441969 -1.07393454 0 0 Z " fill="#FBFDFE" transform="translate(252,147)"/>
</svg>
