<?xml version="1.0" encoding="UTF-8"?>
<svg version="1.1" xmlns="http://www.w3.org/2000/svg" width="512" height="512">
<path d="M0 0 C1.1965583 -0.00382555 2.3931166 -0.00765109 3.62593424 -0.01159257 C6.92088122 -0.02008067 10.21568433 -0.01970622 13.5106349 -0.01541197 C17.07446921 -0.01293377 20.63827789 -0.02197242 24.20210266 -0.02944946 C31.17381614 -0.04216809 38.14549106 -0.04399371 45.11721419 -0.0416492 C50.78669029 -0.03986274 56.45615472 -0.04162269 62.12562943 -0.04587364 C62.93399069 -0.04646883 63.74235196 -0.04706402 64.57520903 -0.04767724 C66.21764592 -0.04888906 67.8600828 -0.05010319 69.50251968 -0.05131962 C84.88893337 -0.06218418 100.27532511 -0.06003777 115.66174002 -0.05393478 C129.72095346 -0.04876628 143.7800976 -0.0600212 157.83929734 -0.07903299 C172.29479705 -0.09843 186.75026401 -0.10666415 201.20577681 -0.10290974 C209.31363368 -0.10100056 217.42143158 -0.10345762 225.5292778 -0.11762428 C232.43143502 -0.12956281 239.33349694 -0.13091533 246.23565553 -0.11883412 C249.75313644 -0.11296279 253.27044326 -0.11179725 256.78791237 -0.12383652 C260.61064004 -0.13432007 264.43290394 -0.12618963 268.25561523 -0.11352539 C269.90302407 -0.12458682 269.90302407 -0.12458682 271.58371389 -0.13587171 C287.87262069 -0.02282166 302.81346323 5.54899581 314.57510376 16.94429016 C328.05487215 31.26956373 332.22688792 46.06310431 332.15884399 65.51264954 C332.16456006 67.00545254 332.17152905 68.49825119 332.17964172 69.99104309 C332.19743721 74.00706608 332.19643252 78.02286903 332.19069934 82.03891945 C332.18759227 85.39932412 332.19371565 88.75968744 332.19973809 92.12008619 C332.21373246 100.04264292 332.21226034 107.96509165 332.20083618 115.88764954 C332.18931745 124.05631902 332.20350484 132.22466163 332.23023266 140.39328814 C332.25236789 147.42200799 332.25903322 154.45062503 332.25315624 161.47937727 C332.24978536 165.67125777 332.25221232 169.86292796 332.26940727 174.05477905 C332.28484327 177.9882774 332.28095876 181.921288 332.26210213 185.85476685 C332.2584091 187.29794724 332.26154553 188.74116357 332.27198792 190.18431091 C332.28514614 192.15281053 332.27127428 194.12143573 332.2559967 196.08992004 C332.25578742 197.19154732 332.25557814 198.29317459 332.25536251 199.42818451 C331.63820429 202.92041066 330.49317971 204.08280042 327.75479126 206.26069641 C324.66165294 207.46265364 321.63846002 207.38191994 318.34365845 207.3742218 C317.26283997 207.37414627 316.18202148 207.37407074 315.06845093 207.37399292 C313.90791199 207.36883163 312.74737305 207.36367035 311.55166626 207.35835266 C309.76227631 207.35623024 309.76227631 207.35623024 307.93673706 207.35406494 C304.12606297 207.34846679 300.3154476 207.3359146 296.50479126 207.32319641 C293.92145877 207.31818117 291.33812537 207.31361831 288.75479126 207.30952454 C282.42143789 207.29849796 276.08811877 207.28176165 269.75479126 207.26069641 C269.61686157 208.35325745 269.47893188 209.44581848 269.33682251 210.57148743 C267.93217917 219.47482869 261.9927294 226.98213403 255.14151001 232.57710266 C244.69953272 239.94288369 233.44424481 242.7879083 220.80557251 240.79585266 C209.90871802 238.43789055 200.65137399 233.13617012 193.75479126 224.26069641 C190.43869399 218.70496918 188.0270339 213.62190962 186.75479126 207.26069641 C172.23479126 207.26069641 157.71479126 207.26069641 142.75479126 207.26069641 C142.78959595 211.3173761 142.82440063 215.37405579 142.86026001 219.55366516 C142.87956231 222.79481987 142.89582736 226.03595828 142.91004181 229.27713776 C142.92586277 232.69503372 142.94699343 236.11270533 142.98110962 239.5304718 C143.02003617 243.45484175 143.03451856 247.37912112 143.04776001 251.30366516 C143.06324387 252.52466415 143.07872772 253.74566315 143.09468079 255.00366211 C143.09502068 256.71486992 143.09502068 256.71486992 143.09536743 258.46064758 C143.10536018 259.96289131 143.10536018 259.96289131 143.11555481 261.4954834 C142.68637862 264.78507181 141.77036362 266.63824105 139.75479126 269.26069641 C137.1070675 270.12952679 134.78001793 270.7141457 132.06729126 271.19819641 C123.38659265 273.07227281 117.8381248 275.79803224 112.81729126 283.38569641 C109.17554014 289.5334661 108.7497618 296.49958229 110.21572876 303.44429016 C112.35984954 309.91448993 116.32267456 315.17192255 122.31729126 318.51069641 C126.94841334 320.6467566 131.88935346 321.37210478 136.89932251 322.15913391 C139.75479126 323.26069641 139.75479126 323.26069641 141.4099884 325.94096375 C142.81685667 329.41390888 143.12932046 331.75426579 143.12710571 335.47798157 C143.1333345 336.68588348 143.13956329 337.8937854 143.14598083 339.13829041 C143.13216621 341.07446732 143.13216621 341.07446732 143.11807251 343.04975891 C143.11755325 344.39923604 143.1180735 345.74871393 143.11958313 347.09819031 C143.11949371 349.9174488 143.10912377 352.73641953 143.0909729 355.55561829 C143.06824285 359.16480322 143.06775266 362.77356989 143.07449055 366.38280678 C143.07783471 369.16581424 143.07119278 371.94872672 143.06136131 374.73171616 C143.05565657 376.70813462 143.05694318 378.68456927 143.05833435 380.66099548 C143.04880234 381.86259308 143.03927032 383.06419067 143.02944946 384.30220032 C143.02484207 385.35887909 143.02023468 386.41555786 143.01548767 387.5042572 C142.74921614 390.31964417 142.3165345 391.9219605 140.75479126 394.26069641 C137.25727484 396.59237402 135.87627209 396.5136437 131.74223328 396.52139282 C129.85625427 396.53202003 129.85625427 396.53202003 127.93217468 396.54286194 C126.53588831 396.54056793 125.13960229 396.53805821 123.74331665 396.53535461 C122.27467591 396.53970143 120.80603744 396.54488447 119.33740234 396.55084229 C115.34307454 396.56425632 111.34884123 396.56480761 107.35449529 396.56227899 C104.01518697 396.56120951 100.67589779 396.56609275 97.33659357 396.57088441 C89.44887867 396.58199085 81.56121137 396.58241257 73.67349243 396.57637024 C65.55691667 396.57034754 57.440515 396.58259532 49.32396895 396.60394031 C42.34457425 396.62161492 35.36523464 396.62754791 28.38581842 396.62430257 C24.22264439 396.62249668 20.05959415 396.62505474 15.89644051 396.63901711 C11.97214347 396.65168409 8.04811465 396.64956846 4.12382126 396.63660622 C2.69206968 396.63425891 1.26029873 396.63690798 -0.17143059 396.64522934 C-18.08175777 396.74172277 -33.97752682 392.27498772 -47.06552124 379.57319641 C-59.95365474 365.89976446 -64.73598239 350.37196057 -64.63288879 331.71960449 C-64.6409671 329.93128085 -64.6409671 329.93128085 -64.64920861 328.10682946 C-64.66093851 324.83772112 -64.6594654 321.56894555 -64.65204179 318.29983509 C-64.64727541 314.75846053 -64.65985042 311.21713849 -64.6700592 307.67578125 C-64.68718563 300.75325345 -64.6881 293.83081666 -64.6828463 286.90827318 C-64.67879152 281.27656033 -64.68026363 275.64487421 -64.68559456 270.01316261 C-64.68634298 269.20913807 -64.6870914 268.40511352 -64.6878625 267.57672459 C-64.68939411 265.94291223 -64.69093246 264.30909987 -64.69247747 262.67528752 C-64.70618047 247.38076915 -64.70078053 232.08630204 -64.68929226 216.79178486 C-64.67936417 202.82920569 -64.69229712 188.86675912 -64.71622645 174.9042004 C-64.74066624 160.53446013 -64.75021324 146.1647815 -64.74357373 131.79502088 C-64.74009207 123.74072082 -64.74224347 115.68652263 -64.75982475 107.63223839 C-64.77460804 100.77525594 -64.77510285 93.91844711 -64.75775384 87.06146785 C-64.74929111 83.56975219 -64.74697671 80.07834586 -64.7624054 76.58664703 C-64.84463113 53.07303841 -63.43975426 33.59640852 -46.17489624 15.99507141 C-33.34642398 3.60131814 -17.26833969 -0.05918258 0 0 Z " fill="#2E3192" transform="translate(86.24520874023438,24.739303588867188)"/>
<path d="M0 0 C1.22477051 -0.00630432 2.44954102 -0.01260864 3.71142578 -0.019104 C5.0261084 -0.01505554 6.34079102 -0.01100708 7.6953125 -0.00683594 C9.06624419 -0.00818439 10.43717541 -0.01012643 11.80810547 -0.01263428 C14.67615325 -0.01557706 17.54407615 -0.01131523 20.41210938 -0.00195312 C24.08061668 0.00944102 27.7488313 0.002877 31.41732788 -0.00909805 C34.24668567 -0.01633957 37.07597456 -0.01401823 39.90533447 -0.00884247 C41.91329133 -0.00686743 43.92125091 -0.01292068 45.92919922 -0.019104 C47.15396973 -0.01279968 48.37874023 -0.00649536 49.640625 0 C51.25348389 0.00238678 51.25348389 0.00238678 52.89892578 0.00482178 C56.92266559 0.35462082 59.81926974 1.10944367 62.5078125 4.19628906 C63.7646844 7.12899015 64.22258219 9.43999291 64.6953125 12.57128906 C65.85186608 19.61488994 68.62883092 23.9653781 73.5078125 29.07128906 C79.93064794 33.31278416 86.63716622 35.09550116 94.3046875 33.95019531 C101.90557274 31.86113213 107.64208593 27.54762615 111.71875 20.82910156 C113.37305686 16.96905223 113.80823584 13.08484083 114.3359375 8.94238281 C114.96605429 5.45133256 116.12654005 3.5564185 118.8203125 1.25878906 C122.16260937 0.10725264 125.37307863 0.12595495 128.88647461 0.11352539 C130.11132065 0.10714554 131.33616669 0.10076569 132.59812927 0.0941925 C134.57789513 0.09252327 134.57789513 0.09252327 136.59765625 0.09082031 C137.97001683 0.0876053 139.34237707 0.08424105 140.71473694 0.08073425 C143.58872268 0.07475311 146.4626784 0.07289334 149.33666992 0.07348633 C153.01303145 0.07358797 156.68919993 0.0599296 160.36551571 0.04271412 C163.1991514 0.03157784 166.03274062 0.02956761 168.86639595 0.03009605 C170.87879492 0.02834756 172.89117938 0.01751863 174.90354919 0.00654602 C176.74554649 0.01116096 176.74554649 0.01116096 178.62475586 0.01586914 C179.70301132 0.01444412 180.78126678 0.0130191 181.89219666 0.0115509 C185.86334202 0.34685822 188.64489647 1.02475547 191.43984985 3.95909214 C193.21061116 6.90898313 193.20022952 8.85655343 193.20799255 12.28875732 C193.21789719 13.52484238 193.22780182 14.76092743 193.23800659 16.0344696 C193.23376831 17.40188698 193.22921043 18.76930339 193.22436523 20.13671875 C193.23006898 21.57931548 193.23703326 23.0219077 193.24516296 24.4644928 C193.26312712 28.3846916 193.26191775 32.3046669 193.25622058 36.22489452 C193.25312777 39.50672201 193.2592235 42.78850662 193.26525933 46.070328 C193.27931892 53.82735777 193.27773655 61.58427751 193.26635742 69.34130859 C193.25492555 77.30962772 193.26886494 85.27760833 193.2957539 93.24588275 C193.31803024 100.10732714 193.32452012 106.96866624 193.31867748 113.83014417 C193.31532887 117.91857058 193.31757931 122.00678108 193.33492851 126.0951767 C193.35058245 129.95309609 193.34624187 133.81052337 193.32762337 137.66842461 C193.32398512 139.07108159 193.32690347 140.47377649 193.33750916 141.87639809 C193.4723354 161.21172916 188.48533529 177.52138743 174.75 191.52441406 C161.07539661 204.73562558 144.33980649 207.56438105 126.08666992 207.54931641 C124.62534241 207.5553122 123.16401805 207.56212014 121.70269775 207.56967163 C117.76297999 207.5872183 113.82334926 207.59202179 109.88359618 207.5933032 C107.41942627 207.59473024 104.95527814 207.59900995 102.49111366 207.60429764 C93.88769766 207.62275059 85.28434335 207.63097299 76.6809082 207.62939453 C68.66908995 207.62818994 60.65753969 207.64936631 52.64578933 207.68088186 C45.75383401 207.70702412 38.86196647 207.7177629 31.96996194 207.71648371 C27.85904592 207.71597407 23.74836914 207.72166014 19.63750267 207.74283981 C15.77709511 207.7621913 11.91715619 207.76236832 8.05673218 207.74780655 C6.64137907 207.74571445 5.22599681 207.75044331 3.81069374 207.76252747 C1.87749167 207.77796444 -0.05587007 207.76627986 -1.98908997 207.75326538 C-3.07027005 207.75435492 -4.15145014 207.75544445 -5.26539326 207.756567 C-8.9100529 207.13403852 -10.5753227 205.8404183 -13.1796875 203.25878906 C-14.18090921 200.25512393 -14.30080761 198.28139313 -14.29321289 195.14477539 C-14.29313736 194.10392288 -14.29306183 193.06307037 -14.29298401 191.99067688 C-14.28782272 190.86872421 -14.28266144 189.74677155 -14.27734375 188.59082031 C-14.2759288 187.44087082 -14.27451385 186.29092133 -14.27305603 185.10612488 C-14.26745179 181.42781998 -14.25489854 177.74957561 -14.2421875 174.07128906 C-14.23717305 171.57975348 -14.23261005 169.08821695 -14.22851562 166.59667969 C-14.21748097 160.48402877 -14.20073868 154.37141324 -14.1796875 148.25878906 C-15.27982178 148.11924805 -16.37995605 147.97970703 -17.51342773 147.8359375 C-25.67815217 146.55063361 -34.12786186 140.36954558 -38.9921875 133.81738281 C-46.72432213 122.23528948 -48.56417629 112.03013599 -47.1796875 98.25878906 C-44.86577919 87.23831049 -38.33339434 77.73729285 -29.1796875 71.25878906 C-24.65735489 68.6298427 -20.27446293 66.46883173 -15.1796875 65.25878906 C-15.17382126 64.5432637 -15.16795502 63.82773834 -15.16191101 63.0905304 C-15.10393286 56.3371648 -15.03182714 49.58411371 -14.94397259 42.83106709 C-14.89930377 39.3594884 -14.86004043 35.88802612 -14.83325195 32.41625977 C-14.80219295 28.42206346 -14.74740562 24.42849538 -14.69140625 20.43457031 C-14.68501633 19.19169754 -14.6786264 17.94882477 -14.67204285 16.66828918 C-14.65224869 15.50746323 -14.63245453 14.34663727 -14.61206055 13.15063477 C-14.60095749 12.13137405 -14.58985443 11.11211334 -14.57841492 10.06196594 C-14.10389738 6.72596109 -13.26909642 4.89970495 -11.1796875 2.25878906 C-7.47302559 0.1707933 -4.20352219 0.00622056 0 0 Z " fill="#4488C8" transform="translate(297.1796875,279.7412109375)"/>
<path d="M0 0 C6.82424408 4.27805553 11.45792973 10.66168556 13.32421875 18.45703125 C13.82758239 21.08613829 14.30572254 23.7075672 14.69921875 26.35546875 C15.19146847 28.83032459 15.19146847 28.83032459 18.32421875 30.45703125 C20.84928578 30.78524757 20.84928578 30.78524757 23.71362305 30.77587891 C25.36499519 30.80568344 25.36499519 30.80568344 27.04972839 30.83609009 C28.2373024 30.8476413 29.4248764 30.8591925 30.6484375 30.87109375 C32.47324394 30.90014297 32.47324394 30.90014297 34.33491516 30.92977905 C38.22711132 30.98964146 42.11933694 31.03598743 46.01171875 31.08203125 C48.64779948 31.12020484 51.28386766 31.1592562 53.91992188 31.19921875 C60.38795615 31.29700321 66.85585387 31.37652098 73.32421875 31.45703125 C73.32421875 47.62703125 73.32421875 63.79703125 73.32421875 80.45703125 C69.36421875 82.10703125 65.40421875 83.75703125 61.32421875 85.45703125 C51.50669051 91.85976706 44.16897151 99.82627217 41.32421875 111.45703125 C39.82044973 123.80205203 40.84172986 135.29303768 48.07421875 145.70703125 C55.05490211 154.21963514 62.90860147 158.98515882 73.32421875 162.45703125 C73.32421875 176.64703125 73.32421875 190.83703125 73.32421875 205.45703125 C55.63433825 205.52485254 37.94456938 205.58007363 20.2545948 205.61246777 C12.0401251 205.62791128 3.82574214 205.64895248 -4.38867188 205.68334961 C-11.55157568 205.71332924 -18.71441664 205.73262452 -25.87738144 205.73929673 C-29.66721324 205.74319455 -33.45686528 205.75230194 -37.24663925 205.77422142 C-40.82039474 205.79472223 -44.39389797 205.8008379 -47.96770668 205.79635429 C-49.89096434 205.79756136 -51.8141951 205.8136319 -53.73738098 205.83029175 C-67.35764094 205.78213869 -78.73779128 201.7811671 -88.828125 192.453125 C-98.83133293 181.64627669 -101.29700283 167.73187057 -101.12988281 153.49682617 C-101.12875098 152.15502456 -101.12939473 150.81322048 -101.13165283 149.47142029 C-101.13278784 145.87290709 -101.10947892 142.27494094 -101.081357 138.67655349 C-101.05613767 134.89965796 -101.05398534 131.12274616 -101.04925537 127.34577942 C-101.03688529 120.21331724 -101.00414576 113.08110398 -100.96385741 105.94875079 C-100.91895238 97.82046517 -100.89710586 89.69216686 -100.87707567 81.56378782 C-100.83540681 64.86139055 -100.76517268 48.1592428 -100.67578125 31.45703125 C-99.98309143 31.45338562 -99.29040161 31.44973999 -98.57672119 31.44598389 C-91.37404704 31.40420829 -84.17201305 31.33489693 -76.96972656 31.24951172 C-74.28090935 31.21904929 -71.59228027 31.19838559 -68.90332031 31.18603516 C-65.04057928 31.16465467 -61.17884677 31.11802618 -57.31640625 31.06640625 C-56.11211975 31.06517761 -54.90783325 31.06394897 -53.66705322 31.06268311 C-51.98576324 31.03310516 -51.98576324 31.03310516 -50.27050781 31.00292969 C-49.28455627 30.99404724 -48.29860474 30.98516479 -47.28277588 30.97601318 C-43.9563535 30.31381269 -42.76495008 29.07649337 -40.67578125 26.45703125 C-39.9167105 23.93077198 -39.9167105 23.93077198 -39.67578125 21.20703125 C-38.33680532 12.67389654 -35.5178811 7.38529223 -28.734375 1.93359375 C-20.12631653 -4.24068728 -9.52349446 -4.34001438 0 0 Z " fill="#C7E2F5" transform="translate(138.67578125,199.54296875)"/>
<path d="M0 0 C1.15119827 -0.00137466 2.30239655 -0.00274933 3.48847961 -0.00416565 C4.74220367 -0.00057037 5.99592773 0.0030249 7.28764343 0.00672913 C8.62826536 0.00701136 9.96888744 0.00685255 11.30950928 0.00628662 C14.94134237 0.00600006 18.57314234 0.01187397 22.20496774 0.01886058 C26.0032918 0.02511762 29.80161665 0.02569978 33.59994507 0.02688599 C40.78922723 0.02999237 47.97849415 0.03819642 55.16776961 0.04823548 C63.35394294 0.05941813 71.540117 0.06491249 79.72629607 0.06993091 C96.56275345 0.08037961 113.39919552 0.09796563 130.23564148 0.12025452 C130.2370665 0.76061142 130.23849152 1.40096832 130.23995972 2.06072998 C130.25965295 8.72838624 130.31391901 15.39512657 130.38822937 22.06239319 C130.41142004 24.55028206 130.42580755 27.03826926 130.43119812 29.52626038 C130.44047928 33.10378878 130.48145559 36.6797683 130.52861023 40.25697327 C130.52271126 41.92441841 130.52271126 41.92441841 130.51669312 43.62554932 C130.59924218 49.91799415 130.59924218 49.91799415 133.60502625 55.31703186 C136.5885077 57.36213571 138.40467402 57.78776094 141.98564148 58.05775452 C150.19223427 59.15667173 155.54734682 62.67286943 160.67314148 69.12025452 C165.29943541 75.89950517 166.23691975 82.38025333 164.84111023 90.38197327 C162.88845628 97.60049401 158.37724004 103.43995125 152.09892273 107.50306702 C147.11613553 109.91842167 142.09479883 110.80866963 136.61845398 111.43275452 C133.51178381 112.32910525 132.8742822 113.36380373 131.23564148 116.12025452 C130.76598462 118.86146384 130.76598462 118.86146384 130.80326843 121.89857483 C130.77357719 123.63992706 130.77357719 123.63992706 130.74328613 125.41645813 C130.73689621 126.66449219 130.73050629 127.91252625 130.72392273 129.19837952 C130.70597153 130.48009033 130.68802032 131.76180115 130.66952515 133.08235168 C130.6220758 136.48201908 130.5922342 139.88162034 130.56608582 143.2815094 C130.53625436 146.75393136 130.48989379 150.22613013 130.44462585 153.69837952 C130.35709167 160.50568905 130.29710663 167.31245968 130.23564148 174.12025452 C115.38564148 174.12025452 100.53564148 174.12025452 85.23564148 174.12025452 C83.25564148 169.50025452 81.27564148 164.88025452 79.23564148 160.12025452 C76.26258697 156.39346788 73.66291178 153.30488621 70.23564148 150.12025452 C69.40612976 149.33714905 69.40612976 149.33714905 68.55986023 148.53822327 C60.60353962 142.00337929 49.56141878 140.40546726 39.59111023 140.73744202 C27.70195185 142.09383028 17.71555297 148.49213931 10.02861023 157.46791077 C7.28363492 161.52856052 5.72276435 165.87661329 4.14579773 170.49525452 C3.23564148 173.12025452 3.23564148 173.12025452 2.23564148 174.12025452 C0.79274361 174.21321267 -0.65465637 174.23771965 -2.10054016 174.23377991 C-3.48185875 174.23366661 -3.48185875 174.23366661 -4.89108276 174.23355103 C-5.89211533 174.22838974 -6.89314789 174.22322845 -7.92451477 174.21791077 C-8.94411789 174.21649582 -9.96372101 174.21508087 -11.01422119 174.21362305 C-14.28512959 174.20800548 -17.55597065 174.19545002 -20.82685852 174.18275452 C-23.03844608 174.17774178 -25.2500347 174.17317848 -27.46162415 174.16908264 C-32.89589209 174.15803035 -38.3301205 174.14127515 -43.76435852 174.12025452 C-43.85806066 156.61261416 -43.9284639 139.10505276 -43.97160721 121.59721851 C-43.99217745 113.46687213 -44.02019121 105.33668213 -44.06611633 97.20643616 C-44.1061547 90.11491858 -44.13183152 83.02351433 -44.1407125 75.93188685 C-44.1458987 72.18157864 -44.15797036 68.43159447 -44.18727875 64.68139076 C-44.21471776 61.14122513 -44.22274711 57.60151257 -44.21678925 54.06125069 C-44.21838996 52.16359251 -44.23976213 50.26598206 -44.26203918 48.36845398 C-44.19706114 34.63470084 -40.32501303 21.78573612 -30.51045227 11.83509827 C-21.82061847 4.37272092 -11.48211661 -0.01060214 0 0 Z " fill="#4488C8" transform="translate(81.76435852050781,40.87974548339844)"/>
<path d="M0 0 C17.50768939 -0.0905132 35.01517713 -0.16410532 52.523036 -0.20724869 C60.65338238 -0.22781893 68.78357239 -0.25583269 76.91381836 -0.30175781 C84.00533594 -0.34179618 91.09674019 -0.367473 98.18836766 -0.37635398 C101.93867587 -0.38154018 105.68866005 -0.39361184 109.43886375 -0.42292023 C112.97902939 -0.45035924 116.51874194 -0.45838859 120.05900383 -0.45243073 C121.956662 -0.45403144 123.85427245 -0.4754036 125.75180054 -0.49768066 C138.81918546 -0.43585538 151.42451239 3.05135731 161.21875 12.03515625 C171.95574398 23.39313309 174.31404723 35.33328505 174.22705078 50.484375 C174.22648578 51.83529146 174.22680496 53.18620853 174.22793579 54.53712463 C174.22850684 58.18328342 174.21679298 61.82930915 174.20278788 65.47543716 C174.19023892 69.29375779 174.18910675 73.11208186 174.18673706 76.93041992 C174.18053449 84.15149847 174.16414031 91.37251607 174.14403808 98.59356785 C174.12164092 106.8184976 174.11067607 115.04343034 174.10064721 123.26838303 C174.07977293 140.1789572 174.04462086 157.08947215 174 174 C173.30731018 174.00364563 172.61462036 174.00729126 171.90093994 174.01104736 C164.69826579 174.05282296 157.4962318 174.12213432 150.29394531 174.20751953 C147.6051281 174.23798196 144.91649902 174.25864566 142.22753906 174.27099609 C138.36479803 174.29237658 134.50306552 174.33900507 130.640625 174.390625 C129.4363385 174.39185364 128.232052 174.39308228 126.99127197 174.39434814 C125.87041199 174.41406677 124.749552 174.4337854 123.59472656 174.45410156 C122.60877502 174.46298401 121.62282349 174.47186646 120.60699463 174.48101807 C117.2758889 175.14415088 116.08325919 176.36771137 114 179 C113.27460843 181.75900155 113.27460843 181.75900155 113.0625 184.75 C111.78532126 193.73391542 107.84785875 198.64973458 101.16015625 204.5546875 C94.76149313 208.83589067 87.41638202 208.83663064 80 208 C71.54043647 205.40773977 66.36831048 200.3982909 62.25 192.75 C60.88601975 188.65805926 60.24183736 184.7259259 59.72265625 180.453125 C58.79688333 177.31050124 57.78588407 176.66479559 55 175 C52.38100916 174.53124141 52.38100916 174.53124141 49.49707031 174.56762695 C48.39623108 174.54783279 47.29539185 174.52803864 46.16119385 174.50764465 C44.97878113 174.50125473 43.79636841 174.49486481 42.578125 174.48828125 C41.36300232 174.47033005 40.14787964 174.45237885 38.89593506 174.43388367 C35.01399203 174.37969142 31.13217259 174.3458553 27.25 174.3125 C24.61847235 174.27933492 21.98696103 174.24484603 19.35546875 174.20898438 C12.90362714 174.12146728 6.45235295 174.06147117 0 174 C0 157.83 0 141.66 0 125 C3.96 123.68 7.92 122.36 12 121 C22.61468254 115.41267004 28.81790417 106.65714608 32.40234375 95.38891602 C34.86320311 85.55251535 34.1845722 73.70795399 29.671875 64.64453125 C22.13286223 52.71950403 13.16995651 47.3899855 0 43 C0 28.81 0 14.62 0 0 Z " fill="#C7E2F5" transform="translate(228,41)"/>
<path d="M0 0 C1.22477051 -0.00630432 2.44954102 -0.01260864 3.71142578 -0.019104 C5.0261084 -0.01505554 6.34079102 -0.01100708 7.6953125 -0.00683594 C9.06624419 -0.00818439 10.43717541 -0.01012643 11.80810547 -0.01263428 C14.67615325 -0.01557706 17.54407615 -0.01131523 20.41210938 -0.00195312 C24.08061668 0.00944102 27.7488313 0.002877 31.41732788 -0.00909805 C34.24668567 -0.01633957 37.07597456 -0.01401823 39.90533447 -0.00884247 C41.91329133 -0.00686743 43.92125091 -0.01292068 45.92919922 -0.019104 C47.15396973 -0.01279968 48.37874023 -0.00649536 49.640625 0 C51.25348389 0.00238678 51.25348389 0.00238678 52.89892578 0.00482178 C56.92266559 0.35462082 59.81926974 1.10944367 62.5078125 4.19628906 C63.7646844 7.12899015 64.22258219 9.43999291 64.6953125 12.57128906 C65.85186608 19.61488994 68.62883092 23.9653781 73.5078125 29.07128906 C79.93064794 33.31278416 86.63716622 35.09550116 94.3046875 33.95019531 C101.90557274 31.86113213 107.64208593 27.54762615 111.71875 20.82910156 C113.37305686 16.96905223 113.80823584 13.08484083 114.3359375 8.94238281 C114.96605429 5.45133256 116.12654005 3.5564185 118.8203125 1.25878906 C122.16260937 0.10725264 125.37307863 0.12595495 128.88647461 0.11352539 C130.11132065 0.10714554 131.33616669 0.10076569 132.59812927 0.0941925 C134.57789513 0.09252327 134.57789513 0.09252327 136.59765625 0.09082031 C137.97001683 0.0876053 139.34237707 0.08424105 140.71473694 0.08073425 C143.58872268 0.07475311 146.4626784 0.07289334 149.33666992 0.07348633 C153.01303145 0.07358797 156.68919993 0.0599296 160.36551571 0.04271412 C163.1991514 0.03157784 166.03274062 0.02956761 168.86639595 0.03009605 C170.87879492 0.02834756 172.89117938 0.01751863 174.90354919 0.00654602 C176.74554649 0.01116096 176.74554649 0.01116096 178.62475586 0.01586914 C179.70301132 0.01444412 180.78126678 0.0130191 181.89219666 0.0115509 C185.86334202 0.34685822 188.64489647 1.02475547 191.43984985 3.95909214 C193.21061116 6.90898313 193.20022952 8.85655343 193.20799255 12.28875732 C193.21789719 13.52484238 193.22780182 14.76092743 193.23800659 16.0344696 C193.23376831 17.40188698 193.22921043 18.76930339 193.22436523 20.13671875 C193.23006898 21.57931548 193.23703326 23.0219077 193.24516296 24.4644928 C193.26312712 28.3846916 193.26191775 32.3046669 193.25622058 36.22489452 C193.25312777 39.50672201 193.2592235 42.78850662 193.26525933 46.070328 C193.27931892 53.82735777 193.27773655 61.58427751 193.26635742 69.34130859 C193.25492555 77.30962772 193.26886494 85.27760833 193.2957539 93.24588275 C193.31803024 100.10732714 193.32452012 106.96866624 193.31867748 113.83014417 C193.31532887 117.91857058 193.31757931 122.00678108 193.33492851 126.0951767 C193.35058245 129.95309609 193.34624187 133.81052337 193.32762337 137.66842461 C193.32398512 139.07108159 193.32690347 140.47377649 193.33750916 141.87639809 C193.4723354 161.21172916 188.48533529 177.52138743 174.75 191.52441406 C161.07539661 204.73562558 144.33980649 207.56438105 126.08666992 207.54931641 C124.62534241 207.5553122 123.16401805 207.56212014 121.70269775 207.56967163 C117.76297999 207.5872183 113.82334926 207.59202179 109.88359618 207.5933032 C107.41942627 207.59473024 104.95527814 207.59900995 102.49111366 207.60429764 C93.88769766 207.62275059 85.28434335 207.63097299 76.6809082 207.62939453 C68.66908995 207.62818994 60.65753969 207.64936631 52.64578933 207.68088186 C45.75383401 207.70702412 38.86196647 207.7177629 31.96996194 207.71648371 C27.85904592 207.71597407 23.74836914 207.72166014 19.63750267 207.74283981 C15.77709511 207.7621913 11.91715619 207.76236832 8.05673218 207.74780655 C6.64137907 207.74571445 5.22599681 207.75044331 3.81069374 207.76252747 C1.87749167 207.77796444 -0.05587007 207.76627986 -1.98908997 207.75326538 C-3.07027005 207.75435492 -4.15145014 207.75544445 -5.26539326 207.756567 C-8.9100529 207.13403852 -10.5753227 205.8404183 -13.1796875 203.25878906 C-14.18090921 200.25512393 -14.30080761 198.28139313 -14.29321289 195.14477539 C-14.29313736 194.10392288 -14.29306183 193.06307037 -14.29298401 191.99067688 C-14.28782272 190.86872421 -14.28266144 189.74677155 -14.27734375 188.59082031 C-14.2759288 187.44087082 -14.27451385 186.29092133 -14.27305603 185.10612488 C-14.26745179 181.42781998 -14.25489854 177.74957561 -14.2421875 174.07128906 C-14.23717305 171.57975348 -14.23261005 169.08821695 -14.22851562 166.59667969 C-14.21748097 160.48402877 -14.20073868 154.37141324 -14.1796875 148.25878906 C-15.27982178 148.11924805 -16.37995605 147.97970703 -17.51342773 147.8359375 C-25.67815217 146.55063361 -34.12786186 140.36954558 -38.9921875 133.81738281 C-46.72432213 122.23528948 -48.56417629 112.03013599 -47.1796875 98.25878906 C-44.86577919 87.23831049 -38.33339434 77.73729285 -29.1796875 71.25878906 C-24.65735489 68.6298427 -20.27446293 66.46883173 -15.1796875 65.25878906 C-15.17382126 64.5432637 -15.16795502 63.82773834 -15.16191101 63.0905304 C-15.10393286 56.3371648 -15.03182714 49.58411371 -14.94397259 42.83106709 C-14.89930377 39.3594884 -14.86004043 35.88802612 -14.83325195 32.41625977 C-14.80219295 28.42206346 -14.74740562 24.42849538 -14.69140625 20.43457031 C-14.68501633 19.19169754 -14.6786264 17.94882477 -14.67204285 16.66828918 C-14.65224869 15.50746323 -14.63245453 14.34663727 -14.61206055 13.15063477 C-14.60095749 12.13137405 -14.58985443 11.11211334 -14.57841492 10.06196594 C-14.10389738 6.72596109 -13.26909642 4.89970495 -11.1796875 2.25878906 C-7.47302559 0.1707933 -4.20352219 0.00622056 0 0 Z M2.8203125 17.25878906 C2.80613281 21.38765625 2.79195313 25.51652344 2.77734375 29.77050781 C2.75208756 33.06908199 2.72185863 36.36752745 2.68827057 39.66602325 C2.6542112 43.14454358 2.62885387 46.62262273 2.62475586 50.10131836 C2.61964656 54.09574373 2.57451784 58.08885612 2.52734375 62.08300781 C2.53324272 63.94731697 2.53324272 63.94731697 2.53926086 65.84928894 C2.37674437 75.45334324 2.37674437 75.45334324 -0.546875 78.53759766 C-3.53903122 80.49370869 -5.44783118 80.93150753 -8.9921875 81.19628906 C-16.61098952 82.19777778 -20.93841963 85.61920204 -25.9921875 91.19628906 C-31.11657281 98.3704285 -32.34328835 104.4870288 -31.1796875 113.25878906 C-28.47582888 122.07136529 -22.80002206 127.77749828 -14.8046875 132.07128906 C-11.02045103 133.31095273 -7.34634408 134.04761044 -3.4140625 134.63378906 C-0.74308755 135.38091492 0.12644979 136.07787306 1.8203125 138.25878906 C2.21903992 140.63163757 2.21903992 140.63163757 2.25268555 143.46459961 C2.28237679 145.0559095 2.28237679 145.0559095 2.31266785 146.67936707 C2.32225273 148.39510674 2.32225273 148.39510674 2.33203125 150.14550781 C2.34998245 151.31765335 2.36793365 152.48979889 2.38642883 153.69746399 C2.44067904 157.44703558 2.47447552 161.1964788 2.5078125 164.94628906 C2.54097249 167.48602052 2.5754609 170.02573502 2.61132812 172.56542969 C2.69641404 178.79643438 2.76470159 185.0274554 2.8203125 191.25878906 C20.32795286 191.3524912 37.83551425 191.42289444 55.3433485 191.46603775 C63.47369488 191.486608 71.60388489 191.51462175 79.73413086 191.56054688 C86.82564844 191.60058525 93.91705269 191.62626206 101.00868016 191.63514304 C104.75898837 191.64032925 108.50897255 191.65240091 112.25917625 191.68170929 C115.79934189 191.7091483 119.33905444 191.71717765 122.87931633 191.71121979 C124.7769745 191.7128205 126.67458495 191.73419267 128.57211304 191.75646973 C141.29365271 191.69628073 152.85756139 188.39038031 162.8203125 180.25878906 C174.90654386 167.96908579 177.14579169 154.48238268 177.04736328 137.82275391 C177.04765533 136.51431519 177.04794739 135.20587646 177.04824829 133.85778809 C177.04881778 130.30058619 177.0371296 126.74352154 177.02310038 123.1863513 C177.01052502 119.45746288 177.00941719 115.72857067 177.00704956 111.99966431 C177.00085466 104.95218978 176.98447103 97.90477795 176.96435058 90.85733092 C176.94192932 82.82824007 176.93098255 74.79914609 176.92095971 66.77003169 C176.90010284 50.26624176 176.86345175 33.76253808 176.8203125 17.25878906 C161.3103125 17.25878906 145.8003125 17.25878906 129.8203125 17.25878906 C128.5003125 21.21878906 127.1803125 25.17878906 125.8203125 29.25878906 C119.44811391 39.25155504 111.35113509 45.66195369 100.1953125 49.50878906 C88.04900452 52.13372792 77.19696764 50.09427728 66.5703125 43.94628906 C56.53125909 37.14431818 52.25440773 28.34402714 47.8203125 17.25878906 C32.9703125 17.25878906 18.1203125 17.25878906 2.8203125 17.25878906 Z " fill="#2E3192" transform="translate(297.1796875,279.7412109375)"/>
</svg>
