<?xml version="1.0" encoding="UTF-8"?>
<svg version="1.1" xmlns="http://www.w3.org/2000/svg" width="512" height="512">
<path d="M0 0 C0.84867708 -0.10003511 1.69735416 -0.20007023 2.57174873 -0.30313671 C211.66956352 -24.53432139 211.66956352 -24.53432139 287.02371216 34.93074036 C293.25412704 40.0280469 299.17089746 45.43616098 304.99636841 50.98835754 C306.08197178 52.01592572 306.08197178 52.01592572 307.18950653 53.06425285 C361.33365548 104.76126122 367.55944733 169.64707225 369.25714111 240.45306396 C370.57206351 301.96992384 367.58740734 363.66472763 362.83176556 424.98779236 C362.72316983 426.38855862 362.61531513 427.78938255 362.50823268 429.19026531 C362.1633125 433.69833443 361.79672788 438.20419327 361.41748047 442.70953369 C361.33137795 443.80539799 361.24527544 444.90126229 361.15656376 446.03033459 C359.88003494 460.44967311 356.58863774 472.36254458 345.80886841 482.55085754 C334.53783436 491.88916759 322.83021835 493.48067523 308.61625671 493.42982483 C307.25855513 493.43213242 305.90085479 493.43531095 304.54315704 493.43927932 C300.8316452 493.44759504 297.12023678 493.44351676 293.40872467 493.43730688 C289.39842218 493.43277011 285.38813712 493.43977225 281.37783813 493.44526672 C273.52900794 493.45414955 265.68021605 493.45224359 257.83138437 493.44644144 C251.45057912 493.44192027 245.06978459 493.44131402 238.6889782 493.44348907 C237.77999099 493.44379554 236.87100378 493.44410201 235.9344715 493.44441776 C234.08772961 493.44505723 232.24098773 493.44570565 230.39424586 493.44636294 C213.08601706 493.45206307 195.77780947 493.44551349 178.46958416 493.43476221 C163.62815983 493.4258285 148.78676679 493.42737788 133.94534302 493.43659973 C116.69957764 493.44731057 99.45383083 493.45151219 82.20806259 493.4453752 C80.36789986 493.44473812 78.52773712 493.44410938 76.68757439 493.44348907 C75.78224412 493.44318052 74.87691385 493.44287197 73.94414933 493.44255407 C67.57377509 493.44082946 61.20341265 493.44373722 54.83304024 493.44844818 C47.06564585 493.45406612 39.29829187 493.45252144 31.5309021 493.44188669 C27.57018193 493.43664204 23.60952905 493.43455261 19.64880943 493.441185 C16.01868534 493.4471717 12.38869052 493.44382475 8.75857805 493.43322989 C6.83277766 493.42995952 4.90696819 493.4364425 2.98117739 493.44334435 C-11.93183774 493.37631667 -25.6065661 490.41231251 -36.67941284 479.78523254 C-43.20295711 472.04504147 -46.0441872 463.77804166 -45.99215698 453.83699036 C-45.99230301 453.10488846 -45.99244904 452.37278656 -45.99259949 451.61849976 C-45.99190435 449.20529692 -45.98413067 446.79217185 -45.97628784 444.37898254 C-45.97442224 442.70318138 -45.97299901 441.02737967 -45.97200012 439.35157776 C-45.96818612 434.94571928 -45.95836535 430.53989389 -45.94729614 426.13404846 C-45.93705802 421.63627062 -45.93249736 417.13848743 -45.92745972 412.64070129 C-45.91674209 403.81907219 -45.89967906 394.99746762 -45.87863159 386.17585754 C-52.1598193 386.14129956 -58.43916749 386.16132892 -64.72018433 386.21858215 C-66.85490982 386.23168856 -68.98974893 386.23248677 -71.1244812 386.22053528 C-74.20121221 386.20547787 -77.27481284 386.23527579 -80.35128784 386.27351379 C-81.29947891 386.25925858 -82.24766998 386.24500336 -83.22459412 386.23031616 C-88.35984955 386.34148454 -91.11211542 386.84954934 -94.75534058 390.61116028 C-95.25782822 391.23022751 -95.76031586 391.84929474 -96.2780304 392.48712158 C-99.95091731 396.36225065 -105.34653954 397.0145847 -110.44113159 397.55085754 C-116.73732359 396.86400023 -122.45312844 394.84057708 -126.87863159 390.17585754 C-131.10505428 383.8128731 -133.31216862 377.80559179 -131.87863159 370.17585754 C-129.69508656 363.11329084 -126.32828596 359.06793378 -120.06222534 355.23445129 C-114.26656386 352.42474778 -107.91289321 352.3087029 -101.81613159 354.23835754 C-98.60919351 355.56356941 -96.97821954 357.07982501 -94.79049683 359.74055481 C-91.11670441 363.50203741 -88.34278883 364.01139335 -83.18710327 364.12129211 C-82.25128418 364.10707214 -81.31546509 364.09285217 -80.35128784 364.07820129 C-79.03493347 364.09711426 -79.03493347 364.09711426 -77.69198608 364.1164093 C-74.44190781 364.1530659 -71.19137529 364.12974109 -67.94113159 364.11335754 C-60.66050659 364.13398254 -53.37988159 364.15460754 -45.87863159 364.17585754 C-45.87863159 346.68585754 -45.87863159 329.19585754 -45.87863159 311.17585754 C-50.00749878 311.22226379 -54.13636597 311.26867004 -58.39035034 311.31648254 C-61.68885057 311.34221832 -64.9873223 311.36390518 -68.28586578 311.38285828 C-71.76450344 311.4039548 -75.24274935 311.43213119 -78.72116089 311.47761536 C-82.71509528 311.52951194 -86.70861675 311.54882528 -90.70285034 311.56648254 C-92.5671595 311.59745026 -92.5671595 311.59745026 -94.46913147 311.62904358 C-95.62995743 311.6293457 -96.79078339 311.62964783 -97.98678589 311.62995911 C-99.0060466 311.63884155 -100.02530731 311.647724 -101.07545471 311.65687561 C-104.63004993 311.04691606 -106.29805981 309.64159807 -108.87863159 307.17585754 C-110.00100441 304.93111192 -110.0274088 303.66395355 -110.07150269 301.17268372 C-110.08756561 300.34810165 -110.10362854 299.52351959 -110.12017822 298.6739502 C-110.16465687 294.90107556 -110.20569422 291.12837645 -110.22872925 287.3553009 C-110.2452871 285.36592408 -110.27257488 283.3766067 -110.3107605 281.38752747 C-110.36555423 278.51848 -110.38740676 275.65082667 -110.40206909 272.78132629 C-110.42473846 271.8947081 -110.44740784 271.0080899 -110.47076416 270.09460449 C-110.45553175 265.63697161 -110.33866141 263.77175085 -107.53341675 260.13801575 C-101.21792787 255.47022247 -98.20719728 257.17585754 -88.87863159 257.17585754 C-88.87863159 243.31585754 -88.87863159 229.45585754 -88.87863159 215.17585754 C-93.82863159 215.17585754 -98.77863159 215.17585754 -103.87863159 215.17585754 C-108.87863159 211.17585754 -108.87863159 211.17585754 -109.87863159 209.17585754 C-109.99235486 207.84476763 -110.04786112 206.50841363 -110.07150269 205.17268372 C-110.08756561 204.34810165 -110.10362854 203.52351959 -110.12017822 202.6739502 C-110.16465687 198.90107556 -110.20569422 195.12837645 -110.22872925 191.3553009 C-110.2452871 189.36592408 -110.27257488 187.3766067 -110.3107605 185.38752747 C-110.36555423 182.51848 -110.38740676 179.65082667 -110.40206909 176.78132629 C-110.42473846 175.8947081 -110.44740784 175.0080899 -110.47076416 174.09460449 C-110.45553175 169.63697161 -110.33866141 167.77175085 -107.53341675 164.13801575 C-103.7177122 161.31781918 -101.01429759 161.05195717 -96.39743042 161.06233215 C-95.2764949 161.06240768 -94.15555939 161.06248322 -93.00065613 161.06256104 C-91.79120834 161.06772232 -90.58176056 161.07288361 -89.33566284 161.07820129 C-87.47756233 161.08032372 -87.47756233 161.08032372 -85.58192444 161.08248901 C-82.29231622 161.08714152 -79.00275699 161.09612364 -75.71316528 161.10719299 C-72.35491536 161.11743125 -68.99665826 161.12199181 -65.63839722 161.12702942 C-59.05178947 161.13806609 -52.46521454 161.15480988 -45.87863159 161.17585754 C-45.88231876 160.536627 -45.88600594 159.89739645 -45.88980484 159.23879528 C-45.97834992 143.64613447 -46.04443515 128.05356177 -46.08588028 112.46071148 C-46.10645835 104.9199486 -46.13448721 97.3793541 -46.1803894 89.83869934 C-46.22040368 83.26212612 -46.24609893 76.68567492 -46.25498557 70.10898334 C-46.26017583 66.63035993 -46.27227367 63.15208543 -46.30155182 59.67357445 C-46.33405971 55.77933351 -46.3345817 51.88542612 -46.33273315 47.99104309 C-46.34711426 46.85239807 -46.36149536 45.71375305 -46.37631226 44.54060364 C-46.31623794 32.79260836 -42.58604143 23.06668858 -34.87863159 14.17585754 C-24.6055954 4.5310286 -13.64729793 1.56982574 0 0 Z " fill="#49AAED" transform="translate(141.87863159179688,8.824142456054688)"/>
<path d="M0 0 C0.96757736 -0.00154587 1.93515472 -0.00309174 2.93205261 -0.00468445 C6.25812711 -0.00721832 9.58409229 -0.00072244 12.91015625 0.0078125 C14.06940613 0.01036041 15.22865601 0.01290833 16.42303467 0.01553345 C22.44962659 0.03060472 28.47614356 0.05240657 34.50268555 0.08053303 C42.77832692 0.11909914 51.05386807 0.14174162 59.32958984 0.15478516 C69.48882993 0.1715681 79.64780221 0.21011563 89.80689144 0.268116 C95.52730633 0.30028344 101.2474771 0.32398804 106.96798706 0.32781982 C112.44154499 0.33203713 117.91447969 0.36029003 123.38784218 0.40611839 C125.43329561 0.41912334 127.47882328 0.42355726 129.52431297 0.41900063 C132.35040101 0.41411414 135.17462951 0.44001744 138.00048828 0.47338867 C138.82612243 0.4647624 139.65175657 0.45613613 140.50240993 0.44724846 C144.58941913 0.52854 147.21169077 0.908913 150.47091675 3.48652649 C154.49428764 7.74236132 154.15794127 11.74832469 154.2109375 17.30859375 C154.21900925 18.11137253 154.22708099 18.91415131 154.23539734 19.74125671 C154.24922075 21.44003145 154.2599507 23.13883375 154.26782227 24.83764648 C154.2850246 27.42550758 154.32892317 30.01208709 154.37304688 32.59960938 C154.38317547 34.2525948 154.39169106 35.90559106 154.3984375 37.55859375 C154.41594559 38.32754471 154.43345367 39.09649567 154.45149231 39.88874817 C154.43068968 45.08399914 153.40870657 48.01584113 149.97265625 52.1328125 C146.97265625 54.1328125 146.97265625 54.1328125 131.97265625 54.1328125 C131.97265625 68.3228125 131.97265625 82.5128125 131.97265625 97.1328125 C136.92265625 97.1328125 141.87265625 97.1328125 146.97265625 97.1328125 C151.0390983 99.55956018 152.49168789 100.68990743 153.97265625 105.1328125 C154.10551553 107.86641512 154.18487071 110.57371293 154.2109375 113.30859375 C154.21900925 114.11137253 154.22708099 114.91415131 154.23539734 115.74125671 C154.24922075 117.44003145 154.2599507 119.13883375 154.26782227 120.83764648 C154.2850246 123.42550758 154.32892317 126.01208709 154.37304688 128.59960938 C154.38317547 130.2525948 154.39169106 131.90559106 154.3984375 133.55859375 C154.42469963 134.71202019 154.42469963 134.71202019 154.45149231 135.88874817 C154.43068968 141.08399914 153.40870657 144.01584113 149.97265625 148.1328125 C146.34836179 150.54900881 144.70127263 150.37580184 140.38989258 150.35986328 C139.7262117 150.36015533 139.06253082 150.36044739 138.3787384 150.36074829 C136.18725464 150.35935607 133.9961118 150.34380029 131.8046875 150.328125 C130.28440029 150.32439448 128.76411067 150.32154769 127.24382019 150.31954956 C123.24396111 150.31191616 119.24424746 150.29227024 115.2444458 150.2701416 C110.44452164 150.24607825 105.64454883 150.23690079 100.8445816 150.22523499 C93.5538387 150.2058456 86.26341484 150.16752122 78.97265625 150.1328125 C78.97265625 167.6228125 78.97265625 185.1128125 78.97265625 203.1328125 C86.85767319 203.27056433 94.73851767 203.39001179 102.6237793 203.46240234 C105.30617069 203.48918973 107.98770998 203.53093402 110.66967773 203.58544922 C114.52482441 203.65822822 118.37866677 203.69226432 122.234375 203.71875 C123.43350021 203.74971771 124.63262543 203.78068542 125.86808777 203.81259155 C131.63738276 204.01448507 131.63738276 204.01448507 136.76333618 201.84063721 C138.28414754 200.07010081 138.28414754 200.07010081 139.97265625 197.1328125 C145.21366119 193.06835969 149.44161224 192.49857422 156.0390625 192.75390625 C162.99278593 193.65205695 167.51665863 196.88444326 171.78515625 202.34765625 C175.43190461 207.82977468 175.79950571 213.8512059 174.578125 220.17578125 C172.52837971 227.0126736 167.54542229 230.97034884 161.59765625 234.5703125 C154.46032982 236.09973959 148.36720531 235.64354532 141.97265625 232.1328125 C139.59530831 230.40383218 137.52414885 228.80830756 135.66483688 226.53093147 C133.29658618 224.57422769 131.69592666 224.75958677 128.64776611 224.76290894 C126.9907518 224.75417 126.9907518 224.75417 125.30026245 224.74525452 C124.08774811 224.75439377 122.87523376 224.76353302 121.62597656 224.77294922 C120.34931122 224.77102066 119.07264587 224.7690921 117.7572937 224.7671051 C114.25283751 224.76307452 110.74874032 224.77884822 107.2443552 224.80003881 C105.05376014 224.81248308 102.86318824 224.82084925 100.67256927 224.82779312 C93.02635494 224.85234068 85.38042379 224.89352868 77.734375 224.94921875 C70.61396693 225.00061867 63.49413877 225.0147747 56.37356496 225.01166523 C50.25602657 225.01072688 44.13897541 225.03665501 38.02161479 225.08314908 C34.36983718 225.11041052 30.71881284 225.12677742 27.06693268 225.11581039 C22.9893584 225.10460273 18.91420293 225.1491978 14.83691406 225.19873047 C13.63249664 225.18762741 12.42807922 225.17652435 11.18716431 225.16508484 C5.55408849 225.27801476 1.99334003 225.41158613 -2.05010986 229.57009888 C-2.53151051 230.18887972 -3.01291115 230.80766056 -3.50889969 231.44519234 C-7.04537486 235.37568076 -12.56992068 235.97939955 -17.58984375 236.5078125 C-23.88603575 235.82095519 -29.6018406 233.79753204 -34.02734375 229.1328125 C-38.25376644 222.76982806 -40.46088078 216.76254675 -39.02734375 209.1328125 C-36.84379872 202.07024579 -33.47699811 198.02488874 -27.2109375 194.19140625 C-21.41527602 191.38170274 -15.06160537 191.26565785 -8.96484375 193.1953125 C-5.75790567 194.52052437 -4.1269317 196.03677997 -1.93920898 198.69750977 C1.73458343 202.45899237 4.50849901 202.9683483 9.66418457 203.07824707 C10.60000366 203.0640271 11.53582275 203.04980713 12.5 203.03515625 C13.81635437 203.05406921 13.81635437 203.05406921 15.15930176 203.07336426 C18.40938004 203.11002086 21.65991255 203.08669605 24.91015625 203.0703125 C32.19078125 203.0909375 39.47140625 203.1115625 46.97265625 203.1328125 C46.97265625 185.6428125 46.97265625 168.1528125 46.97265625 150.1328125 C42.84378906 150.17921875 38.71492188 150.225625 34.4609375 150.2734375 C31.16243728 150.29917327 27.86396554 150.32086014 24.56542206 150.33981323 C21.0867844 150.36090976 17.60853849 150.38908615 14.13012695 150.43457031 C10.13619256 150.48646689 6.1426711 150.50578023 2.1484375 150.5234375 C0.28412834 150.55440521 0.28412834 150.55440521 -1.61784363 150.58599854 C-2.77866959 150.58630066 -3.93949554 150.58660278 -5.13549805 150.58691406 C-6.15475876 150.59579651 -7.17401947 150.60467896 -8.22416687 150.61383057 C-11.77876209 150.00387101 -13.44677197 148.59855303 -16.02734375 146.1328125 C-17.14971656 143.88806687 -17.17612096 142.62090851 -17.22021484 140.12963867 C-17.23627777 139.30505661 -17.2523407 138.48047455 -17.26889038 137.63090515 C-17.31336903 133.85803051 -17.35440638 130.08533141 -17.37744141 126.31225586 C-17.39399926 124.32287903 -17.42128703 122.33356165 -17.45947266 120.34448242 C-17.51426639 117.47543495 -17.53611892 114.60778163 -17.55078125 111.73828125 C-17.57345062 110.85166306 -17.59612 109.96504486 -17.61947632 109.05155945 C-17.60424391 104.59392656 -17.48737357 102.7287058 -14.68212891 99.0949707 C-8.36664003 94.42717742 -5.35590944 96.1328125 3.97265625 96.1328125 C3.97265625 82.2728125 3.97265625 68.4128125 3.97265625 54.1328125 C-0.97734375 54.1328125 -5.92734375 54.1328125 -11.02734375 54.1328125 C-16.02734375 50.1328125 -16.02734375 50.1328125 -17.02734375 48.1328125 C-17.14106702 46.80172259 -17.19657328 45.46536859 -17.22021484 44.12963867 C-17.24430923 42.89276558 -17.24430923 42.89276558 -17.26889038 41.63090515 C-17.31336903 37.85803051 -17.35440638 34.08533141 -17.37744141 30.31225586 C-17.39399926 28.32287903 -17.42128703 26.33356165 -17.45947266 24.34448242 C-17.51426639 21.47543495 -17.53611892 18.60778163 -17.55078125 15.73828125 C-17.57345062 14.85166306 -17.59612 13.96504486 -17.61947632 13.05155945 C-17.60424391 8.59392656 -17.48737357 6.7287058 -14.68212891 3.0949707 C-9.98731884 -0.3749749 -5.60516019 -0.01230902 0 0 Z " fill="#A3AFC0" transform="translate(49.02734375,169.8671875)"/>
<path d="M0 0 C7.0538808 5.76813739 13.39062262 12.24986303 19.82006836 18.69067383 C21.11151823 19.98076718 22.40318042 21.27064802 23.69503784 22.56033325 C27.18651791 26.04727164 30.67484835 29.53734479 34.16246867 33.02814317 C37.81380865 36.68202037 41.46759395 40.33345102 45.12098694 43.98527527 C51.24822886 50.11070087 57.37336545 56.23822576 63.49731445 62.36694336 C70.58637532 69.46146039 77.67905118 76.55234809 84.77358717 83.64138967 C90.86468812 89.72796156 96.95384942 95.81646878 103.04137522 101.90661639 C106.67764455 105.54444777 110.31459345 109.18159283 113.95329094 112.81699562 C117.36760607 116.22843456 120.77948954 119.6422865 124.18946457 123.05806351 C125.44477787 124.31470515 126.70095417 125.57048536 127.95802879 126.82536507 C129.6656099 128.53023791 131.37011959 130.23812132 133.07383728 131.94685364 C133.57877667 132.4495623 134.08371606 132.95227097 134.60395664 133.47021323 C138 136.88584922 138 136.88584922 138 138 C124.51704182 138.11615611 111.03420387 138.20484858 97.5508461 138.25906086 C91.28908793 138.28508794 85.02767361 138.32036057 78.76611328 138.37719727 C72.7165873 138.43176194 66.66739083 138.46147229 60.61763763 138.47438622 C58.31648323 138.48358222 56.01534565 138.50153944 53.71433258 138.52865028 C37.89287661 138.70754624 25.23532991 138.23113437 13 127 C8.17215573 122.23163636 4.53219743 117.31249217 2 111 C1.65768341 110.18046844 1.31536682 109.36093689 0.962677 108.51657104 C-0.31667482 103.84321584 -0.26316312 99.5027667 -0.22705078 94.68017578 C-0.22734283 93.65517471 -0.22763489 92.63017365 -0.22793579 91.57411194 C-0.22654629 88.19775832 -0.21100274 84.82162741 -0.1953125 81.4453125 C-0.19158103 79.09976319 -0.18873469 76.75421232 -0.18673706 74.40866089 C-0.17911121 68.24373042 -0.15947161 62.07889461 -0.1373291 55.91400146 C-0.11684817 49.619764 -0.10773053 43.3255112 -0.09765625 37.03125 C-0.07622482 24.68745848 -0.04210143 12.34373712 0 0 Z " fill="#3398D6" transform="translate(363,11)"/>
<path d="M0 0 C0.96757736 -0.00154587 1.93515472 -0.00309174 2.93205261 -0.00468445 C6.25812711 -0.00721832 9.58409229 -0.00072244 12.91015625 0.0078125 C14.06940613 0.01036041 15.22865601 0.01290833 16.42303467 0.01553345 C22.44962659 0.03060472 28.47614356 0.05240657 34.50268555 0.08053303 C42.77832692 0.11909914 51.05386807 0.14174162 59.32958984 0.15478516 C69.48882993 0.1715681 79.64780221 0.21011563 89.80689144 0.268116 C95.52730633 0.30028344 101.2474771 0.32398804 106.96798706 0.32781982 C112.44154499 0.33203713 117.91447969 0.36029003 123.38784218 0.40611839 C125.43329561 0.41912334 127.47882328 0.42355726 129.52431297 0.41900063 C132.35040101 0.41411414 135.17462951 0.44001744 138.00048828 0.47338867 C138.82612243 0.4647624 139.65175657 0.45613613 140.50240993 0.44724846 C144.58941913 0.52854 147.21169077 0.908913 150.47091675 3.48652649 C154.49428764 7.74236132 154.15794127 11.74832469 154.2109375 17.30859375 C154.21900925 18.11137253 154.22708099 18.91415131 154.23539734 19.74125671 C154.24922075 21.44003145 154.2599507 23.13883375 154.26782227 24.83764648 C154.2850246 27.42550758 154.32892317 30.01208709 154.37304688 32.59960938 C154.38317547 34.2525948 154.39169106 35.90559106 154.3984375 37.55859375 C154.41594559 38.32754471 154.43345367 39.09649567 154.45149231 39.88874817 C154.43068968 45.08399914 153.40870657 48.01584113 149.97265625 52.1328125 C146.40914928 54.50848381 144.87698122 54.38797321 140.64724731 54.40023804 C140.0030106 54.40476915 139.35877388 54.40930026 138.69501483 54.41396868 C136.53244385 54.42664694 134.37012361 54.42499015 132.20751953 54.42333984 C130.65855586 54.42932298 129.10959517 54.43612803 127.56063843 54.44369507 C123.34985494 54.4613845 119.13915271 54.46605169 114.92833567 54.46732664 C111.41439353 54.46922452 107.90047037 54.4765808 104.38653553 54.48367083 C96.09638502 54.49996369 87.80627796 54.50483898 79.51611328 54.50341797 C70.96197213 54.50221639 62.40808324 54.52331934 53.85400593 54.5549053 C46.51209008 54.58105012 39.17025669 54.59178602 31.82829463 54.59050715 C27.44229514 54.58999697 23.05651973 54.59571076 18.67056656 54.61686325 C14.54515085 54.63621549 10.42017368 54.63639103 6.29474258 54.62182999 C4.78102987 54.61973699 3.26728993 54.62447201 1.75362396 54.6365509 C-0.31408955 54.65198166 -2.38028683 54.64271228 -4.44796753 54.62728882 C-5.60460844 54.62837835 -6.76124935 54.62946789 -7.95293999 54.63059044 C-11.68645536 54.02609548 -13.34372359 52.74508645 -16.02734375 50.1328125 C-17.14971656 47.88806687 -17.17612096 46.62090851 -17.22021484 44.12963867 C-17.23627777 43.30505661 -17.2523407 42.48047455 -17.26889038 41.63090515 C-17.31336903 37.85803051 -17.35440638 34.08533141 -17.37744141 30.31225586 C-17.39399926 28.32287903 -17.42128703 26.33356165 -17.45947266 24.34448242 C-17.51426639 21.47543495 -17.53611892 18.60778163 -17.55078125 15.73828125 C-17.57345062 14.85166306 -17.59612 13.96504486 -17.61947632 13.05155945 C-17.60424391 8.59392656 -17.48737357 6.7287058 -14.68212891 3.0949707 C-9.98731884 -0.3749749 -5.60516019 -0.01230902 0 0 Z " fill="#A3B0C0" transform="translate(49.02734375,169.8671875)"/>
<path d="M0 0 C1.08903625 -0.00852997 2.17807251 -0.01705994 3.30010986 -0.02584839 C5.09307243 -0.02448883 5.09307243 -0.02448883 6.92225647 -0.02310181 C8.18113678 -0.02981903 9.44001709 -0.03653625 10.73704529 -0.04345703 C14.19419406 -0.06114333 17.65124384 -0.06581388 21.10843349 -0.0670886 C23.27227667 -0.06851079 25.43609476 -0.07278195 27.59993172 -0.07808304 C35.16100279 -0.09660128 42.72200332 -0.10475257 50.28309631 -0.10317993 C57.30910171 -0.10198229 64.33479803 -0.12300539 71.36072534 -0.15466726 C77.40594855 -0.18092943 83.45107157 -0.19154289 89.4963513 -0.19026911 C93.10067409 -0.18976181 96.70472304 -0.19531327 100.30898857 -0.21662521 C104.3417457 -0.23981676 108.37382538 -0.23042647 112.40663147 -0.21841431 C113.58372177 -0.22965332 114.76081207 -0.24089233 115.97357178 -0.25247192 C128.75284507 -0.15627341 138.79454092 3.37914579 147.87171936 12.37289429 C157.87651414 23.05816224 160.01551375 33.52585985 160.16078186 47.86117554 C160.18983109 49.64207581 160.18983109 49.64207581 160.21946716 51.45895386 C160.27895588 55.22837273 160.32552561 58.99782264 160.37171936 62.76742554 C160.40992736 65.33254257 160.44898072 67.89764717 160.48890686 70.46273804 C160.58463214 76.73085625 160.66976857 82.99905022 160.74671936 89.26742554 C161.57816467 88.42437866 162.40960999 87.58133179 163.26625061 86.71273804 C164.36377333 85.60583479 165.46143695 84.49907124 166.55921936 83.39242554 C167.10642639 82.8368396 167.65363342 82.28125366 168.21742249 81.70883179 C168.74916077 81.17387085 169.28089905 80.63890991 169.82875061 80.08773804 C170.31577454 79.59547729 170.80279846 79.10321655 171.30458069 78.59603882 C175.01273905 75.17978729 177.62171753 74.75425146 182.44984436 74.90414429 C186.69317708 75.57528365 188.07300784 76.83959025 190.74671936 80.26742554 C191.86384863 83.89488553 191.69267398 86.60967018 190.74671936 90.26742554 C189.13465881 92.51889038 189.13465881 92.51889038 186.98500061 94.79086304 C186.17039368 95.65703247 185.35578674 96.5232019 184.51649475 97.4156189 C183.14545593 98.82726318 183.14545593 98.82726318 181.74671936 100.26742554 C181.2596048 100.77089508 180.77249023 101.27436462 180.27061462 101.79309082 C177.09479473 105.06899855 173.88773765 108.31218685 170.66127014 111.53817749 C168.97982344 113.22184376 167.30659004 114.91341129 165.63343811 116.60531616 C164.5518955 117.68978808 163.46988142 118.77379005 162.38734436 119.85726929 C161.89453979 120.35725937 161.40173523 120.85724945 160.89399719 121.37239075 C157.28704392 124.95578755 153.99123751 127.81852191 148.93421936 128.82992554 C141.57841527 127.53184246 135.77947222 120.59294679 130.69203186 115.44320679 C130.06440948 114.81512619 129.43678711 114.18704559 128.79014587 113.53993225 C127.47868852 112.22547959 126.16963583 110.9086236 124.8629303 109.58944702 C122.86123766 107.56934746 120.85150673 105.55751525 118.84046936 103.54672241 C117.56134827 102.26269047 116.28268574 100.97820152 115.00453186 99.69320679 C114.40561127 99.09317337 113.80669067 98.49313995 113.18962097 97.87492371 C112.63499176 97.31391464 112.08036255 96.75290558 111.50892639 96.17489624 C111.02231537 95.68447342 110.53570435 95.1940506 110.03434753 94.68876648 C106.46775222 90.75180079 106.1863012 87.82336793 106.31312561 82.72055054 C106.74671936 80.26742554 106.74671936 80.26742554 109.18421936 77.14242554 C112.4280691 75.04569831 115.46084082 74.31199946 119.30921936 74.51351929 C124.51119234 76.12246285 128.06491029 80.43322371 131.74671936 84.26742554 C133.41146595 85.93601007 135.07788926 87.60292511 136.74671936 89.26742554 C136.87386724 81.72366402 136.9612172 74.18018053 137.02137756 66.6355896 C137.04646634 64.07103142 137.08054522 61.50654436 137.12391663 58.94223022 C137.18481236 55.24836646 137.212987 51.55545103 137.23500061 47.86117554 C137.26080704 46.72128174 137.28661346 45.58138794 137.3132019 44.4069519 C137.31563322 37.45066667 136.47851065 32.5592147 131.74671936 27.26742554 C127.03426512 23.59171123 123.52460227 22.14258721 117.60491943 22.14285278 C116.00884354 22.13900826 116.00884354 22.13900826 114.38052368 22.13508606 C113.21319199 22.13718582 112.04586029 22.13928558 110.84315491 22.14144897 C108.99889923 22.13864677 108.99889923 22.13864677 107.11738586 22.13578796 C104.44258696 22.13177924 101.76783566 22.12943491 99.09303856 22.12932587 C94.86108898 22.12818507 90.62922654 22.11534321 86.39730835 22.09976196 C85.68287605 22.09718911 84.96844374 22.09461626 84.23236197 22.09196544 C82.77143281 22.08669888 81.31050371 22.0814134 79.84957469 22.07610941 C69.99797462 22.04101007 60.14648286 22.01444716 50.29481506 22.01693726 C43.64855408 22.01852685 37.00259034 22.00246734 30.35642463 21.96623063 C26.84055903 21.9477853 23.32518961 21.9384147 19.80928612 21.95070648 C15.88540388 21.96429163 11.96228277 21.93919081 8.03846741 21.91098022 C6.8772084 21.92117691 5.7159494 21.9313736 4.51950073 21.94187927 C-4.26369781 21.82851921 -4.26369781 21.82851921 -7.96463013 18.86978149 C-10.89678076 15.53572082 -11.22237713 13.70313274 -11.42906189 9.41976929 C-11.17938605 6.36262731 -10.22382945 4.58985807 -8.25328064 2.26742554 C-4.92501789 0.0485837 -3.87927731 0.01371984 0 0 Z " fill="#EEF1F1" transform="translate(267.25328063964844,202.73257446289063)"/>
<path d="M0 0 C7.73452548 5.41666016 14.28906821 13.13733409 20.9387207 19.80834961 C22.95344771 21.82849057 24.97353385 23.84316383 26.99414062 25.85742188 C28.2763629 27.14030401 29.55827545 28.42349581 30.83984375 29.70703125 C31.44392563 30.3090889 32.04800751 30.91114655 32.6703949 31.53144836 C37.90945509 36.80028 37.90945509 36.80028 38.25 41.3125 C37.984656 45.22632394 37.36680088 46.93192479 35 50 C31.46845226 52.35436516 29.54823944 52.6046296 25.3984375 52.50390625 C20.80058974 51.53790892 18.17962681 48.25171552 15 45 C13.58600728 43.58196406 12.17065896 42.16527846 10.75390625 40.75 C9.69345093 39.69039063 9.69345093 39.69039063 8.61157227 38.609375 C8.07975342 38.07828125 7.54793457 37.5471875 7 37 C6.89815113 44.24068111 6.82834644 51.48117583 6.78027344 58.72241211 C6.76022188 61.18309432 6.73297353 63.64372925 6.69824219 66.10424805 C6.6494412 69.65164898 6.62696572 73.19841707 6.609375 76.74609375 C6.58872986 77.8370787 6.56808472 78.92806366 6.54681396 80.05210876 C6.54470948 87.29914426 7.37124411 94.02782112 12.44769287 99.58470154 C16.88985575 103.45594003 20.45024381 105.2494522 26.30674744 105.2515564 C27.38203201 105.25693924 28.45731659 105.26232208 29.56518555 105.26786804 C31.32717285 105.26168205 31.32717285 105.26168205 33.12475586 105.25537109 C34.36576553 105.25899155 35.60677521 105.262612 36.88539124 105.26634216 C39.58207364 105.27323977 42.27850633 105.27662466 44.97517204 105.27439499 C49.2405613 105.2715598 53.50578521 105.28592126 57.77113342 105.30337524 C69.89907353 105.35038328 82.02700213 105.37434439 94.1550293 105.38085938 C100.85544896 105.38461065 107.55568125 105.40264413 114.25602061 105.43595374 C118.49476907 105.45616401 122.73303419 105.45854034 126.97181118 105.44767356 C130.2298989 105.44445255 133.487825 105.46716071 136.74584961 105.48583984 C137.91848358 105.47766739 139.09111755 105.46949493 140.29928589 105.46107483 C148.2414531 105.54227519 148.2414531 105.54227519 152.1799469 107.91885376 C155.17525425 111.34384869 156.04462634 112.7727756 155.875 117.4375 C154.92645533 121.29943186 153.74586726 123.17092464 151 126 C148.45945819 127.27027091 146.67418872 127.13731599 143.82901001 127.15390015 C142.18489639 127.16680084 142.18489639 127.16680084 140.50756836 127.17996216 C138.69518677 127.18635208 138.69518677 127.18635208 136.84619141 127.19287109 C135.57770355 127.20104858 134.3092157 127.20922607 133.00228882 127.21765137 C128.7854017 127.24389069 124.56850463 127.25919115 120.3515625 127.2734375 C118.8975359 127.27879834 117.44350936 127.28417585 115.98948288 127.28956985 C109.93482892 127.31121054 103.88017763 127.32994154 97.82549477 127.34119225 C89.16628978 127.35739003 80.50753652 127.39045161 71.8485018 127.44759309 C65.75235846 127.4864382 59.65633512 127.50584265 53.56007135 127.51111281 C49.92433942 127.51474942 46.28908905 127.5265861 42.65349197 127.55921555 C38.58464538 127.59520581 34.51675324 127.59088865 30.44775391 127.58349609 C29.25974182 127.59990143 28.07172974 127.61630676 26.84771729 127.63320923 C14.92504601 127.54499361 4.55418874 123.40613547 -4 115 C-13.27811246 104.56212348 -15.59465573 92.308214 -15.609375 78.69921875 C-15.62591125 77.4968306 -15.64244751 76.29444244 -15.65948486 75.05561829 C-15.70754425 71.2661914 -15.72924265 67.47716451 -15.75 63.6875 C-15.77819475 61.09698553 -15.808127 58.50648936 -15.83984375 55.91601562 C-15.91329167 49.61074872 -15.96517921 43.30559236 -16 37 C-16.41362793 37.41886475 -16.82725586 37.83772949 -17.25341797 38.26928711 C-19.12466831 40.16129409 -20.99977585 42.04943185 -22.875 43.9375 C-23.52597656 44.59685547 -24.17695313 45.25621094 -24.84765625 45.93554688 C-25.78544922 46.87817383 -25.78544922 46.87817383 -26.7421875 47.83984375 C-27.3182373 48.42113037 -27.89428711 49.00241699 -28.48779297 49.60131836 C-31.61966277 52.49807039 -34.64196243 52.38576031 -38.73828125 52.359375 C-42.32520929 51.78943134 -43.86838894 49.79773951 -46 47 C-47.57416329 43.85167342 -47.93529415 41.35621723 -47 38 C-45.45581055 35.9140625 -45.45581055 35.9140625 -43.32421875 33.625 C-42.09832031 32.30822266 -42.09832031 32.30822266 -40.84765625 30.96484375 C-35.96296258 25.8543033 -31.00425783 20.81827761 -26.00512695 15.81982422 C-24.16784321 13.98031945 -22.33875661 12.13290237 -20.50976562 10.28515625 C-19.33382167 9.10628351 -18.15740674 7.92788034 -16.98046875 6.75 C-16.43875534 6.20110107 -15.89704193 5.65220215 -15.33891296 5.08666992 C-10.18503861 -0.03618666 -7.26789088 -2.05923575 0 0 Z " fill="#F0F1F1" transform="translate(303,278)"/>
<path d="M0 0 C6.93 0 13.86 0 21 0 C21 17.49 21 34.98 21 53 C28.88501694 53.13775183 36.76586142 53.25719929 44.65112305 53.32958984 C47.33351444 53.35637723 50.01505373 53.39812152 52.69702148 53.45263672 C56.55216816 53.52541572 60.40601052 53.55945182 64.26171875 53.5859375 C65.46084396 53.61690521 66.65996918 53.64787292 67.89543152 53.67977905 C73.66472651 53.88167257 73.66472651 53.88167257 78.79067993 51.70782471 C80.31149129 49.93728831 80.31149129 49.93728831 82 47 C87.24100494 42.93554719 91.46895599 42.36576172 98.06640625 42.62109375 C105.02012968 43.51924445 109.54400238 46.75163076 113.8125 52.21484375 C117.45924836 57.69696218 117.82684946 63.7183934 116.60546875 70.04296875 C114.55572346 76.8798611 109.57276604 80.83753634 103.625 84.4375 C96.48767357 85.96692709 90.39454906 85.51073282 84 82 C81.62265206 80.27101968 79.5514926 78.67549506 77.69218063 76.39811897 C75.32392993 74.44141519 73.72327041 74.62677427 70.67510986 74.63009644 C69.57043365 74.62427048 68.46575745 74.61844452 67.3276062 74.61244202 C66.11509186 74.62158127 64.90257751 74.63072052 63.65332031 74.64013672 C61.7383223 74.63724388 61.7383223 74.63724388 59.78463745 74.6342926 C56.28018126 74.63026202 52.77608407 74.64603572 49.27169895 74.66722631 C47.08110389 74.67967058 44.89053199 74.68803675 42.69991302 74.69498062 C35.05369869 74.71952818 27.40776754 74.76071618 19.76171875 74.81640625 C12.64131068 74.86780617 5.52148252 74.8819622 -1.59909129 74.87885273 C-7.71662968 74.87791438 -13.83368084 74.90384251 -19.95104146 74.95033658 C-23.60281907 74.97759802 -27.25384341 74.99396492 -30.90572357 74.98299789 C-34.98329785 74.97179023 -39.05845332 75.0163853 -43.13574219 75.06591797 C-44.94236832 75.04926338 -44.94236832 75.04926338 -46.78549194 75.03227234 C-52.41856776 75.14520226 -55.97931622 75.27877363 -60.02276611 79.43728638 C-60.50416676 80.05606722 -60.9855674 80.67484806 -61.48155594 81.31237984 C-65.01803111 85.24286826 -70.54257693 85.84658705 -75.5625 86.375 C-81.858692 85.68814269 -87.57449685 83.66471954 -92 79 C-96.22642269 72.63701556 -98.43353703 66.62973425 -97 59 C-94.81645497 51.93743329 -91.44965436 47.89207624 -85.18359375 44.05859375 C-79.38793227 41.24889024 -73.03426162 41.13284535 -66.9375 43.0625 C-63.71949048 44.38574584 -62.1950223 45.8552299 -60.06225586 48.56469727 C-55.97785954 52.74049342 -52.33619929 52.84696463 -46.6688385 52.94554138 C-45.48003586 52.93128616 -44.29123322 52.91703094 -43.06640625 52.90234375 C-41.21679543 52.92078087 -41.21679543 52.92078087 -39.32981873 52.93959045 C-35.40677117 52.97128271 -31.48560577 52.95505143 -27.5625 52.9375 C-24.89639792 52.94672443 -22.23051626 52.96685108 -19.56445312 52.98632812 C-13.04182822 53.03301981 -6.52393397 53.0148609 0 53 C0 35.51 0 18.02 0 0 Z " fill="#758BA0" transform="translate(107,320)"/>
<path d="M0 0 C42.24 0 84.48 0 128 0 C128 14.19 128 28.38 128 43 C85.76 43 43.52 43 0 43 C0 28.81 0 14.62 0 0 Z " fill="#768BA0" transform="translate(53,224)"/>
<path d="M0 0 C3.63 0 7.26 0 11 0 C11 17.49 11 34.98 11 53 C7.37 53 3.74 53 0 53 C0 35.51 0 18.02 0 0 Z " fill="#4AA9EB" transform="translate(96,320)"/>
</svg>
