<?xml version="1.0" encoding="UTF-8"?>
<svg version="1.1" xmlns="http://www.w3.org/2000/svg" width="512" height="512">
<path d="M0 0 C1.20947481 -0.00551503 1.20947481 -0.00551503 2.44338346 -0.01114148 C5.14856173 -0.0221654 7.85370157 -0.02601995 10.55889893 -0.02983093 C12.49722414 -0.03609651 14.43554815 -0.04274339 16.37387085 -0.04974365 C22.74185349 -0.0707734 29.10983634 -0.08114429 35.47784424 -0.09111023 C37.67056542 -0.09515804 39.86328647 -0.09927497 42.05600739 -0.10346031 C52.35670069 -0.12250874 62.65738683 -0.13674112 72.95809436 -0.14507228 C84.84716482 -0.15484704 96.73604922 -0.18117435 108.62505412 -0.22157317 C117.81584352 -0.25173159 127.00657957 -0.26654086 136.1974175 -0.26985329 C141.68622802 -0.27220387 147.17483968 -0.28116574 152.66359711 -0.30631447 C157.82809355 -0.32959559 162.99226019 -0.33382816 168.1567955 -0.32355309 C170.04981712 -0.32305764 171.94285498 -0.32938049 173.83582687 -0.34310913 C176.42561286 -0.36083706 179.01421635 -0.35371788 181.60400391 -0.34057617 C182.34838046 -0.35154542 183.09275701 -0.36251466 183.85969043 -0.37381631 C189.31607513 -0.30723157 193.47498574 1.16742852 198.05596924 4.14717102 C202.77787167 8.99333404 204.30806172 13.56376268 204.29647827 20.25320435 C204.30060226 22.09359283 204.30060226 22.09359283 204.30480957 23.97116089 C204.29773228 25.32255653 204.29046268 26.67395117 204.28302002 28.02534485 C204.28245561 29.45463554 204.28277305 30.88392681 204.28390503 32.31321716 C204.28447837 36.18681545 204.27272705 40.06028964 204.25875711 43.93385911 C204.2462467 47.98442342 204.24507901 52.03499064 204.2427063 56.08557129 C204.23649245 63.7529891 204.2200829 71.42034982 204.20000732 79.08774251 C204.17764538 87.81803499 204.16665415 96.54833021 204.15661645 105.2786442 C204.1357166 123.23485217 204.10054245 141.191007 204.05596924 159.14717102 C205.59912245 159.23102318 205.59912245 159.23102318 207.17345047 159.31656933 C211.04530544 159.52729445 214.91706805 159.73967831 218.78880692 159.95252514 C220.45423379 160.04385734 222.11968434 160.13475896 223.78516006 160.22519588 C236.48120338 160.91501939 249.14790453 161.7440925 261.80596924 162.95967102 C262.68889648 163.04298676 263.57182373 163.12630249 264.48150635 163.21214294 C285.13852467 165.18003588 305.89641139 167.58105315 326.05596924 172.64717102 C326.77333252 172.82433655 327.4906958 173.00150208 328.22979736 173.18403625 C333.5810368 174.66393164 339.07575789 177.16695968 343.05596924 181.14717102 C343.18201535 183.3898268 343.23684058 185.63650034 343.26470947 187.88252258 C343.27449326 188.5866478 343.28427704 189.29077301 343.2943573 190.01623535 C343.32437819 192.35673617 343.3457173 194.69717947 343.36456299 197.03779602 C343.37113482 197.83601524 343.37770664 198.63423447 343.38447762 199.45664215 C343.4171038 203.68338244 343.44154413 207.9100972 343.46099854 212.13691711 C343.47880407 215.63696502 343.5136056 219.13620604 343.5635376 222.63594055 C343.62371466 226.85821903 343.65447107 231.07974992 343.66417122 235.30243683 C343.67273362 236.91164081 343.69157144 238.52082442 343.72091484 240.12978363 C343.759831 242.38548721 343.7608659 244.63828177 343.75299072 246.89424133 C343.76329819 248.17695923 343.77360565 249.45967712 343.78422546 250.78126526 C342.76500072 255.49198975 340.9929407 256.4714169 337.05596924 259.14717102 C329.17317652 262.7910903 320.42581661 264.25130317 311.93096924 265.77217102 C308.65023604 266.37843517 305.36971151 266.98527989 302.09088135 267.60176086 C300.17855349 267.94542915 298.26003877 268.25759986 296.33551025 268.52461243 C289.65926372 269.54757012 285.48654135 272.10506849 280.24346924 276.27217102 C279.43651611 276.88963196 278.62956299 277.5070929 277.79815674 278.14326477 C276.08326866 279.45774887 274.37421989 280.77988164 272.67071533 282.10908508 C269.20024179 284.81417501 265.69776777 287.47613097 262.19512939 290.13935852 C260.42862399 291.4832753 258.66398703 292.82965143 256.90118408 294.17842102 C251.10515904 298.61073838 245.25756379 302.96449724 239.36846924 307.27217102 C233.18340853 311.79832472 227.08692877 316.41767755 221.05596924 321.14717102 C214.25356491 326.48163342 207.34937138 331.65310916 200.37237549 336.75654602 C194.37845791 341.14948236 188.45635928 345.6295578 182.55596924 350.14717102 C175.85402089 355.27733897 169.11234018 360.34389097 162.30596924 365.33467102 C160.75498718 366.47762774 159.20420377 367.62085408 157.65362549 368.76435852 C155.33383705 370.47492456 153.01075926 372.17992112 150.67657471 373.87080383 C138.39480149 382.22227358 138.39480149 382.22227358 130.05596924 394.14717102 C129.81123367 394.71723373 129.56649811 395.28729645 129.31434631 395.87463379 C126.65954576 402.78612884 126.64781858 409.31583945 126.68487549 416.65107727 C126.66750047 419.2741255 126.64991602 421.89717235 126.63214111 424.5202179 C126.6190624 428.62365421 126.61847464 432.72706811 126.62017822 436.83052063 C126.62023941 440.81255586 126.58925492 444.7941509 126.55987549 448.77607727 C126.56805801 449.99710648 126.57624054 451.21813568 126.58467102 452.47616577 C126.51707212 460.23308011 125.7824942 466.21133168 120.30865479 471.99263 C119.71351074 472.39296448 119.1183667 472.79329895 118.50518799 473.20576477 C117.45790527 473.92288635 117.45790527 473.92288635 116.38946533 474.65449524 C115.61941162 475.14707825 114.84935791 475.63966125 114.05596924 476.14717102 C113.21243896 476.69518372 112.36890869 477.24319641 111.49981689 477.80781555 C108.63927519 479.63641875 105.75831453 481.42775961 102.86846924 483.20967102 C100.73799212 484.52433971 98.60778926 485.83945293 96.47784424 487.15498352 C95.40856689 487.81530579 94.33928955 488.47562805 93.23760986 489.15596008 C90.17698461 491.07143427 87.15204526 493.03249626 84.13409424 495.01435852 C83.20363281 495.61627014 82.27317139 496.21818176 81.31451416 496.83833313 C79.5647284 497.9717405 77.82457369 499.12021047 76.09625244 500.28608704 C70.80078781 503.67825113 66.39335737 505.38463942 60.05596924 504.14717102 C56.76025556 501.84017144 55.81076434 499.99100937 55.05596924 496.14717102 C54.96839949 494.80922112 54.92713234 493.46768715 54.92466736 492.12687683 C54.91865509 490.94128929 54.91865509 490.94128929 54.91252136 489.73175049 C54.91331444 488.44440758 54.91331444 488.44440758 54.91412354 487.13105774 C54.91064911 486.21994736 54.90717468 485.30883698 54.90359497 484.37011719 C54.89624692 482.39218123 54.89089647 480.41423708 54.88730431 478.43629074 C54.88012536 475.29949557 54.86444663 472.16285561 54.84596252 469.02610779 C54.79357001 460.10749986 54.74555379 451.18897632 54.7300415 442.2702179 C54.71992719 436.81245707 54.69051322 431.35508633 54.64872169 425.89748001 C54.63645398 423.8236245 54.63128266 421.74971379 54.63352013 419.67582321 C54.63588848 416.76334685 54.61358965 413.85197755 54.58599854 410.93965149 C54.59259995 410.09356827 54.59920135 409.24748505 54.60600281 408.37576294 C54.46398885 399.1800151 51.21213486 391.34155861 44.87628174 384.66670227 C39.67364394 380.01891642 33.98730134 376.02097993 28.32550049 371.95576477 C22.98814074 368.12292237 17.76732886 364.1488887 12.55596924 360.14717102 C5.87832937 355.03268361 -0.84265382 349.98800523 -7.63153076 345.02217102 C-14.58248565 339.93554509 -21.40435102 334.70719917 -28.18182373 329.39228821 C-34.24446308 324.65358251 -40.41731213 320.08042979 -46.62762451 315.53779602 C-52.62154165 311.14486001 -58.54365725 306.66480553 -64.44403076 302.14717102 C-72.01028665 296.35500909 -79.62034593 290.63085082 -87.33587646 285.03852844 C-90.80858586 282.51208933 -94.21048724 279.97370602 -97.45574951 277.15888977 C-104.73853437 270.89712819 -111.10955053 268.68953192 -120.49920654 267.49531555 C-125.43466993 266.79250241 -130.3119111 265.77345812 -135.19403076 264.77217102 C-136.74658569 264.45385315 -136.74658569 264.45385315 -138.33050537 264.12910461 C-155.66374945 260.42745233 -155.66374945 260.42745233 -160.94403076 255.14717102 C-161.22491455 252.08628845 -161.22491455 252.08628845 -161.26629639 248.09883118 C-161.2811911 247.01075417 -161.2811911 247.01075417 -161.29638672 245.9006958 C-161.32564828 243.49583675 -161.33923622 241.0912415 -161.35028076 238.68623352 C-161.36178216 237.01715587 -161.37329765 235.34807832 -161.38482666 233.67900085 C-161.40585178 230.1768419 -161.41753366 226.67477485 -161.42449951 223.17256165 C-161.43547129 218.6839864 -161.48352446 214.19662403 -161.54044342 209.70842934 C-161.57768623 206.2597346 -161.58810667 202.81133232 -161.59117126 199.36245346 C-161.59722787 197.70778648 -161.61329764 196.05312487 -161.63954163 194.39865494 C-161.6736525 192.08293113 -161.6699124 189.77017287 -161.65692139 187.45429993 C-161.66421265 186.13684784 -161.67150391 184.81939575 -161.67901611 183.46202087 C-160.94403076 180.14717102 -160.94403076 180.14717102 -158.02980042 177.74832153 C-135.37535544 165.99333647 -105.18301253 165.40112276 -80.13153076 162.95967102 C-79.33727692 162.88085693 -78.54302307 162.80204285 -77.72470093 162.72084045 C-59.5072107 160.94042997 -41.21928807 160.10038415 -22.94403076 159.14717102 C-22.94587435 158.41663985 -22.94771793 157.68610868 -22.94961739 156.93344021 C-22.99381101 139.14737155 -23.02689444 121.36131386 -23.04765511 103.57520199 C-23.05796199 94.97392745 -23.07201109 86.37268959 -23.09490967 77.7714386 C-23.11486153 70.27345984 -23.12775147 62.77550764 -23.13220775 55.27750307 C-23.13481208 51.30840138 -23.14092117 47.33937569 -23.15549088 43.37029839 C-23.16910318 39.63161445 -23.17324605 35.89303757 -23.17024612 32.15433121 C-23.17105547 30.13389976 -23.18179798 28.11347988 -23.19287109 26.09307861 C-23.15761087 10.53828199 -23.15761087 10.53828199 -16.94403076 4.14717102 C-11.37997394 0.25233124 -6.65405171 -0.00162851 0 0 Z " fill="#4A88DA" transform="translate(164.94403076171875,7.8528289794921875)"/>
<path d="M0 0 C1.20947481 -0.00551503 1.20947481 -0.00551503 2.44338346 -0.01114148 C5.14856173 -0.0221654 7.85370157 -0.02601995 10.55889893 -0.02983093 C12.49722414 -0.03609651 14.43554815 -0.04274339 16.37387085 -0.04974365 C22.74185349 -0.0707734 29.10983634 -0.08114429 35.47784424 -0.09111023 C37.67056542 -0.09515804 39.86328647 -0.09927497 42.05600739 -0.10346031 C52.35670069 -0.12250874 62.65738683 -0.13674112 72.95809436 -0.14507228 C84.84716482 -0.15484704 96.73604922 -0.18117435 108.62505412 -0.22157317 C117.81584352 -0.25173159 127.00657957 -0.26654086 136.1974175 -0.26985329 C141.68622802 -0.27220387 147.17483968 -0.28116574 152.66359711 -0.30631447 C157.82809355 -0.32959559 162.99226019 -0.33382816 168.1567955 -0.32355309 C170.04981712 -0.32305764 171.94285498 -0.32938049 173.83582687 -0.34310913 C176.42561286 -0.36083706 179.01421635 -0.35371788 181.60400391 -0.34057617 C182.34838046 -0.35154542 183.09275701 -0.36251466 183.85969043 -0.37381631 C189.31607513 -0.30723157 193.47498574 1.16742852 198.05596924 4.14717102 C203.32117011 9.55092981 204.35488338 14.67842278 204.3032074 22.03077698 C204.30562181 22.81838559 204.30803623 23.6059942 204.31052381 24.41746974 C204.31615359 27.0530408 204.30750327 29.68836871 204.29888916 32.32392883 C204.29996219 34.21464605 204.30190118 36.10536295 204.30464172 37.99607849 C204.30948857 43.12794978 204.30183732 48.25973411 204.29168868 53.39159489 C204.28290991 58.75630661 204.28466556 64.12101559 204.28504944 69.48573303 C204.284113 78.4907324 204.27543005 87.49569805 204.26177979 96.50068665 C204.24603542 106.92596701 204.24078234 117.3512105 204.24151534 127.77650189 C204.24212462 137.79368685 204.23702956 147.81085974 204.22872353 157.82804108 C204.22518441 162.09757837 204.22335939 166.3671114 204.22282982 170.63665009 C204.22182889 175.65659826 204.21575289 180.67651521 204.20566368 185.69645309 C204.20273119 187.54402602 204.20151482 189.39160254 204.20209122 191.2391777 C204.20257832 193.7499854 204.19696199 196.26070425 204.18968201 198.77149963 C204.19123061 199.51223827 204.19277921 200.2529769 204.19437474 201.01616216 C204.17014825 206.03299201 204.17014825 206.03299201 203.05596924 207.14717102 C201.72446541 207.29934796 200.38532291 207.38535303 199.04644775 207.44429016 C198.17222672 207.48424103 197.29800568 207.52419189 196.39729309 207.56535339 C195.41969528 207.60395477 194.44209747 207.64255615 193.43487549 207.68232727 C192.3946373 207.72544037 191.35439911 207.76855347 190.28263855 207.81297302 C186.72819674 207.95432958 183.17349277 208.08380961 179.61846924 208.20967102 C178.37613525 208.25419403 177.13380127 208.29871704 175.8538208 208.34458923 C110.03934076 210.61332292 43.84332224 209.97788909 -21.94403076 207.14717102 C-22.99558166 168.89626202 -23.13218698 130.65818788 -23.12914097 92.39604342 C-23.12949773 85.81338735 -23.14121645 79.23078325 -23.15507716 72.64814371 C-23.16814559 66.20720139 -23.17351841 59.76628245 -23.17287809 53.32532698 C-23.17262495 49.51791378 -23.1753802 45.71056542 -23.18605614 41.90316582 C-23.19753104 37.70442052 -23.19299513 33.50583975 -23.18695068 29.30708313 C-23.19257019 28.07050461 -23.1981897 26.83392609 -23.20397949 25.55987549 C-23.17336381 17.21359333 -23.06134559 10.43926627 -16.94403076 4.14717102 C-11.37997394 0.25233124 -6.65405171 -0.00162851 0 0 Z " fill="#A8B0BA" transform="translate(164.94403076171875,7.8528289794921875)"/>
<path d="M0 0 C6.88379331 -0.33685572 13.58986212 0.2020914 20.41796875 0.98828125 C78.56295256 7.62822859 137.01747206 8.26692222 195.48381042 8.30962753 C198.98266092 8.31243592 202.48149986 8.3179492 205.98034668 8.32363892 C249.79857188 8.37524345 293.61201545 7.28955097 337.33227539 4.25 C341.08612581 3.98969372 344.84077558 3.74423844 348.59570312 3.5 C359.72792909 2.75977575 370.80466577 1.96646375 381.85180664 0.37939453 C386.57271523 -0.18953078 391.25422692 -0.18098287 396 0 C392.30596438 4.03698323 387.97455548 7.0595234 383.5625 10.25 C376.47740505 15.4187246 369.46130441 20.66576135 362.5 26 C355.82177737 31.1137439 349.10139462 36.15915286 342.3125 41.125 C336.12743929 45.6511537 330.03095953 50.27050653 324 55 C317.19759567 60.3344624 310.29340214 65.50593814 303.31640625 70.609375 C297.32248912 75.00231101 291.40037351 79.48236549 285.5 84 C278.71553973 89.19367744 271.88928373 94.32119502 265 99.375 C263.44390521 100.52199271 261.88791235 101.66912369 260.33203125 102.81640625 C257.61228997 104.82070997 254.88047519 106.80609432 252.13671875 108.77734375 C242.70287408 115.64693805 236.72210032 122.51765231 234 134 C233.59118426 138.50411787 233.60607073 142.98372377 233.62890625 147.50390625 C233.61153124 150.12695448 233.59394678 152.75000133 233.57617188 155.37304688 C233.56309316 159.47648319 233.5625054 163.57989709 233.56420898 167.68334961 C233.56427018 171.66538484 233.53328569 175.64697988 233.50390625 179.62890625 C233.51208878 180.84993546 233.5202713 182.07096466 233.52870178 183.32899475 C233.46110288 191.08590909 232.72652496 197.06416066 227.25268555 202.84545898 C226.6575415 203.24579346 226.06239746 203.64612793 225.44921875 204.05859375 C224.40193604 204.77571533 224.40193604 204.77571533 223.33349609 205.50732422 C222.17841553 206.24619873 222.17841553 206.24619873 221 207 C220.15646973 207.5480127 219.31293945 208.09602539 218.44384766 208.66064453 C215.58330595 210.48924773 212.70234529 212.28058859 209.8125 214.0625 C207.68202288 215.37716869 205.55182002 216.69228191 203.421875 218.0078125 C202.35259766 218.66813477 201.28332031 219.32845703 200.18164062 220.00878906 C197.12101537 221.92426325 194.09607602 223.88532524 191.078125 225.8671875 C190.14766357 226.46909912 189.21720215 227.07101074 188.25854492 227.69116211 C186.50875916 228.82456948 184.76860445 229.97303945 183.0402832 231.13891602 C177.74481857 234.53108011 173.33738813 236.2374684 167 235 C163.70428632 232.69300042 162.7547951 230.84383835 162 227 C161.91243025 225.6620501 161.8711631 224.32051613 161.86869812 222.97970581 C161.86268585 221.79411827 161.86268585 221.79411827 161.85655212 220.58457947 C161.8573452 219.29723656 161.8573452 219.29723656 161.8581543 217.98388672 C161.85467987 217.07277634 161.85120544 216.16166595 161.84762573 215.22294617 C161.84027768 213.24501021 161.83492723 211.26706606 161.83133507 209.28911972 C161.82415613 206.15232455 161.80847739 203.01568459 161.78999329 199.87893677 C161.73760077 190.96032884 161.68958455 182.0418053 161.67407227 173.12304688 C161.66395795 167.66528605 161.63454398 162.20791531 161.59275246 156.75030899 C161.58048475 154.67645348 161.57531342 152.60254277 161.57755089 150.52865219 C161.57991925 147.61617583 161.55762041 144.70480653 161.5300293 141.79248047 C161.53663071 140.94639725 161.54323212 140.10031403 161.55003357 139.22859192 C161.40801961 130.03284408 158.15616562 122.19438759 151.8203125 115.51953125 C146.6176747 110.8717454 140.9313321 106.87380891 135.26953125 102.80859375 C129.9321715 98.97575135 124.71135962 95.00171768 119.5 91 C112.82236013 85.88551259 106.10137694 80.8408342 99.3125 75.875 C92.36154511 70.78837407 85.53967974 65.56002815 78.76220703 60.24511719 C72.69956768 55.50641149 66.52671863 50.93325877 60.31640625 46.390625 C54.32248912 41.99768899 48.40037351 37.51763451 42.5 33 C35.71557611 27.80635041 28.89045744 22.67716969 22 17.625 C16.40579618 13.52018848 10.82635229 9.39989833 5.3125 5.1875 C4.27738281 4.39730469 3.24226563 3.60710937 2.17578125 2.79296875 C1.45777344 2.20128906 0.73976562 1.60960937 0 1 C0 0.67 0 0.34 0 0 Z " fill="#5D9CE9" transform="translate(58,277)"/>
<path d="M0 0 C0.72731791 -0.00438225 1.45463583 -0.00876451 2.20399368 -0.01327956 C4.64192904 -0.02663742 7.07982827 -0.03283965 9.51779175 -0.03897095 C11.2656826 -0.04687435 13.01357183 -0.05514345 14.76145935 -0.06375122 C20.50297493 -0.08994598 26.2444977 -0.10527736 31.98605347 -0.11953735 C33.964517 -0.12489828 35.94298049 -0.13027579 37.92144394 -0.13566971 C46.15337302 -0.15729561 54.38530015 -0.17603102 62.61725044 -0.1872921 C74.40370264 -0.20352311 86.18982476 -0.23668371 97.97615254 -0.29369295 C106.2693145 -0.33243446 114.56238833 -0.35192984 122.85563838 -0.35721266 C127.80578616 -0.36086062 132.75558168 -0.37282276 137.70563126 -0.4053154 C142.366243 -0.43546977 147.02629071 -0.44168166 151.68697929 -0.42993164 C153.39211445 -0.42971151 155.09727635 -0.43796586 156.80232048 -0.45558548 C175.35698547 -0.63679963 175.35698547 -0.63679963 181.79074097 5.15390015 C193.30797551 23.58147542 186.79074097 48.42322546 186.79074097 70.15390015 C117.82074097 70.15390015 48.85074097 70.15390015 -22.20925903 70.15390015 C-22.20925903 10.32532872 -22.20925903 10.32532872 -16.20925903 4.15390015 C-10.79996648 0.36739536 -6.53022973 0.02791951 0 0 Z " fill="#C9CFD6" transform="translate(164.20925903320313,7.846099853515625)"/>
<path d="M0 0 C68.97 0 137.94 0 209 0 C209 22.11 209 44.22 209 67 C181.42812265 68.53751046 154.0521081 69.30258659 126.44673538 69.19743729 C123.50866843 69.18731453 120.57061789 69.18115299 117.63253784 69.17623901 C78.73748427 69.11063993 39.86329162 68.67222144 1 67 C0.85463479 60.51202573 0.7126307 54.02398356 0.57275391 47.53588867 C0.52499007 45.33763031 0.47651067 43.13938735 0.42724609 40.94116211 C0.35577183 37.74597088 0.28704115 34.55072943 0.21875 31.35546875 C0.19687622 30.40359177 0.17500244 29.45171478 0.15246582 28.47099304 C-0.04565906 18.97520026 0 9.5059349 0 0 Z " fill="#C9CFD6" transform="translate(142,148)"/>
<path d="M0 0 C0 15.51 0 31.02 0 47 C-9.22691642 47 -18.25840598 46.8824705 -27.4375 46.25 C-28.70029785 46.16347168 -29.9630957 46.07694336 -31.26416016 45.98779297 C-55.79620215 44.24496309 -80.43148022 42.03717363 -104.61083984 37.45263672 C-106.86926964 37.02476743 -109.130727 36.62093249 -111.39453125 36.22265625 C-131.74725518 32.4686643 -131.74725518 32.4686643 -139 26 C-139.75 23.5 -139.75 23.5 -139 21 C-109.1717332 -2.57319989 -36.66744229 0 0 0 Z " fill="#5E9BE9" transform="translate(143,167)"/>
<path d="M0 0 C84.80923336 4.15392163 84.80923336 4.15392163 122 13.5 C122.71736328 13.67716553 123.43472656 13.85433105 124.17382812 14.03686523 C129.23954621 15.43779915 133.93040603 17.62558605 138 21 C138.33 21.99 138.66 22.98 139 24 C122.36195384 43.9656554 74.67106861 42.09584906 50.48374939 44.35107422 C41.70768216 45.1433421 32.92160245 45.73986517 24.125 46.25 C23.41698242 46.29110901 22.70896484 46.33221802 21.97949219 46.37457275 C14.62806003 46.79177774 7.37174734 47 0 47 C0 31.49 0 15.98 0 0 Z " fill="#5D9BE9" transform="translate(369,167)"/>
<path d="M0 0 C3.03215675 2.19831364 3.81654398 3.44963194 5 7 C5.1204002 9.87459111 5.18540098 12.72672723 5.20532227 15.60229492 C5.21522186 16.48055435 5.22512146 17.35881378 5.23532104 18.26368713 C5.26693119 21.1692535 5.29169161 24.07483622 5.31640625 26.98046875 C5.33697619 28.99400764 5.35797268 31.00754222 5.37937927 33.02107239 C5.43459577 38.32287097 5.48400695 43.62470849 5.53222656 48.92657471 C5.58244463 54.33585072 5.63812911 59.74507013 5.69335938 65.15429688 C5.8009358 75.7694829 5.90238196 86.38471806 6 97 C6.59167969 96.37351562 7.18335938 95.74703125 7.79296875 95.1015625 C8.58316406 94.28429687 9.37335938 93.46703125 10.1875 92.625 C10.96480469 91.81289062 11.74210937 91.00078125 12.54296875 90.1640625 C15.96162847 87.15303312 18.50180705 85.93884927 23.0625 86.125 C26.49884678 87.14859266 27.85767857 88.14357143 30 91 C31.36988165 94.37904141 31.06959102 95.7989476 29.86669922 99.27416992 C28.03002629 103.37089557 25.37466807 106.18786949 22.1953125 109.30078125 C21.63431854 109.86323044 21.07332458 110.42567963 20.49533081 111.00517273 C19.31502105 112.18383221 18.12979922 113.35759137 16.93994141 114.52661133 C15.12484717 116.31265038 13.32925651 118.11672714 11.53515625 119.92382812 C10.3813188 121.07143008 9.22640667 122.21795275 8.0703125 123.36328125 C7.53681183 123.89971756 7.00331116 124.43615387 6.4536438 124.98884583 C2.63687816 128.710774 -0.41221811 130.94249374 -5.8125 131.0625 C-14.49840208 128.16719931 -21.55318645 118.62991118 -27.875 112.3125 C-28.83323543 111.36643728 -29.79156822 110.42047317 -30.75 109.47460938 C-31.65492187 108.57162109 -32.55984375 107.66863281 -33.4921875 106.73828125 C-34.31058105 105.92399658 -35.12897461 105.10971191 -35.97216797 104.27075195 C-39.01883025 100.8591211 -40.03974063 99.11273759 -39.875 94.5 C-38.90823677 90.63294707 -38.2351208 89.27332813 -35 87 C-31.50213159 85.85939074 -29.62813188 85.79517439 -26.125 86.9375 C-23.26239767 88.82681753 -21.19457974 90.69730132 -18.8046875 93.12890625 C-18.09038574 93.85279541 -17.37608398 94.57668457 -16.64013672 95.32250977 C-16.0988916 95.87608154 -15.55764648 96.42965332 -15 97 C-14.99191315 95.86882751 -14.98382629 94.73765503 -14.97549438 93.57220459 C-14.89805428 82.91886085 -14.81032032 72.26564515 -14.71247292 61.61246872 C-14.66249878 56.13538909 -14.61616874 50.65832886 -14.578125 45.18115234 C-14.54128646 39.8966921 -14.49493022 34.61239367 -14.44193649 29.32807159 C-14.42338497 27.31065963 -14.40827982 25.29321298 -14.39665604 23.27574921 C-14.3798067 20.45286949 -14.35077462 17.63036098 -14.31884766 14.80761719 C-14.31668747 13.97108109 -14.31452728 13.13454498 -14.31230164 12.2726593 C-14.20667435 4.97580063 -14.20667435 4.97580063 -12 2 C-7.99366249 -0.67089167 -4.71008572 -0.70693873 0 0 Z " fill="#5D9CEA" transform="translate(78,0)"/>
<path d="M0 0 C0.639375 -0.01289063 1.27875 -0.02578125 1.9375 -0.0390625 C5.33115996 1.05359317 6.79111344 2.85275956 9 5.625 C9.73214848 8.659521 9.69092616 11.61939151 9.65942383 14.72973633 C9.66990753 15.63754852 9.68039124 16.54536072 9.69119263 17.48068237 C9.71993123 20.47314684 9.71365243 23.46445356 9.70703125 26.45703125 C9.72014698 28.5349828 9.73545082 30.6129216 9.75285339 32.69084167 C9.79273062 38.15382604 9.80289564 43.6164771 9.80688477 49.07958984 C9.816211 54.65667855 9.8536214 60.233571 9.88867188 65.81054688 C9.95327559 76.74868873 9.9864929 87.68668406 10 98.625 C10.71285156 97.84253906 11.42570312 97.06007813 12.16015625 96.25390625 C13.12677148 95.23098334 14.09426656 94.20889135 15.0625 93.1875 C15.52849609 92.67123047 15.99449219 92.15496094 16.47460938 91.62304688 C20.10501179 87.84446477 22.78878092 86.74203684 28 86.625 C31.57387602 88.21338934 32.81089572 89.34134358 35 92.625 C35.59299127 95.98528388 35.83288485 98.42513655 33.81811523 101.32763672 C33.27872314 101.91818848 32.73933105 102.50874023 32.18359375 103.1171875 C31.54800537 103.81384521 30.91241699 104.51050293 30.25756836 105.22827148 C29.5125708 106.01919189 28.76757324 106.8101123 28 107.625 C27.13576416 108.54418213 26.27152832 109.46336426 25.38110352 110.41040039 C22.95743119 112.96704069 20.50108369 115.48967457 18.02978516 118.00024414 C17.00364515 119.04816464 15.98382929 120.10231274 14.97021484 121.16235352 C13.48411866 122.71547908 11.97913217 124.24786967 10.46875 125.77734375 C9.58638672 126.68476318 8.70402344 127.59218262 7.79492188 128.52709961 C4.3771371 131.09252803 2.25683191 131.61332186 -2 131.625 C-6.60936931 129.71151806 -9.8995393 126.00019326 -13.359375 122.49609375 C-13.9492218 121.90578873 -14.5390686 121.3154837 -15.14678955 120.70729065 C-16.38620863 119.46486248 -17.62320851 118.22001677 -18.85791016 116.97290039 C-20.7523823 115.06009465 -22.65481233 113.15548928 -24.55859375 111.25195312 C-25.76349515 110.04213887 -26.9679385 108.83186822 -28.171875 107.62109375 C-28.74162048 107.05023544 -29.31136597 106.47937714 -29.89837646 105.89122009 C-34.88500802 100.84391494 -34.88500802 100.84391494 -35.3125 96.3125 C-34.94549371 91.98182574 -34.21777399 90.50406094 -31 87.625 C-26.58737925 86.21671678 -24.07846982 86.57973185 -20 88.625 C-17.32421875 91.0078125 -17.32421875 91.0078125 -14.6875 93.75 C-13.80449219 94.66007812 -12.92148437 95.57015625 -12.01171875 96.5078125 C-11.01591797 97.55582031 -11.01591797 97.55582031 -10 98.625 C-9.99857498 97.47099197 -9.99714996 96.31698395 -9.99568176 95.12800598 C-9.97901445 84.2541391 -9.93624884 73.38064657 -9.86790943 62.50697803 C-9.83361426 56.91662541 -9.80852548 51.3265468 -9.80444336 45.73608398 C-9.8001659 40.34122317 -9.77174855 34.94698077 -9.72656822 29.55231285 C-9.71357562 27.49386891 -9.70929175 25.43535102 -9.71384621 23.37687111 C-9.71873958 20.49381305 -9.69271572 17.61257119 -9.65942383 14.72973633 C-9.66804947 13.87809402 -9.67667511 13.02645172 -9.68556213 12.14900208 C-9.60107932 7.78661668 -9.40060576 6.12777616 -6.58769226 2.59745789 C-4.08331876 0.68850938 -3.08024119 -0.06210164 0 0 Z " fill="#5E9CEA" transform="translate(438,-0.625)"/>
<path d="M0 0 C3.00099588 -0.10890711 5.99796378 -0.18773555 9 -0.25 C9.83917969 -0.28351562 10.67835938 -0.31703125 11.54296875 -0.3515625 C17.55905424 -0.44483514 21.97912592 0.59936906 27 4 C32.26520087 9.40375879 33.29891414 14.53125176 33.24723816 21.88360596 C33.24965257 22.67121457 33.25206699 23.45882318 33.25455457 24.27029872 C33.26018435 26.90586978 33.25153403 29.54119769 33.24291992 32.17675781 C33.24399295 34.06747503 33.24593194 35.95819193 33.24867249 37.84890747 C33.25351933 42.98077876 33.24586808 48.11256309 33.23571944 53.24442387 C33.22694067 58.60913559 33.22869632 63.97384457 33.2290802 69.33856201 C33.22814376 78.34356138 33.21946081 87.34852703 33.20581055 96.35351562 C33.19006619 106.77879599 33.18481311 117.20403948 33.1855461 127.62933087 C33.18615538 137.64651583 33.18106033 147.66368872 33.17275429 157.68087006 C33.16921518 161.95040735 33.16739015 166.21994038 33.16686058 170.48947906 C33.16585965 175.50942724 33.15978365 180.52934419 33.14969444 185.54928207 C33.14676195 187.396855 33.14554558 189.24443152 33.14612198 191.09200668 C33.14660908 193.60281438 33.14099275 196.11353323 33.13371277 198.62432861 C33.13526137 199.36506725 33.13680997 200.10580588 33.1384055 200.86899114 C33.11417901 205.88582099 33.11417901 205.88582099 32 207 C26.39 207 20.78 207 15 207 C15 184.89 15 162.78 15 140 C-53.97 140 -122.94 140 -194 140 C-194 116.9 -194 93.8 -194 70 C-193.67 70 -193.34 70 -193 70 C-193 92.77 -193 115.54 -193 139 C-118.75 139 -44.5 139 32 139 C32 116.23 32 93.46 32 70 C26.39 70 20.78 70 15 70 C14.99589111 68.31519531 14.99178223 66.63039063 14.98754883 64.89453125 C14.968084 59.30239357 14.92566993 53.71073839 14.86790943 48.11886597 C14.83374593 44.73133648 14.80854632 41.34425282 14.80444336 37.95654297 C14.79513405 34.05379565 14.75409426 30.15245263 14.70703125 26.25 C14.71293022 24.44172729 14.71293022 24.44172729 14.71894836 22.59692383 C14.59744753 15.54196421 13.85337545 10.36170791 9 5 C6.66211586 3.27720554 6.66211586 3.27720554 4.1875 2.5 C3.39730469 2.2009375 2.60710937 1.901875 1.79296875 1.59375 C1.20128906 1.3978125 0.60960937 1.201875 0 1 C0 0.67 0 0.34 0 0 Z " fill="#AAB2BD" transform="translate(336,8)"/>
<path d="M0 0 C5.61 0 11.22 0 17 0 C17 22.77 17 45.54 17 69 C11.39 69 5.78 69 0 69 C0 46.23 0 23.46 0 0 Z " fill="#979FAA" transform="translate(351,78)"/>
<path d="M0 0 C0.7381041 -0.00241196 1.47620819 -0.00482391 2.23667908 -0.00730896 C3.79073482 -0.00633301 5.3448264 0.00700083 6.89868164 0.03198242 C9.27415119 0.06636005 11.64591097 0.05261662 14.02148438 0.03320312 C15.53517204 0.0401005 17.04885014 0.04977191 18.5625 0.0625 C19.26987808 0.05754013 19.97725616 0.05258026 20.70606995 0.04747009 C24.05031327 0.12719815 25.93122453 0.42118712 28.65795898 2.41821289 C30.53237499 5.07978368 30.73489138 7.31031548 30.84375 10.53125 C29.83317873 13.90191319 27.89790828 15.41438458 25.21484375 17.62890625 C21.7890625 18.26000977 21.7890625 18.26000977 17.90234375 18.2578125 C16.86533325 18.26143044 16.86533325 18.26143044 15.80737305 18.26512146 C14.35166667 18.26414581 12.89592189 18.25081914 11.44042969 18.22583008 C9.22071465 18.19149706 7.00498115 18.20518468 4.78515625 18.22460938 C3.36586859 18.21771039 1.94659113 18.20803751 0.52734375 18.1953125 C-0.75527344 18.18443604 -2.03789062 18.17355957 -3.359375 18.16235352 C-7.31329011 17.54666762 -8.97656256 16.42312036 -11.78515625 13.62890625 C-12.66796875 11.6640625 -12.66796875 11.6640625 -12.91015625 9.69140625 C-13.01585937 9.04300781 -13.1215625 8.39460937 -13.23046875 7.7265625 C-11.7942456 0.96119553 -5.95201572 -0.11187728 0 0 Z " fill="#A9B0BB" transform="translate(311.78515625,173.37109375)"/>
<path d="M0 0 C2.17300022 -0.00968252 4.34504502 -0.04069388 6.51782227 -0.07226562 C7.90518645 -0.07879831 9.29255739 -0.08404774 10.67993164 -0.08789062 C11.93974854 -0.09723633 13.19956543 -0.10658203 14.49755859 -0.11621094 C18.12535604 0.26618631 19.99575925 1.05028331 22.87915039 3.24023438 C24.44386272 6.36965903 24.57616997 9.85105661 23.87915039 13.24023438 C21.53981525 16.40398043 20.32529898 17.17215457 16.38330078 17.77368164 C14.99815276 17.80670411 13.61231419 17.81635528 12.22680664 17.80664062 C11.48965927 17.8128392 10.7525119 17.81903778 9.99302673 17.82542419 C8.43725909 17.83251331 6.88141544 17.82936404 5.32568359 17.81665039 C2.95210264 17.80279539 0.58247581 17.8368449 -1.79077148 17.875 C-3.3057464 17.87595141 -4.82072623 17.87409119 -6.33569336 17.86914062 C-7.04104721 17.88239883 -7.74640106 17.89565704 -8.47312927 17.90931702 C-12.34685131 17.83657422 -14.00644086 17.33139986 -17.07226562 14.88842773 C-19.12084961 12.24023438 -19.12084961 12.24023438 -19.68334961 9.24023438 C-18.99727304 5.58115933 -17.69350647 3.88855762 -15.12084961 1.24023438 C-10.7465618 -0.94690953 -4.86124826 0.01312816 0 0 Z " fill="#646D78" transform="translate(318.120849609375,103.759765625)"/>
<path d="M0 0 C1.07030457 -0.00717545 1.07030457 -0.00717545 2.16223145 -0.01449585 C3.66498022 -0.0178856 5.16780366 -0.00874758 6.67041016 0.01220703 C8.96294475 0.03899467 11.25058534 0.01243719 13.54296875 -0.01953125 C15.00782324 -0.01622698 16.4726747 -0.00982036 17.9375 0 C18.95801453 -0.01518173 18.95801453 -0.01518173 19.99914551 -0.03067017 C23.78288471 0.06190616 25.40328934 0.61242252 28.40820312 2.98291016 C30.46875 5.6640625 30.46875 5.6640625 30.96875 9.2265625 C30.45562095 12.7543247 30.00687091 14.21994607 27.46875 16.6640625 C22.13605342 18.44162803 16.37554336 17.92933471 10.7902832 17.95922852 C8.54251591 17.97647605 6.29620738 18.02038687 4.04882812 18.06445312 C2.61719829 18.07457798 1.18555598 18.08309473 -0.24609375 18.08984375 C-1.54667725 18.10442627 -2.84726074 18.11900879 -4.18725586 18.1340332 C-8.06351677 17.58925681 -9.1974005 16.73367521 -11.53125 13.6640625 C-12.31640625 11.69921875 -12.31640625 11.69921875 -12.59375 9.7265625 C-12.70847656 9.07816406 -12.82320313 8.42976563 -12.94140625 7.76171875 C-11.64345944 1.12364793 -5.82504193 -0.08665651 0 0 Z " fill="#A9B0BB" transform="translate(311.53125,34.3359375)"/>
<path d="M0 0 C1.06154297 -0.03673828 1.06154297 -0.03673828 2.14453125 -0.07421875 C5.77984108 -0.09452774 7.95681963 0.27466638 11.09765625 2.1484375 C13.23135132 4.49180203 13.79045767 5.27415721 13.6875 8.375 C13.4982302 11.45493579 13.20613612 12.26952304 11.25 14.8125 C7.50188274 17.56846857 4.95897874 17.59505697 0.3125 17.6875 C-1.52248047 17.74357422 -1.52248047 17.74357422 -3.39453125 17.80078125 C-7.47288742 17.30185777 -9.05539359 16.31470075 -11.875 13.375 C-12.81105213 9.88040538 -13.2492539 7.52894952 -12.125 4.0625 C-8.88867826 -0.30653435 -4.94157382 0.00890374 0 0 Z " fill="#51C0E7" transform="translate(224.875,173.625)"/>
<path d="M0 0 C1.23492187 -0.01417969 2.46984375 -0.02835937 3.7421875 -0.04296875 C6.91007691 0.17285743 8.56052766 0.39236936 11.125 2.1875 C13.6165904 5.9248856 13.58293285 7.76081583 13.125 12.1875 C11.6328125 14.87890625 11.6328125 14.87890625 9.125 17.1875 C6.27269756 17.89813935 3.54992661 17.84186951 0.625 17.75 C-0.13425781 17.76095703 -0.89351562 17.77191406 -1.67578125 17.78320312 C-5.38126611 17.73453213 -7.30075554 17.61091443 -10.34375 15.3671875 C-12.53274104 12.25122576 -12.875 9.97673721 -12.875 6.1875 C-9.21009188 0.37419747 -6.62403257 0.03442844 0 0 Z " fill="#67D3EF" transform="translate(224.875,103.8125)"/>
<path d="M0 0 C3.6484799 2.31318589 4.77958381 3.24231934 6 7.4375 C6 11.37108373 5.41868244 12.95425175 3 16 C-0.11599794 17.55799897 -3.39404401 17.30803114 -6.8125 17.375 C-7.52470703 17.41238281 -8.23691406 17.44976562 -8.97070312 17.48828125 C-12.97271243 17.5549197 -14.77513648 17.1745651 -17.96875 14.6953125 C-20 12 -20 12 -20.6875 8.5 C-19.98666 4.93208728 -19.23644717 3.04848812 -16.24609375 0.8828125 C-11.15042143 -1.12000827 -5.3260097 -0.90324141 0 0 Z " fill="#B3DD81" transform="translate(189,104)"/>
<path d="M0 0 C1.04800781 -0.02223633 1.04800781 -0.02223633 2.1171875 -0.04492188 C6.02728139 0.01778718 7.86894026 0.58506647 10.96875 3.0078125 C13 5.6875 13 5.6875 13.5 9.25 C12.98687095 12.7777622 12.53812091 14.24338357 10 16.6875 C6.56367253 17.83294249 3.74568045 17.9272802 0.125 18 C-1.08929688 18.03738281 -2.30359375 18.07476562 -3.5546875 18.11328125 C-7.60930884 17.61219993 -9.18174039 16.59383022 -12 13.6875 C-13.125 10.3125 -13.125 10.3125 -13 6.6875 C-9.44611682 1.05245177 -6.72298741 -0.26668677 0 0 Z " fill="#51C0E7" transform="translate(225,34.3125)"/>
<path d="M0 0 C0.69867188 -0.01933594 1.39734375 -0.03867187 2.1171875 -0.05859375 C6.06043383 -0.02139331 7.85217208 0.50775045 10.96484375 2.9765625 C13 5.625 13 5.625 13.5625 8.625 C12.87642343 12.28407504 11.57265686 13.97667676 9 16.625 C5.99712912 18.12643544 2.916891 17.89074018 -0.375 17.9375 C-1.04789063 17.96650391 -1.72078125 17.99550781 -2.4140625 18.02539062 C-5.87785754 18.06971084 -7.6534903 17.89693722 -10.4140625 15.73046875 C-13.05496813 12.22443887 -13.51796872 10.02773408 -13 5.625 C-9.23399696 0.67394196 -5.97458933 -0.16534841 0 0 Z " fill="#8AC055" transform="translate(182,34.375)"/>
<path d="M0 0 C0.69867188 -0.01933594 1.39734375 -0.03867188 2.1171875 -0.05859375 C6.06043383 -0.02139331 7.85217208 0.50775045 10.96484375 2.9765625 C13 5.625 13 5.625 13.5625 8.625 C12.87206143 12.30733904 11.63186072 13.99313928 9 16.625 C5.70907406 17.72197531 3.08887841 17.8621983 -0.375 17.9375 C-1.49648437 17.97488281 -2.61796875 18.01226562 -3.7734375 18.05078125 C-7.65385586 17.53871636 -9.23562425 16.33408823 -12 13.625 C-13.44430855 10.73638291 -13.37688506 8.82852299 -13 5.625 C-9.23399696 0.67394196 -5.97458933 -0.16534841 0 0 Z " fill="#8AC055" transform="translate(182,173.375)"/>
</svg>
