<?xml version="1.0" encoding="UTF-8"?>
<svg version="1.1" xmlns="http://www.w3.org/2000/svg" width="512" height="512">
<path d="M0 0 C1.3604928 -0.0083016 1.3604928 -0.0083016 2.74847031 -0.0167709 C5.80036223 -0.03042954 8.8514437 -0.01537988 11.90332031 -0.00050354 C14.08606312 -0.00428482 16.26880353 -0.00978327 18.45153809 -0.01687622 C24.38949047 -0.03087299 30.32715448 -0.01963135 36.26509094 -0.00316501 C42.46969854 0.01065329 48.67428884 0.0042291 54.87890625 0.0007019 C65.29984999 -0.00200277 75.72068602 0.01141028 86.14160156 0.03465271 C96.86820749 0.05857432 107.59466125 0.06565735 118.32128906 0.05516052 C131.24063267 0.04254064 144.15988331 0.04503616 157.07922363 0.06081963 C162.01698449 0.06658873 166.95469443 0.06648949 171.89245605 0.06175423 C177.70368194 0.0569933 183.51469633 0.06704946 189.32588196 0.08870888 C191.46286811 0.09428899 193.59987454 0.09473089 195.73686218 0.08975601 C198.64577562 0.08383176 201.55403616 0.09625325 204.46289062 0.11352539 C205.31589626 0.10751535 206.1689019 0.1015053 207.0477562 0.09531313 C212.79675564 0.15772491 212.79675564 0.15772491 214.94813633 1.85769027 C216.87978167 4.3315204 216.59121396 6.33860818 216.57202148 9.44139099 C216.57179489 10.66243027 216.5715683 11.88346954 216.57133484 13.14151001 C216.55585098 14.46032669 216.54036713 15.77914337 216.52441406 17.13792419 C216.51881774 18.50126682 216.51454781 19.86461549 216.5115509 21.22796631 C216.50010481 24.81364137 216.47064017 28.39895099 216.43743896 31.98448181 C216.40673271 35.64430294 216.39304441 39.30418321 216.37792969 42.96409607 C216.3457698 50.143299 216.29457684 57.32220099 216.23144531 64.50120544 C217.26409012 64.49665092 217.26409012 64.49665092 218.31759644 64.49200439 C219.21970856 64.48964279 220.12182068 64.48728119 221.05126953 64.48484802 C221.9459494 64.48181168 222.84062927 64.47877533 223.76242065 64.47564697 C232.7027825 64.56819444 239.61929397 67.25950802 246.17675781 73.29026794 C254.56386077 82.09848068 254.65316938 91.3224735 254.41894531 103.06370544 C254.40541016 104.35856873 254.391875 105.65343201 254.37792969 106.98753357 C254.34281902 110.15919758 254.29363878 113.32997635 254.23144531 116.50120544 C254.84117187 116.78995544 255.45089844 117.07870544 256.07910156 117.37620544 C262.50774625 120.73636819 265.68279692 126.98254706 268.23144531 133.50120544 C269.0576878 137.62743562 269.3585548 141.53934651 269.36515808 145.74285889 C269.36942307 146.97498108 269.37368805 148.20710327 269.37808228 149.4765625 C269.37773282 150.82893375 269.37727131 152.18130497 269.37670898 153.53367615 C269.37970356 154.96821683 269.38310677 156.40275671 269.3868866 157.83729553 C269.3957008 161.72378854 269.39806363 165.61025952 269.39870238 169.49676156 C269.39941439 171.92810242 269.40155157 174.35943773 269.4041996 176.79077721 C269.41344473 185.28206613 269.41753556 193.77333939 269.41674805 202.26463318 C269.41614759 210.16486966 269.4266953 218.06503779 269.44249171 225.96525699 C269.45559162 232.76037011 269.46093091 239.55546095 269.46029264 246.35058659 C269.46003836 250.40349081 269.46285083 254.45633427 269.47347069 258.50922585 C269.48319292 262.32351671 269.48320274 266.13768923 269.47595406 269.95198441 C269.4749133 271.34629808 269.47724064 272.74061929 269.48331451 274.13492012 C269.53242709 286.19703102 268.88669283 296.2501825 260.44238281 305.45042419 C251.90738767 313.56036978 243.05831356 313.93451915 231.66894531 313.68870544 C230.46947266 313.67517029 229.27 313.66163513 228.03417969 313.64768982 C225.09945652 313.61261345 222.16569649 313.56345971 219.23144531 313.50120544 C219.24715576 314.44850525 219.26286621 315.39580505 219.27905273 316.37181091 C219.33059032 319.93160118 219.36799206 323.49098727 219.39624023 327.05101013 C219.41120275 328.58330088 219.43158028 330.11554973 219.45776367 331.64768982 C219.65272383 343.3605903 219.71727906 353.89248408 211.19628906 362.80979919 C203.71246291 369.25213861 195.64926275 369.65117851 186.18383789 369.66233826 C185.17504578 369.66730316 184.16625366 369.67226807 183.12689209 369.67738342 C179.7932466 369.6919742 176.45964872 369.69880246 173.12597656 369.70433044 C170.80295308 369.71008508 168.4799296 369.71584277 166.15690613 369.72160339 C161.28551004 369.73210506 156.41413042 369.73795298 151.54272461 369.74143982 C145.31658648 369.74691825 139.09066772 369.77093612 132.86459827 369.79941177 C128.06460445 369.81808526 123.26466292 369.8232463 118.46463585 369.8247757 C116.17024221 369.82779285 113.87584929 369.83578953 111.58149147 369.84896088 C108.36283574 369.86611728 105.14470897 369.86411743 101.92602539 369.85765076 C100.98800583 369.86686554 100.04998627 369.87608032 99.08354187 369.88557434 C89.76263209 369.82724944 81.77158843 368.00046817 74.92285156 361.46995544 C69.28263803 354.9049032 68.07360788 348.10408302 68.13378906 339.67308044 C68.13591148 338.54957184 68.13591148 338.54957184 68.13807678 337.40336609 C68.14365872 335.01927132 68.15620786 332.63527166 68.16894531 330.25120544 C68.17396265 328.63141514 68.17852515 327.01162335 68.18261719 325.39183044 C68.19362224 321.42825233 68.2108744 317.46474499 68.23144531 313.50120544 C61.21991085 313.39052186 54.2110979 313.35792935 47.19873047 313.37913513 C44.81453399 313.3771907 42.43028229 313.35749266 40.04638672 313.31956482 C36.61419512 313.26806049 33.18726516 313.28081477 29.75488281 313.30589294 C28.16080093 313.26128433 28.16080093 313.26128433 26.53451538 313.21577454 C23.4622419 313.27492867 21.11441071 313.42731351 18.23144531 314.50120544 C16.12810133 316.86744251 14.81250342 319.13496898 13.45620728 321.98951721 C9.23661463 330.64287313 -0.48640447 336.1253254 -9.20605469 339.37620544 C-21.90057162 342.73061103 -35.51692699 341.50033059 -46.99511719 335.29808044 C-48.994305 334.11504046 -50.88114141 332.85413001 -52.76855469 331.50120544 C-54.28449219 330.41839294 -54.28449219 330.41839294 -55.83105469 329.31370544 C-65.05914607 321.21712391 -69.32673132 310.07550155 -70.70605469 298.12620544 C-71.11057478 290.30861947 -70.15684 281.69042698 -66.23026943 274.80294418 C-64.51388082 270.92594508 -64.35364764 267.63766378 -64.39674377 263.48197937 C-64.39291921 262.69169932 -64.38909465 261.90141927 -64.38515419 261.08719134 C-64.37589356 258.44799628 -64.38784523 255.80932919 -64.3996582 253.17015076 C-64.3971894 251.27418297 -64.39335019 249.37821655 -64.38824463 247.48225403 C-64.37991208 243.40294599 -64.38070974 239.32377758 -64.38842964 235.24446869 C-64.40002238 228.78902746 -64.38784112 222.33376543 -64.37181091 215.87834167 C-64.33563093 199.84195536 -64.32938437 183.8055732 -64.33190918 167.76914978 C-64.33362167 155.30952458 -64.32645788 142.85004594 -64.29193062 130.39046168 C-64.27516475 123.97878303 -64.27690761 117.56746216 -64.29275334 111.15578508 C-64.29856511 107.15859121 -64.28778327 103.16156563 -64.27250671 99.16440201 C-64.26879175 97.31738235 -64.27185581 95.47033404 -64.28237724 93.62334061 C-64.34011461 82.75972834 -64.26260561 73.29093422 -57.51855469 64.18870544 C-50.70891506 57.53383035 -43.44311272 54.22089962 -33.83886719 54.30589294 C-31.90527344 54.31556091 -31.90527344 54.31556091 -29.93261719 54.32542419 C-28.58626027 54.34213081 -27.2399061 54.35906065 -25.89355469 54.37620544 C-24.52376952 54.38624881 -23.15397727 54.39537227 -21.78417969 54.40354919 C-18.44545713 54.42706133 -15.10709708 54.45992615 -11.76855469 54.50120544 C-11.77521652 53.88368408 -11.78187836 53.26616272 -11.78874207 52.62992859 C-11.855082 46.20621443 -11.90034976 39.78259749 -11.93334961 33.35862732 C-11.94844151 30.96080066 -11.96891719 28.56300162 -11.99487305 26.16526794 C-12.0312378 22.71988611 -12.04827717 19.27486908 -12.06152344 15.82933044 C-12.07700729 14.75628662 -12.09249115 13.6832428 -12.10844421 12.5776825 C-12.10867081 11.57694702 -12.1088974 10.57621155 -12.10913086 9.54515076 C-12.11579269 8.66578857 -12.12245453 7.78642639 -12.12931824 6.88041687 C-11.04114388 -0.29602007 -6.23311679 -0.07018609 0 0 Z M2.23144531 13.50120544 C2.23144531 27.03120544 2.23144531 40.56120544 2.23144531 54.50120544 C11.12984375 53.8650531 11.12984375 53.8650531 20.20800781 53.21604919 C39.45867858 52.99653498 39.45867858 52.99653498 46.57262897 59.34619427 C49.22425198 62.08860277 51.55287723 65.001168 53.81738281 68.06761169 C54.28922312 68.69487089 54.76106342 69.32213009 55.24720192 69.96839714 C57.21066722 72.59324792 59.14939825 75.23454321 61.06375599 77.89542675 C72.83654283 94.20180774 86.97883279 110.9910498 107.66676426 114.72174835 C139.30673553 119.1422643 171.72467197 114.79480197 203.23144531 112.50120544 C203.23144531 79.83120544 203.23144531 47.16120544 203.23144531 13.50120544 C136.90144531 13.50120544 70.57144531 13.50120544 2.23144531 13.50120544 Z M-34.76855469 287.50120544 C-37.09477281 291.28716446 -36.97208835 294.01312846 -36.37792969 298.31370544 C-35.21607993 302.48444817 -32.2503913 304.37705353 -28.95605469 306.87620544 C-25.45867913 307.87545561 -22.21462631 307.45349959 -18.76855469 306.50120544 C-15.36201285 304.35360298 -12.99026944 302.38847967 -11.76855469 298.50120544 C-11.31255686 293.48522934 -11.63868346 290.49448943 -14.76855469 286.50120544 C-17.71201696 283.29802592 -19.9436372 282.19659961 -24.20605469 281.93870544 C-29.24936682 282.16565449 -31.36993237 283.85390345 -34.76855469 287.50120544 Z " fill="#21267D" transform="translate(156.7685546875,5.4987945556640625)"/>
<path d="M0 0 C0.84615623 -0.04137463 1.69231247 -0.08274925 2.5641098 -0.12537766 C25.70993122 -1.13347643 42.73347657 1.77585972 60.17107391 17.72068596 C72.65565654 29.51173378 83.78181296 42.83983759 94.18289185 56.47923279 C95.81048991 58.76211985 95.81048991 58.76211985 98 59.6875 C99.94801596 59.78689092 101.8994769 59.82094782 103.85002136 59.82553101 C105.09636353 59.83098434 106.34270569 59.83643768 107.6268158 59.84205627 C109.01577754 59.84317613 110.40473933 59.84422664 111.79370117 59.84521484 C113.25060174 59.84988209 114.70750085 59.85502551 116.16439819 59.86061096 C119.30682934 59.87190215 122.44925094 59.88033151 125.59169579 59.88673019 C130.56314509 59.89740254 135.53452615 59.91764647 140.50593567 59.93984985 C154.64463161 60.00179615 168.78332414 60.05575527 182.92211914 60.08886719 C190.72708218 60.10722619 198.53193148 60.13618033 206.33681089 60.1768719 C210.46684539 60.19792463 214.59673664 60.21339666 218.72682762 60.21567917 C222.61502065 60.2178304 226.5029157 60.23374798 230.39101791 60.26006889 C231.81517581 60.26724594 233.23936988 60.26937059 234.66354179 60.26596642 C250.0610701 60.23505149 250.0610701 60.23505149 255.9609375 65.40625 C256.42757813 65.9940625 256.89421875 66.581875 257.375 67.1875 C258.09816406 68.06921875 258.09816406 68.06921875 258.8359375 68.96875 C261.20084395 72.46055818 261.12933253 75.60891757 261.14044189 79.69573975 C261.14615204 80.95187073 261.15186218 82.20800171 261.15774536 83.50219727 C261.15899071 84.89697256 261.16011581 86.29174796 261.16113281 87.68652344 C261.16576148 89.15342331 261.17078621 90.62032197 261.17617798 92.08721924 C261.1893006 96.07498727 261.19574684 100.06273846 261.20018864 104.05052471 C261.20312002 106.54263981 261.20722499 109.03475031 261.21169281 111.5268631 C261.22536834 119.32606985 261.23503432 127.1252661 261.2388947 134.92448401 C261.24337358 143.92363076 261.2609133 152.92262547 261.2898953 161.92172599 C261.31152505 168.87980324 261.3215997 175.83783776 261.32293582 182.79594827 C261.32398306 186.95059061 261.32987348 191.10509005 261.34775543 195.25969696 C261.3642582 199.17001043 261.36638101 203.08007393 261.35761642 206.99040985 C261.35684718 208.42265493 261.36117387 209.85491357 261.37107468 211.28712463 C261.4716518 226.74766106 261.4716518 226.74766106 256.46484375 232.4296875 C251.78200047 235.90289607 249.70973052 236.81231182 243.8984375 236.78515625 C242.68671875 236.78193359 241.475 236.77871094 240.2265625 236.77539062 C238.95554687 236.76701172 237.68453125 236.75863281 236.375 236.75 C235.09625 236.74548828 233.8175 236.74097656 232.5 236.73632812 C229.33328708 236.72451203 226.16666644 236.70803815 223 236.6875 C222.99191315 235.89014435 222.98382629 235.0927887 222.97549438 234.27127075 C222.89763797 226.76651354 222.81037493 219.26195328 222.71247292 211.75743294 C222.66247105 207.89903502 222.61614164 204.040665 222.578125 200.18212891 C222.54132093 196.4602441 222.49497485 192.73859056 222.44193649 189.01690292 C222.42336646 187.59514283 222.40826817 186.17333312 222.39665604 184.75149918 C222.37983885 182.76408496 222.34966773 180.77679717 222.31884766 178.78955078 C222.29886215 177.09078293 222.29886215 177.09078293 222.2784729 175.35769653 C222.2674951 172.53503067 222.2674951 172.53503067 220 170.6875 C217.96939341 170.31855418 217.96939341 170.31855418 215.6484375 170.2734375 C214.37226562 170.21542969 214.37226562 170.21542969 213.0703125 170.15625 C212.18085938 170.1253125 211.29140625 170.094375 210.375 170.0625 C209.02921875 170.00449219 209.02921875 170.00449219 207.65625 169.9453125 C205.4377073 169.85090643 203.21917597 169.76533252 201 169.6875 C200.97812622 168.28226074 200.97812622 168.28226074 200.95581055 166.84863281 C200.89411907 163.31456118 200.81985736 159.78118803 200.73754883 156.24755859 C200.70465054 154.72910222 200.6765141 153.21053384 200.65356445 151.69189453 C200.37489289 133.72647244 197.09885505 119.36089471 184.3515625 105.91015625 C173.1292407 95.30301156 158.81750524 91.13761331 143.6328125 91.3671875 C129.64106895 92.60086811 116.19296037 99.40723167 106.984375 110.0078125 C97.00387893 123.50317892 93.14090954 140.055637 95 156.6875 C96.09768196 158.94453885 96.09768196 158.94453885 98 160.6875 C100.55238137 161.28662311 100.55238137 161.28662311 103.4375 161.18359375 C104.49710938 161.18423828 105.55671875 161.18488281 106.6484375 161.18554688 C108.30746094 161.15557617 108.30746094 161.15557617 110 161.125 C111.65902344 161.13563477 111.65902344 161.13563477 113.3515625 161.14648438 C118.87248917 161.38217178 118.87248917 161.38217178 123.81884766 159.43457031 C125.30594249 157.23497324 125.35525981 155.94324537 125.3359375 153.30078125 C125.34882813 152.44419922 125.36171875 151.58761719 125.375 150.70507812 C125.375 148.92120685 125.36736 147.13731695 125.3515625 145.35351562 C125.48720805 137.78562433 127.81302952 133.25305229 132.80859375 127.6640625 C137.42714448 123.83188372 141.19433106 122.01123103 147.25 121.3125 C153.89493413 121.97699341 159.86746585 123.95249959 164.4375 129 C168.87569639 134.47156749 170.38222128 140.00164687 170.29296875 146.93359375 C170.28872391 147.58957047 170.28447906 148.24554718 170.28010559 148.92140198 C170.26348779 150.98970911 170.22587238 153.05699401 170.1875 155.125 C170.17243111 156.53839725 170.15874659 157.95180998 170.14648438 159.36523438 C170.11364104 162.80631435 170.06198015 166.24680719 170 169.6875 C168.83933014 169.69558685 167.67866028 169.70367371 166.4828186 169.71200562 C155.56396265 169.78936829 144.64523283 169.87708223 133.72654152 169.97502708 C128.11264153 170.02505061 122.49876093 170.07137997 116.88476562 170.109375 C111.47063883 170.14615146 106.05667184 170.19249026 100.64268112 170.24556351 C98.57337614 170.2641482 96.50403685 170.27924095 94.43468094 170.29084396 C91.54433956 170.30763691 88.65436745 170.33665459 85.76416016 170.36865234 C84.90173203 170.37081253 84.03930389 170.37297272 83.15074158 170.37519836 C78.59895759 170.23983194 78.59895759 170.23983194 75 172.6875 C74.75393985 175.69636724 74.62619218 178.61967752 74.5859375 181.6328125 C74.56657135 182.5178244 74.5472052 183.4028363 74.5272522 184.31466675 C74.46737277 187.14717916 74.42103787 189.97973203 74.375 192.8125 C74.33682789 194.73048668 74.29777662 196.64845607 74.2578125 198.56640625 C74.16166445 203.27329748 74.07766458 207.98026896 74 212.6875 C66.7050218 212.9413535 59.41118326 213.11628545 52.11279297 213.23681641 C49.6312403 213.28706339 47.14998307 213.35527632 44.66943359 213.44189453 C41.09919469 213.56342849 37.53286932 213.61994907 33.9609375 213.6640625 C32.30123428 213.74148178 32.30123428 213.74148178 30.60800171 213.82046509 C27.43873483 213.82276541 24.99766354 213.7265531 22 212.6875 C19.22898885 209.66021134 17.64616647 206.41673978 16 202.6875 C10.75910551 194.73579801 0.86155587 189.47486333 -8.234375 187.10546875 C-22.51709387 184.94692225 -33.21588519 187.29034662 -46 193.6875 C-46.09345172 170.46973282 -46.16398338 147.25199667 -46.20724869 124.03407955 C-46.2278717 113.25353139 -46.25598742 102.4731001 -46.30175781 91.69262695 C-46.34163343 82.29608999 -46.36743471 72.89963767 -46.37635398 63.50301844 C-46.38156747 58.52779922 -46.39381582 53.55282217 -46.42292023 48.57768059 C-46.4501007 43.89340104 -46.45843964 39.20946307 -46.45243073 34.52511215 C-46.45352978 32.8074349 -46.46146803 31.08974605 -46.4768219 29.37213707 C-46.49679163 27.0226126 -46.49191462 24.67436938 -46.48101807 22.32481384 C-46.48470524 21.01125884 -46.48839241 19.69770384 -46.49219131 18.34434414 C-45.73987021 12.75480821 -43.6357799 9.03189228 -39.2109375 5.39526367 C-28.0595019 -0.11952034 -12.21552414 0.56028805 0 0 Z " fill="#49A4FD" transform="translate(152,69.3125)"/>
<path d="M0 0 C5.54481314 4.3087083 8.6219591 9.82512274 10.02734375 16.6796875 C10.9314921 25.7733334 9.09346329 32.42401717 3.28735352 39.53735352 C-0.92061787 44.49337716 -5.34227623 49.20967307 -10.01904297 53.72753906 C-11.84870019 55.55582438 -13.54317215 57.43587166 -15.2265625 59.3984375 C-18.92868445 63.66162089 -22.77424054 67.77183979 -26.66015625 71.8671875 C-33.00235736 78.57849592 -39.29649259 85.3302552 -45.54589844 92.12792969 C-49.476785 96.40320604 -53.41597756 100.67076107 -57.36035156 104.93359375 C-59.09689815 106.81423899 -60.82755318 108.70022397 -62.55859375 110.5859375 C-81.25934937 130.89487844 -81.25934937 130.89487844 -91.78289413 131.96562195 C-95.13808768 132.08318803 -98.48208756 132.10787851 -101.83935547 132.09960938 C-103.11193207 132.10807892 -104.38450867 132.11654846 -105.69564819 132.12527466 C-109.1668687 132.1473817 -112.63785107 132.15042683 -116.10913229 132.14852715 C-119.01644632 132.14840694 -121.9237108 132.15699133 -124.83101094 132.16530466 C-131.69515461 132.18449983 -138.55917669 132.18743679 -145.42333984 132.18066406 C-152.48308412 132.17402604 -159.54230557 132.19688646 -166.60194385 132.23397779 C-172.68292094 132.26475718 -178.76373055 132.27602595 -184.8447839 132.27214098 C-188.46802176 132.27008194 -192.09085253 132.27542041 -195.71401596 132.30003357 C-199.75874751 132.32660608 -203.80238724 132.31251052 -207.84716797 132.29492188 C-209.03294434 132.30818512 -210.2187207 132.32144836 -211.44042969 132.33511353 C-221.25158057 132.23629439 -228.13537004 129.10491056 -235.91015625 123.2421875 C-244.27701694 116.71900845 -244.27701694 116.71900845 -253.97265625 113.6796875 C-254.19179687 114.27136719 -254.4109375 114.86304688 -254.63671875 115.47265625 C-257.45316148 122.49086516 -260.2258031 125.69201837 -266.99536133 129.28320312 C-271.81543134 131.28197488 -276.6460976 131.14737822 -281.796875 131.1484375 C-282.82069778 131.15605103 -283.84452057 131.16366455 -284.89936829 131.17150879 C-287.05341155 131.18227228 -289.20750684 131.18517823 -291.36157227 131.18066406 C-294.66054351 131.17968739 -297.95722086 131.22144352 -301.25585938 131.265625 C-303.35285974 131.27082915 -305.44986818 131.27352024 -307.546875 131.2734375 C-309.02506966 131.2980304 -309.02506966 131.2980304 -310.53312683 131.32312012 C-311.45120621 131.3138147 -312.36928558 131.30450928 -313.31518555 131.29492188 C-314.12013962 131.29697632 -314.92509369 131.29903076 -315.75444031 131.30114746 C-317.97265625 130.6796875 -317.97265625 130.6796875 -320.23338318 128.85548401 C-322.85702769 124.06488429 -322.5140331 119.63036372 -322.45849609 114.25170898 C-322.46229279 113.09672913 -322.46608948 111.94174927 -322.47000122 110.75177002 C-322.47740993 106.93449744 -322.45601965 103.11798617 -322.43359375 99.30078125 C-322.43120958 96.64948907 -322.43020232 93.99822883 -322.43081665 91.34693909 C-322.42894538 85.79117366 -322.41160407 80.23562712 -322.38427734 74.67993164 C-322.35281283 68.25932609 -322.34228179 61.83896001 -322.34374845 55.41828293 C-322.34496969 49.23687577 -322.33475361 43.05554644 -322.31816483 36.87416267 C-322.31179276 34.24547865 -322.30785698 31.61678757 -322.30637741 28.98809624 C-322.3020498 25.3180321 -322.2845603 21.64827075 -322.26318359 17.97827148 C-322.26454315 16.34251915 -322.26454315 16.34251915 -322.26593018 14.67372131 C-322.25740021 13.67416412 -322.24887024 12.67460693 -322.24008179 11.64476013 C-322.2367301 10.77739448 -322.23337841 9.91002882 -322.22992516 9.01637936 C-321.9484417 6.45975438 -321.34333014 4.84670183 -319.97265625 2.6796875 C-317.60013096 1.49342486 -316.11399179 1.53431151 -313.46630859 1.50268555 C-312.5312851 1.48985031 -311.5962616 1.47701508 -310.63290405 1.46379089 C-309.61838165 1.45640396 -308.60385925 1.44901703 -307.55859375 1.44140625 C-306.51498688 1.4333345 -305.47138 1.42526276 -304.39614868 1.41694641 C-302.18192205 1.40309575 -299.96767398 1.392378 -297.75341797 1.38452148 C-294.38206835 1.36736264 -291.01171303 1.32349087 -287.640625 1.27929688 C-285.48828846 1.26916524 -283.33594357 1.26065061 -281.18359375 1.25390625 C-280.18121674 1.23639816 -279.17883972 1.21889008 -278.14608765 1.20085144 C-270.86083703 1.22319412 -265.52349132 2.66787862 -259.9140625 7.42578125 C-259.23150391 8.26302734 -259.23150391 8.26302734 -258.53515625 9.1171875 C-258.06207031 9.67277344 -257.58898437 10.22835938 -257.1015625 10.80078125 C-255.74467144 13.05913626 -255.35909089 15.09013125 -254.97265625 17.6796875 C-254.1528125 17.25816406 -253.33296875 16.83664062 -252.48828125 16.40234375 C-251.410625 15.85449219 -250.33296875 15.30664062 -249.22265625 14.7421875 C-248.1553125 14.19691406 -247.08796875 13.65164063 -245.98828125 13.08984375 C-241.52681019 11.00358591 -237.99921751 10.54906542 -233.07763672 10.50268555 C-231.88894989 10.48985031 -230.70026306 10.47701508 -229.47555542 10.46379089 C-227.55212814 10.45271049 -227.55212814 10.45271049 -225.58984375 10.44140625 C-224.93300724 10.43733072 -224.27617073 10.4332552 -223.59943008 10.42905617 C-220.11902435 10.40822718 -216.63865761 10.39391489 -213.15820312 10.38452148 C-209.58750447 10.37349613 -206.0174357 10.33913327 -202.44695854 10.29934978 C-199.68088739 10.27302574 -196.91496236 10.26481556 -194.14877701 10.26124001 C-192.20023927 10.25408219 -190.25180207 10.22770846 -188.30343628 10.20085144 C-177.29310023 10.22752541 -169.40862934 13.04456917 -160.72265625 19.6796875 C-159.5722545 20.53471582 -158.42121872 21.38889178 -157.26953125 22.2421875 C-156.72103516 22.65082031 -156.17253906 23.05945313 -155.60742188 23.48046875 C-150.34579246 27.34025425 -146.60117178 29.78918498 -140.01733398 29.83740234 C-138.5044706 29.85279556 -138.5044706 29.85279556 -136.96104431 29.86849976 C-135.87046219 29.87580109 -134.77988007 29.88310242 -133.65625 29.890625 C-131.34178999 29.91870941 -129.02733697 29.94737397 -126.71289062 29.9765625 C-123.06828118 30.01769749 -119.42379982 30.05458843 -115.77905273 30.08105469 C-112.25867794 30.10882885 -108.73889377 30.15471761 -105.21875 30.203125 C-104.14233749 30.20637787 -103.06592499 30.20963074 -101.95689392 30.21298218 C-93.65327468 30.34645414 -85.09507187 31.25624575 -78.47265625 36.7421875 C-77.5290625 37.50208984 -77.5290625 37.50208984 -76.56640625 38.27734375 C-75.3279599 39.36705512 -74.13910818 40.51323557 -72.97265625 41.6796875 C-71.78168874 40.51656079 -70.59512921 39.34892078 -69.41015625 38.1796875 C-68.41822266 37.20515625 -68.41822266 37.20515625 -67.40625 36.2109375 C-65.43361025 34.15913886 -63.55880175 32.0784425 -61.6953125 29.9296875 C-57.2586333 24.82110879 -52.59504885 19.9377211 -47.93359375 15.03515625 C-44.61910997 11.53511257 -41.383483 8.00906346 -38.265625 4.33203125 C-35.8286004 1.52444064 -33.64482649 -0.56289807 -30.28515625 -2.2578125 C-29.55941406 -2.63808594 -28.83367187 -3.01835937 -28.0859375 -3.41015625 C-18.33758071 -7.60861675 -8.58216322 -5.74410132 0 0 Z " fill="#22277D" transform="translate(410.97265625,374.3203125)"/>
<path d="M0 0 C4.40617281 2.16303029 7.1644597 4.41114924 9 9 C9.69511974 13.63413158 9.70752375 16.77865969 7.31640625 20.90625 C4.8887643 24.14856438 2.28197977 27.1276342 -0.5 30.0625 C-1.5756455 31.21212296 -2.65116282 32.36186585 -3.7265625 33.51171875 C-4.54495605 34.38256104 -4.54495605 34.38256104 -5.37988281 35.27099609 C-7.89589696 37.95610944 -10.38393868 40.66676282 -12.875 43.375 C-17.82393354 48.74204996 -22.80350167 54.08010458 -27.78857422 59.41357422 C-31.54000059 63.42934553 -35.27670869 67.45813831 -39 71.5 C-43.89954298 76.81875521 -48.82706286 82.11077599 -53.76928711 87.38989258 C-56.65689413 90.47719801 -59.53188935 93.57440353 -62.37890625 96.69921875 C-63.18424805 97.5809375 -63.18424805 97.5809375 -64.00585938 98.48046875 C-65.00897629 99.58049909 -66.00920814 100.68317073 -67.00585938 101.7890625 C-72.13208451 107.40384679 -76.59714678 111.57927724 -84.46405792 112.19187737 C-87.55139104 112.28189797 -90.63302033 112.3045361 -93.72167969 112.30639648 C-95.48380295 112.31888176 -95.48380295 112.31888176 -97.28152466 112.33161926 C-101.16167526 112.35569678 -105.04165764 112.36448903 -108.921875 112.37109375 C-110.26327862 112.3752559 -111.60468136 112.37970853 -112.94608307 112.3844471 C-119.973181 112.40891545 -127.00020541 112.42198744 -134.02734375 112.42553711 C-140.55649492 112.42916852 -147.08517493 112.45904171 -153.61418223 112.50094169 C-159.23650983 112.53574581 -164.85868205 112.5510873 -170.48111653 112.55178314 C-173.83177533 112.55257268 -177.18157334 112.56356058 -180.53218842 112.58978081 C-184.27545271 112.61674077 -188.01742924 112.61185411 -191.76074219 112.59936523 C-192.85615326 112.61419952 -193.95156433 112.62903381 -195.08016968 112.64431763 C-204.57773731 112.55442753 -210.92010051 109.27463393 -218.5 103.8125 C-225.96756599 98.63611903 -234.05721141 94.41266033 -242 90 C-242 68.22 -242 46.44 -242 24 C-224.74169617 14.79557129 -224.74169617 14.79557129 -212.62109375 15.11328125 C-211.32478531 15.11748581 -210.02847687 15.12169037 -208.69288635 15.12602234 C-205.98206903 15.13665725 -203.27343223 15.17318776 -200.56323242 15.23168945 C-197.10334792 15.30590682 -193.64529934 15.33098449 -190.18469143 15.33910847 C-186.85072236 15.34977296 -183.51736833 15.38764991 -180.18359375 15.42578125 C-178.33198891 15.44020012 -178.33198891 15.44020012 -176.44297791 15.45491028 C-168.27410748 15.63634555 -163.31345425 17.03529017 -156.79296875 22.03125 C-156.04080078 22.59457031 -155.28863281 23.15789062 -154.51367188 23.73828125 C-152.97032754 24.9071281 -151.43120278 26.08156871 -149.89648438 27.26171875 C-149.14044922 27.82503906 -148.38441406 28.38835937 -147.60546875 28.96875 C-146.93668701 29.47857422 -146.26790527 29.98839844 -145.57885742 30.51367188 C-137.8870816 34.94683775 -130.54412459 35.42054938 -121.80859375 35.37109375 C-119.45898286 35.38846826 -117.10937352 35.40605272 -114.75976562 35.42382812 C-111.0908734 35.43390817 -107.42207935 35.43749285 -103.75317383 35.43579102 C-100.18802146 35.43936833 -96.62361317 35.46672755 -93.05859375 35.49609375 C-91.96880722 35.48791122 -90.87902069 35.4797287 -89.75621033 35.47129822 C-83.32602454 35.53386131 -78.34003866 36.23345779 -73 40 C-69.45288298 43.63579495 -68.71421773 46.56629785 -68.5 51.5 C-68.70030251 56.4207651 -69.57082928 59.30010527 -73 63 C-78.11572741 66.86289621 -81.67665533 68.11670611 -88.01611328 68.18945312 C-89.87286179 68.21452942 -89.87286179 68.21452942 -91.76712036 68.2401123 C-92.75793798 68.25013527 -92.75793798 68.25013527 -93.76877213 68.26036072 C-95.83607303 68.28141048 -97.90321923 68.30842852 -99.97042847 68.33703613 C-105.10199278 68.4068212 -110.23366659 68.46636519 -115.36535645 68.52606201 C-119.70585699 68.57691892 -124.04627222 68.63170458 -128.3866539 68.69187927 C-130.42800136 68.71852405 -132.46935653 68.73929159 -134.51077271 68.7598877 C-135.74230072 68.77660522 -136.97382874 68.79332275 -138.24267578 68.81054688 C-139.3328299 68.82307495 -140.42298401 68.83560303 -141.5461731 68.84851074 C-143.94551753 68.7247868 -143.94551753 68.7247868 -145 70 C-145.33338596 73.45812169 -145.33338596 73.45812169 -145 77 C-141.56740278 79.28839815 -140.27584822 79.26101018 -136.234375 79.29052734 C-135.04884033 79.30328705 -133.86330566 79.31604675 -132.6418457 79.32919312 C-131.35753662 79.33141876 -130.07322754 79.33364441 -128.75 79.3359375 C-127.41300312 79.34236981 -126.07600764 79.34909849 -124.73901367 79.35610962 C-121.93128202 79.36809186 -119.12367339 79.37179007 -116.31591797 79.37060547 C-112.74636128 79.37040355 -109.17761226 79.39756681 -105.60824585 79.43214989 C-102.84210722 79.45458678 -100.07615675 79.45843775 -97.30993652 79.45738602 C-95.36313964 79.46084746 -93.41640152 79.48242521 -91.46972656 79.50448608 C-80.8235257 79.45038018 -71.5309217 77.560775 -63.65625 69.9765625 C-59.61848292 65.1579065 -57.90894016 60.49265758 -58 54.25 C-57.51892635 47.0115198 -51.55737859 42.47541253 -46.67724609 37.67333984 C-44.02853164 35.03079416 -41.52040979 32.26418576 -39 29.5 C-38.00988824 28.42506812 -37.01899895 27.35085192 -36.02734375 26.27734375 C-35.28653564 25.47466064 -35.28653564 25.47466064 -34.53076172 24.65576172 C-32.94096961 22.93614927 -31.3477666 21.21974814 -29.75390625 19.50390625 C-29.21958984 18.92769531 -28.68527344 18.35148437 -28.13476562 17.7578125 C-27.12296916 16.66683197 -26.11003824 15.57690189 -25.09570312 14.48828125 C-22.76259678 11.97021376 -20.49980755 9.4222673 -18.3203125 6.76953125 C-13.02398151 0.44781632 -8.03468069 -1.29338762 0 0 Z " fill="#E5F1FD" transform="translate(399,382)"/>
<path d="M0 0 C41.25 0 82.5 0 125 0 C125.061875 16.54125 125.12375 33.0825 125.1875 50.125 C125.21481201 55.34328613 125.24212402 60.56157227 125.27026367 65.93798828 C125.28381348 72.32202148 125.28381348 72.32202148 125.28633118 75.31295776 C125.29093063 77.39688031 125.30146679 79.480795 125.31672668 81.56466675 C125.33871255 84.72570618 125.34171713 87.88625874 125.34057617 91.04736328 C125.3513705 91.97197924 125.36216482 92.89659519 125.37328625 93.84922981 C125.34846137 98.99332118 124.86775013 102.54517946 122 107 C118.47450356 110.19498115 115.3478116 111.12116638 110.65544128 111.14717102 C109.32441124 111.15790398 109.32441124 111.15790398 107.9664917 111.16885376 C106.51004242 111.17288712 106.51004242 111.17288712 105.02416992 111.17700195 C103.99949112 111.18357315 102.97481232 111.19014435 101.91908264 111.19691467 C98.52287729 111.21665064 95.12671615 111.22831029 91.73046875 111.23828125 C89.99165153 111.24439454 89.99165153 111.24439454 88.21770668 111.25063133 C82.08353478 111.27149221 75.94938526 111.28579452 69.81518555 111.29516602 C63.47643331 111.30623727 57.13803146 111.34064579 50.79940319 111.38033772 C45.92750897 111.40646754 41.05569875 111.41485459 36.18374062 111.41844749 C33.84695377 111.42332194 31.51017088 111.43496018 29.17345238 111.45348549 C25.90335581 111.47780137 22.63417274 111.47692546 19.36401367 111.4699707 C18.39912018 111.48278076 17.43422668 111.49559082 16.44009399 111.50878906 C10.63598317 111.46379899 7.45090978 110.80606413 3 107 C-0.39783843 102.89891401 -0.40008168 98.97302865 -0.29296875 93.85546875 C-0.28872391 93.08568192 -0.28447906 92.31589508 -0.28010559 91.52278137 C-0.26338597 89.07732354 -0.2257477 86.63270643 -0.1875 84.1875 C-0.17244441 82.52410049 -0.15875754 80.86068799 -0.14648438 79.19726562 C-0.11350465 75.13118918 -0.06177006 71.06573687 0 67 C2.31243792 66.97314588 4.6249627 66.95367159 6.9375 66.9375 C8.22527344 66.92589844 9.51304687 66.91429687 10.83984375 66.90234375 C14 67 14 67 15 68 C15.13101137 69.43530239 15.23007469 70.87358964 15.3125 72.3125 C15.64189853 75.65430118 15.82237065 76.77080084 17.9375 79.5 C22.20863989 82.60628356 25.81062118 82.18351021 30.9375 82.1875 C31.76185547 82.19974609 32.58621094 82.21199219 33.43554688 82.22460938 C34.22896484 82.22654297 35.02238281 82.22847656 35.83984375 82.23046875 C36.56550537 82.23457764 37.29116699 82.23868652 38.03881836 82.24291992 C40.32232248 82.10882834 40.32232248 82.10882834 43 80 C44.07136051 77.69855891 45.07989717 75.3659787 46 73 C48.375 72.875 48.375 72.875 51 73 C53 75 53 75 54 78.0625 C54.65752556 81.12150806 54.65752556 81.12150806 57 82 C59.95032632 82.15144814 62.86124618 82.23142405 65.8125 82.25 C66.62009766 82.270625 67.42769531 82.29125 68.25976562 82.3125 C72.97213021 82.34337544 76.24576202 82.17501269 80 79 C82.04560148 76.03356885 82.20978208 73.54647122 82.3125 70 C82.69100866 65.29272864 82.69100866 65.29272864 85.375 62.75 C86.24125 62.1725 87.1075 61.595 88 61 C91.92773296 55.5824373 91.79491548 49.42998297 91 43 C88.76017338 38.35443368 85.35000456 34.18149384 80.31964111 32.40736389 C77.01531912 31.82707522 73.73038718 31.82160167 70.38574219 31.79467773 C69.24369827 31.77982834 69.24369827 31.77982834 68.07858276 31.76467896 C65.56804488 31.73315224 63.05748809 31.70834153 60.546875 31.68359375 C58.80380773 31.66301659 57.06074536 31.64201992 55.31768799 31.62062073 C50.73433408 31.56547871 46.15093572 31.51603477 41.56750488 31.46777344 C36.88871311 31.4175009 32.20998572 31.36184488 27.53125 31.30664062 C18.35421968 31.19915531 9.17713453 31.09818663 0 31 C0 20.77 0 10.54 0 0 Z " fill="#49A4FD" transform="translate(238,251)"/>
<path d="M0 0 C0.69480469 0.391875 1.38960937 0.78375 2.10546875 1.1875 C2.74871094 1.538125 3.39195312 1.88875 4.0546875 2.25 C10.87987214 6.51388976 14.93854592 13.97395356 18.10546875 21.1875 C18.10546875 21.8475 18.10546875 22.5075 18.10546875 23.1875 C18.87060948 23.18988835 19.63575022 23.19227671 20.42407703 23.19473743 C39.02667485 23.25382857 57.62913931 23.32934068 76.23159504 23.42321491 C85.2275456 23.46821393 94.22345621 23.50761904 103.21948242 23.53393555 C111.05882789 23.55688246 118.89804735 23.59024322 126.73729295 23.63620156 C130.88957647 23.6601786 135.04173486 23.67887791 139.19408607 23.68511391 C143.10031385 23.69114463 147.00622125 23.71107082 150.91233063 23.74177551 C152.34783647 23.7505882 153.78338413 23.75427166 155.21891594 23.75250816 C157.17534361 23.75086323 159.13175782 23.76927177 161.08808899 23.78877258 C162.18410085 23.79338155 163.28011271 23.79799051 164.40933704 23.80273914 C167.10546875 24.1875 167.10546875 24.1875 168.95811749 25.52492046 C170.74991192 28.1213361 170.48809575 30.12648396 170.10546875 33.1875 C168.49708592 35.47309666 167.09908535 36.19039978 164.54296875 37.3515625 C161.78924001 39.01377194 161.78924001 39.01377194 161.3984375 42.32421875 C161.36363281 43.49597656 161.32882812 44.66773438 161.29296875 45.875 C161.24527344 47.05449219 161.19757813 48.23398437 161.1484375 49.44921875 C161.13425781 50.35285156 161.12007812 51.25648438 161.10546875 52.1875 C155.85347936 52.71269894 155.85347936 52.71269894 153.10546875 52.1875 C150.98046875 49.375 150.98046875 49.375 149.10546875 46.1875 C144.35756032 42.87500575 139.72670776 42.30765389 134.10546875 43.1875 C130.23632205 44.57413061 127.61996074 46.24426468 125.60546875 49.9375 C124.86296875 51.05125 124.86296875 51.05125 124.10546875 52.1875 C120.41796875 52.5 120.41796875 52.5 117.10546875 52.1875 C117.06679688 51.06601562 117.06679688 51.06601562 117.02734375 49.921875 C116.970625 48.93703125 116.91390625 47.9521875 116.85546875 46.9375 C116.8090625 45.96296875 116.76265625 44.9884375 116.71484375 43.984375 C115.93005837 40.38241133 115.07046707 39.38314843 112.10546875 37.1875 C109.06945348 36.79298204 106.39679185 36.64031891 103.36132812 36.66992188 C102.03872734 36.65940796 102.03872734 36.65940796 100.68940735 36.64868164 C97.7756905 36.63108079 94.86294542 36.6427318 91.94921875 36.65625 C89.92427382 36.65355569 87.89933015 36.64967378 85.87438965 36.64465332 C81.63081543 36.63875544 77.38757803 36.64733069 73.14404297 36.66601562 C67.70293112 36.6888052 62.26260846 36.67568369 56.82152557 36.65172577 C52.64021858 36.63727572 48.45909887 36.64187017 44.27778625 36.65223694 C42.27150886 36.65490641 40.26521449 36.65162673 38.25895691 36.64231873 C35.45538251 36.6321663 32.65308835 36.64763583 29.84960938 36.66992188 C29.01935745 36.66182495 28.18910553 36.65372803 27.33369446 36.64538574 C23.6991022 36.69894639 21.56569439 36.83606777 18.63195801 39.07629395 C17.02393027 41.30027154 15.97023331 43.4056144 14.91796875 45.9375 C10.96387519 54.13589582 4.47689825 59.11313064 -3.8515625 62.49609375 C-12.72523524 65.49922965 -21.26070123 64.6889146 -29.89453125 61.1875 C-38.41000988 56.36741776 -44.47282231 49.31205718 -47.89453125 40.1875 C-50.11127769 30.73553947 -49.49743848 21.81951031 -44.89453125 13.1875 C-34.63005167 -1.82945533 -16.8360253 -8.12190165 0 0 Z M-25.89453125 23.1875 C-28.22074937 26.97345902 -28.09806491 29.69942302 -27.50390625 34 C-26.34205649 38.17074273 -23.37636786 40.06334809 -20.08203125 42.5625 C-16.58465569 43.56175016 -13.34060287 43.13979415 -9.89453125 42.1875 C-6.48798941 40.03989754 -4.11624601 38.07477423 -2.89453125 34.1875 C-2.43853342 29.17152389 -2.76466002 26.18078398 -5.89453125 22.1875 C-8.83799352 18.98432047 -11.06961376 17.88289417 -15.33203125 17.625 C-20.37534338 17.85194905 -22.49590894 19.54019801 -25.89453125 23.1875 Z " fill="#E3EFFC" transform="translate(147.89453125,269.8125)"/>
<path d="M0 0 C35 0 35 0 40 3 C42.61135022 6.91702534 42.3028452 10.25164565 42.30639648 14.79833984 C42.31472 15.69782852 42.32304352 16.5973172 42.33161926 17.52406311 C42.35575126 20.50306503 42.36449521 23.48184814 42.37109375 26.4609375 C42.3800575 28.52975532 42.3891793 30.59857246 42.39845276 32.66738892 C42.41495392 37.00679094 42.42264495 41.34611571 42.42553711 45.68554688 C42.43092265 51.24657378 42.46860528 56.80687489 42.51428127 62.36769676 C42.54402043 66.64165907 42.55125998 70.91544593 42.55226326 75.18950272 C42.55647165 77.23964386 42.56893064 79.28978524 42.58978081 81.33982468 C42.61663029 84.20805005 42.61188897 87.07458432 42.59936523 89.94287109 C42.61419952 90.78980026 42.62903381 91.63672943 42.64431763 92.50932312 C42.62967216 93.68690437 42.62967216 93.68690437 42.61473083 94.88827515 C42.61674216 95.56558371 42.61875349 96.24289227 42.62082577 96.94072533 C42 99 42 99 37 104 C24.79 104 12.58 104 0 104 C0 69.68 0 35.36 0 0 Z " fill="#49A4FD" transform="translate(102,388)"/>
<path d="M0 0 C0.60714844 0.29390625 1.21429688 0.5878125 1.83984375 0.890625 C7.94127491 4.46870717 10.70594075 10.51502687 13 17 C14.51705645 24.9674415 12.02578285 31.34636437 7.71484375 37.9765625 C4.0414194 42.78578101 -0.13196161 45.51109474 -6 47 C-14.59935842 48.14227067 -21.95286383 47.30128146 -29 42 C-34.67680106 36.14616772 -37.28473751 30.37430811 -37.375 22.1875 C-37.23784348 14.88772546 -36.18489471 10.41288067 -31.19921875 5.0703125 C-21.99556444 -3.54359309 -11.36747581 -5.79053048 0 0 Z M-23 15 C-25.32621812 18.78595902 -25.20353366 21.51192302 -24.609375 25.8125 C-23.44752524 29.98324273 -20.48183661 31.87584809 -17.1875 34.375 C-13.69012444 35.37425016 -10.44607162 34.95229415 -7 34 C-3.59345816 31.85239754 -1.22171476 29.88727423 0 26 C0.45599783 20.98402389 0.12987123 17.99328398 -3 14 C-5.94346227 10.79682047 -8.17508251 9.69539417 -12.4375 9.4375 C-17.48081213 9.66444905 -19.60137769 11.35269801 -23 15 Z " fill="#22267C" transform="translate(145,278)"/>
<path d="M0 0 C8.68665016 6.35958424 16.12211659 15.51750421 18.1875 26.3125 C18.27066178 28.93147019 18.30384452 31.52251753 18.28515625 34.140625 C18.2837413 34.88963074 18.28232635 35.63863647 18.28086853 36.41033936 C18.27528659 38.79443412 18.26273745 41.17843378 18.25 43.5625 C18.24498266 45.18229031 18.24042016 46.80208209 18.23632812 48.421875 C18.22532308 52.38545312 18.20807091 56.34896045 18.1875 60.3125 C15.8775 60.3125 13.5675 60.3125 11.1875 60.3125 C11.17291748 59.4560791 11.15833496 58.5996582 11.14331055 57.71728516 C11.0816919 54.49264861 11.00744004 51.26860122 10.92504883 48.04443359 C10.89211081 46.65782345 10.8639856 45.27108923 10.84106445 43.88427734 C10.6317808 31.54990044 9.40560479 20.99613589 1.1875 11.3125 C-6.00595339 4.49137856 -15.27172376 0.85141328 -25.19140625 1.046875 C-35.43939837 2.08541966 -43.18587382 6.49647938 -49.8125 14.3125 C-53.80114778 20.67227941 -55.8563944 26.51726201 -56.375 34 C-56.45878906 35.17949219 -56.54257812 36.35898438 -56.62890625 37.57421875 C-56.68949219 38.47785156 -56.75007813 39.38148438 -56.8125 40.3125 C-59.4525 40.3125 -62.0925 40.3125 -64.8125 40.3125 C-65.560442 27.54208289 -61.87876489 17.55002128 -54.625 7.1875 C-40.37822938 -8.74056654 -17.91277023 -11.04928611 0 0 Z " fill="#E0ECFA" transform="translate(322.8125,178.6875)"/>
<path d="M0 0 C14.66237942 0 14.66237942 0 20 4 C23.95419965 8.25836886 25.12782076 10.71405624 25.09765625 16.4453125 C25.09515869 17.41484863 25.09266113 18.38438477 25.09008789 19.38330078 C25.08098389 20.61806152 25.07187988 21.85282227 25.0625 23.125 C25.041875 27.04375 25.02125 30.9625 25 35 C16.75 35 8.5 35 0 35 C0 23.45 0 11.9 0 0 Z " fill="#E5F1FD" transform="translate(373,83)"/>
</svg>
