<?xml version="1.0" encoding="UTF-8"?>
<svg version="1.1" xmlns="http://www.w3.org/2000/svg" width="512" height="512">
<path d="M0 0 C1.65422017 1.53266405 3.29986018 3.07463253 4.9375 4.625 C5.82179688 5.44484375 6.70609375 6.2646875 7.6171875 7.109375 C23.16320757 21.99479932 35.62065463 41.36983049 42.9375 61.625 C42.9375 62.285 42.9375 62.945 42.9375 63.625 C43.48535156 63.65078125 44.03320312 63.6765625 44.59765625 63.703125 C63.89593887 65.08381514 83.14834184 73.20881859 97.9375 85.625 C99.20787109 86.68847656 99.20787109 86.68847656 100.50390625 87.7734375 C121.52744983 106.06873496 134.79735544 129.80390617 137.9375 157.625 C139.78587039 188.94140048 131.89806189 216.83088067 110.9375 240.625 C94.39523051 259.04707284 71.62600869 271.57310146 46.9375 274.625 C42.20404418 274.83881763 37.48696093 274.810413 32.75 274.74609375 C31.51185547 274.73735229 30.27371094 274.72861084 28.99804688 274.71960449 C25.97766779 274.69700996 22.95768578 274.66530461 19.9375 274.625 C19.94638245 275.49815353 19.95526489 276.37130707 19.9644165 277.2709198 C20.04499791 285.55200481 20.10568381 293.83295568 20.14474869 302.1143446 C20.16550844 306.37059114 20.19360982 310.62651021 20.23925781 314.88256836 C20.28313508 318.99990815 20.30672409 323.11693556 20.31700897 327.23449135 C20.32432606 328.79517844 20.33861157 330.35585096 20.36042023 331.91640282 C20.53581906 345.00332481 19.39572425 357.72539195 9.9375 367.625 C2.92856187 374.80585548 -4.90785707 380.31991428 -15.21015263 380.75922108 C-16.4605656 380.76349456 -17.71097857 380.76776804 -18.99928284 380.77217102 C-19.69731032 380.77584771 -20.3953378 380.7795244 -21.11451763 380.7833125 C-23.45338707 380.79432486 -25.79221205 380.79818905 -28.13110352 380.80200195 C-29.80840699 380.80826859 -31.48570907 380.81491557 -33.16300964 380.82191467 C-38.67246538 380.84293844 -44.18192133 380.85331735 -49.69140625 380.86328125 C-51.59060111 380.86732982 -53.48979583 380.87144677 -55.3889904 380.87563133 C-64.31480439 380.89468145 -73.24061014 380.90891133 -82.16644055 380.9172433 C-92.45544987 380.92700721 -102.74424357 380.95330537 -113.03317696 380.99374419 C-120.99429965 381.02395532 -128.95536073 381.03871702 -136.91653961 381.04202431 C-141.66713434 381.04436962 -146.41749868 381.0532619 -151.16803169 381.07848549 C-155.64227978 381.10185799 -160.11614731 381.10596276 -164.59044075 381.09572411 C-166.22580739 381.09523081 -167.86119335 381.10148981 -169.49650192 381.11528015 C-182.36123924 381.21762952 -193.24638547 379.65083413 -203.0625 370.625 C-212.58257062 361.22197943 -216.10633581 351.42380452 -216.28955078 338.08569336 C-216.29675225 335.12853691 -216.27848626 332.17191708 -216.2578125 329.21484375 C-216.25407592 327.63587118 -216.251232 326.05689627 -216.24923706 324.47792053 C-216.2416513 320.34991905 -216.22204711 316.22206141 -216.1998291 312.09411621 C-216.17926088 307.87070663 -216.17021201 303.6472735 -216.16015625 299.42382812 C-216.13879574 291.15748655 -216.10472194 282.89126124 -216.0625 274.625 C-217.6556604 274.6861499 -217.6556604 274.6861499 -219.28100586 274.74853516 C-223.30827457 274.89958179 -227.33598153 275.03317637 -231.36401367 275.16210938 C-233.09106085 275.21969361 -234.81796741 275.28170477 -236.54467773 275.34863281 C-262.34798296 276.34020087 -286.69466328 272.98226231 -307.0625 255.625 C-308.15304687 254.76841797 -308.15304687 254.76841797 -309.265625 253.89453125 C-324.49345298 241.40877719 -334.2210466 221.89462651 -337.0625 202.625 C-338.816235 174.74424192 -333.26448523 152.09371767 -314.60546875 130.82421875 C-300.46334794 115.85386246 -281.62853719 106.56519219 -261.0625 104.625 C-261.03671875 103.96757812 -261.0109375 103.31015625 -260.984375 102.6328125 C-259.38732612 75.84594728 -249.14900579 48.08362275 -233.0625 26.625 C-232.6701416 26.08891113 -232.2777832 25.55282227 -231.87353516 25.00048828 C-218.33733878 6.57636668 -201.97067621 -8.09674421 -182.0625 -19.375 C-181.48757812 -19.70209961 -180.91265625 -20.02919922 -180.3203125 -20.36621094 C-163.68613338 -29.67299784 -144.9415292 -35.83148387 -126.0625 -38.375 C-125.18980469 -38.50390625 -124.31710938 -38.6328125 -123.41796875 -38.765625 C-78.49951298 -44.14169215 -33.76854775 -29.83950288 0 0 Z M-140.0625 114.625 C-151.4558257 129.45440805 -152.0625 144.42511708 -152.0625 162.625 C-116.4225 162.625 -80.7825 162.625 -44.0625 162.625 C-44.0625 140.6847855 -46.28407839 125.33644959 -61.3125 108.875 C-71.25597977 99.5361913 -84.5229559 94.68914767 -98.0625 94.125 C-114.69254183 94.81791841 -129.43195475 101.8683457 -140.0625 114.625 Z M-188.0625 192.625 C-190.54219528 196.848793 -191.43822365 199.93080856 -191.44345093 204.81091309 C-191.4519104 206.03054245 -191.46036987 207.25017181 -191.46908569 208.50675964 C-191.46325373 209.84500257 -191.45710929 211.18324417 -191.45068359 212.52148438 C-191.45475196 213.94119164 -191.46009533 215.36089574 -191.46661377 216.78059387 C-191.48026175 220.62563948 -191.47499923 224.47044293 -191.46547651 228.31549263 C-191.45786682 232.34457158 -191.46492916 236.37363017 -191.46963501 240.40270996 C-191.47508875 247.16808789 -191.46791098 253.93336748 -191.45361328 260.69873047 C-191.43728746 268.51387268 -191.44257624 276.32878008 -191.4590925 284.14391661 C-191.47271825 290.86086899 -191.47462171 297.5777508 -191.46677649 304.29471254 C-191.46210595 308.30338164 -191.46145804 312.31194046 -191.47138596 316.32060242 C-191.48006925 320.08981474 -191.47400909 323.8587251 -191.45670319 327.62790489 C-191.45274558 329.00895881 -191.45385996 330.39003826 -191.46049118 331.77108192 C-191.46872471 333.66040752 -191.45655529 335.54978883 -191.44345093 337.43908691 C-191.44231985 338.49504311 -191.44118877 339.5509993 -191.44002342 340.63895416 C-190.83407313 345.43175708 -188.90272264 349.44732664 -185.0625 352.4375 C-180.7328855 355.59451057 -177.82792454 355.7522881 -172.59196472 355.76544189 C-171.93209936 355.76841302 -171.272234 355.77138414 -170.59237272 355.7744453 C-168.37691733 355.78313049 -166.16151599 355.78464039 -163.94604492 355.78613281 C-162.35929753 355.79076112 -160.77255125 355.79578579 -159.18580627 355.80117798 C-154.87166948 355.81430286 -150.55754825 355.82074712 -146.24339461 355.82518864 C-143.54826571 355.82811924 -140.85314106 355.83222403 -138.1580143 355.83669281 C-129.72609546 355.85036802 -121.29418634 355.86003454 -112.86225718 355.8638947 C-103.12788886 355.86837556 -93.39366094 355.88592463 -83.65933532 355.9148953 C-76.13567351 355.93650969 -68.61205122 355.94659885 -61.0883587 355.94793582 C-56.59449227 355.94898403 -52.10075781 355.95489519 -47.60692406 355.97275543 C-43.3789791 355.98923192 -39.1512654 355.99139372 -34.92329979 355.98261642 C-33.37291851 355.98184582 -31.82252481 355.98619189 -30.27217484 355.99607468 C-28.15250376 356.00879245 -26.03365196 356.00291913 -23.91398621 355.99249268 C-22.72876971 355.99395924 -21.54355322 355.9954258 -20.32242107 355.9969368 C-16.00672732 355.50454288 -12.64004574 354.06390158 -9.41796875 351.125 C-5.82379468 346.50907076 -4.93902199 343.57924853 -4.90859985 337.81330872 C-4.89999939 336.60069366 -4.89139893 335.38807861 -4.88253784 334.13871765 C-4.87810273 332.79275556 -4.87380436 331.446793 -4.86962891 330.10083008 C-4.86172608 328.68481241 -4.85345701 327.26879675 -4.84484863 325.8527832 C-4.8186463 321.20005207 -4.80332137 316.54731202 -4.7890625 311.89453125 C-4.78370182 310.29151593 -4.77832431 308.68850067 -4.77293015 307.08548546 C-4.75130278 300.41571361 -4.73256739 293.74594416 -4.72130775 287.07614613 C-4.70507709 277.52518611 -4.67191947 267.97463345 -4.61490691 258.42382699 C-4.5761671 251.70437647 -4.55667022 244.9850347 -4.55138719 238.26547545 C-4.54773882 234.25431619 -4.5357733 230.24359158 -4.50328445 226.23255348 C-4.47313269 222.45589879 -4.46691676 218.67994011 -4.47866821 214.90319061 C-4.47888837 213.52133523 -4.47063122 212.13944688 -4.45301437 210.75770378 C-4.35791163 202.86530001 -4.54392621 196.66145769 -10.0625 190.625 C-15.12484446 186.70168305 -20.30370882 186.50048003 -26.53903198 186.49128723 C-27.84839722 186.48702225 -29.15776245 186.48275726 -30.50680542 186.47836304 C-31.9509888 186.47871252 -33.39517216 186.47917404 -34.83935547 186.47973633 C-36.36566246 186.47674299 -37.89196869 186.47334005 -39.41827393 186.46955872 C-43.55881572 186.46073254 -47.69933685 186.45838119 -51.83988714 186.45774293 C-54.42816348 186.45703167 -57.01643459 186.45489591 -59.60470963 186.45224571 C-68.63833194 186.44299704 -77.67193951 186.43891025 -86.70556641 186.43969727 C-95.11989375 186.44029801 -103.53415697 186.42974558 -111.94846809 186.4139536 C-119.17834552 186.40086916 -126.40820202 186.39551375 -133.63809121 186.39615268 C-137.95363439 186.39640739 -142.26912058 186.39357098 -146.58465195 186.38297462 C-150.64433307 186.37327838 -154.70390286 186.37322491 -158.76358795 186.38049126 C-160.25065651 186.38153518 -161.73773206 186.37918562 -163.22478867 186.3731308 C-165.26051186 186.36538104 -167.29627315 186.37126845 -169.33200073 186.37776184 C-170.46945173 186.37721707 -171.60690273 186.37667231 -172.77882195 186.37611103 C-178.89300554 186.8395404 -183.68473836 188.24723836 -188.0625 192.625 Z " fill="#77B8EB" transform="translate(354.0625,85.375)"/>
<path d="M0 0 C1.65422017 1.53266405 3.29986018 3.07463253 4.9375 4.625 C5.82179688 5.44484375 6.70609375 6.2646875 7.6171875 7.109375 C23.16320757 21.99479932 35.62065463 41.36983049 42.9375 61.625 C42.9375 62.285 42.9375 62.945 42.9375 63.625 C43.48535156 63.65078125 44.03320312 63.6765625 44.59765625 63.703125 C63.89593887 65.08381514 83.14834184 73.20881859 97.9375 85.625 C99.20787109 86.68847656 99.20787109 86.68847656 100.50390625 87.7734375 C121.52744983 106.06873496 134.79735544 129.80390617 137.9375 157.625 C139.78587039 188.94140048 131.89806189 216.83088067 110.9375 240.625 C94.39523051 259.04707284 71.62600869 271.57310146 46.9375 274.625 C42.20404418 274.83881763 37.48696093 274.810413 32.75 274.74609375 C31.51185547 274.73735229 30.27371094 274.72861084 28.99804688 274.71960449 C25.97766779 274.69700996 22.95768578 274.66530461 19.9375 274.625 C19.94638245 275.49815353 19.95526489 276.37130707 19.9644165 277.2709198 C20.04499791 285.55200481 20.10568381 293.83295568 20.14474869 302.1143446 C20.16550844 306.37059114 20.19360982 310.62651021 20.23925781 314.88256836 C20.28313508 318.99990815 20.30672409 323.11693556 20.31700897 327.23449135 C20.32432606 328.79517844 20.33861157 330.35585096 20.36042023 331.91640282 C20.53581906 345.00332481 19.39572425 357.72539195 9.9375 367.625 C2.92856187 374.80585548 -4.90785707 380.31991428 -15.21015263 380.75922108 C-16.4605656 380.76349456 -17.71097857 380.76776804 -18.99928284 380.77217102 C-19.69731032 380.77584771 -20.3953378 380.7795244 -21.11451763 380.7833125 C-23.45338707 380.79432486 -25.79221205 380.79818905 -28.13110352 380.80200195 C-29.80840699 380.80826859 -31.48570907 380.81491557 -33.16300964 380.82191467 C-38.67246538 380.84293844 -44.18192133 380.85331735 -49.69140625 380.86328125 C-51.59060111 380.86732982 -53.48979583 380.87144677 -55.3889904 380.87563133 C-64.31480439 380.89468145 -73.24061014 380.90891133 -82.16644055 380.9172433 C-92.45544987 380.92700721 -102.74424357 380.95330537 -113.03317696 380.99374419 C-120.99429965 381.02395532 -128.95536073 381.03871702 -136.91653961 381.04202431 C-141.66713434 381.04436962 -146.41749868 381.0532619 -151.16803169 381.07848549 C-155.64227978 381.10185799 -160.11614731 381.10596276 -164.59044075 381.09572411 C-166.22580739 381.09523081 -167.86119335 381.10148981 -169.49650192 381.11528015 C-182.36123924 381.21762952 -193.24638547 379.65083413 -203.0625 370.625 C-212.58257062 361.22197943 -216.10633581 351.42380452 -216.28955078 338.08569336 C-216.29675225 335.12853691 -216.27848626 332.17191708 -216.2578125 329.21484375 C-216.25407592 327.63587118 -216.251232 326.05689627 -216.24923706 324.47792053 C-216.2416513 320.34991905 -216.22204711 316.22206141 -216.1998291 312.09411621 C-216.17926088 307.87070663 -216.17021201 303.6472735 -216.16015625 299.42382812 C-216.13879574 291.15748655 -216.10472194 282.89126124 -216.0625 274.625 C-217.6556604 274.6861499 -217.6556604 274.6861499 -219.28100586 274.74853516 C-223.30827457 274.89958179 -227.33598153 275.03317637 -231.36401367 275.16210938 C-233.09106085 275.21969361 -234.81796741 275.28170477 -236.54467773 275.34863281 C-262.34798296 276.34020087 -286.69466328 272.98226231 -307.0625 255.625 C-308.15304687 254.76841797 -308.15304687 254.76841797 -309.265625 253.89453125 C-324.49345298 241.40877719 -334.2210466 221.89462651 -337.0625 202.625 C-338.816235 174.74424192 -333.26448523 152.09371767 -314.60546875 130.82421875 C-300.46334794 115.85386246 -281.62853719 106.56519219 -261.0625 104.625 C-261.03671875 103.96757812 -261.0109375 103.31015625 -260.984375 102.6328125 C-259.38732612 75.84594728 -249.14900579 48.08362275 -233.0625 26.625 C-232.6701416 26.08891113 -232.2777832 25.55282227 -231.87353516 25.00048828 C-218.33733878 6.57636668 -201.97067621 -8.09674421 -182.0625 -19.375 C-181.48757812 -19.70209961 -180.91265625 -20.02919922 -180.3203125 -20.36621094 C-163.68613338 -29.67299784 -144.9415292 -35.83148387 -126.0625 -38.375 C-125.18980469 -38.50390625 -124.31710938 -38.6328125 -123.41796875 -38.765625 C-78.49951298 -44.14169215 -33.76854775 -29.83950288 0 0 Z M-189.0625 15.625 C-189.94164062 16.36492187 -190.82078125 17.10484375 -191.7265625 17.8671875 C-214.62050446 37.78420821 -228.53313444 63.29016921 -235.0625 92.625 C-235.27777344 93.49382812 -235.49304688 94.36265625 -235.71484375 95.2578125 C-237.12127409 101.31470226 -237.43225186 107.36505816 -237.63354492 113.56225586 C-237.80894558 117.90505549 -238.05697416 121.73054866 -240.0625 125.625 C-244.76759885 128.06041104 -250.04618181 128.09351618 -255.25 128.5 C-262.72188981 129.1981743 -269.22897358 130.36526711 -276.0625 133.625 C-276.94808594 134.02332031 -277.83367187 134.42164063 -278.74609375 134.83203125 C-294.07243315 142.37563376 -303.8491326 154.83004604 -310.0625 170.5625 C-312.05804141 177.0480096 -312.51699234 183.16652972 -312.5625 189.9375 C-312.56894531 190.8442749 -312.57539063 191.7510498 -312.58203125 192.68530273 C-312.28763601 208.2104056 -305.07300231 222.99774042 -294.15234375 233.86328125 C-281.43380875 245.67599634 -266.80616448 250.81562982 -249.6328125 250.72265625 C-248.64248016 250.7212413 -247.65214783 250.71982635 -246.63180542 250.71836853 C-243.48367227 250.71279252 -240.33561148 250.70024442 -237.1875 250.6875 C-235.04687603 250.6824819 -232.90625094 250.67791954 -230.765625 250.67382812 C-225.53122551 250.66283094 -220.29686793 250.64611675 -215.0625 250.625 C-215.06107498 249.937547 -215.05964996 249.25009399 -215.05818176 248.54180908 C-215.04023108 242.01126318 -214.9982655 235.48134274 -214.93040943 228.95111465 C-214.89635338 225.59497192 -214.87371769 222.23967436 -214.86694336 218.88330078 C-214.857588 215.01018077 -214.81644874 211.13845091 -214.76953125 207.265625 C-214.7734639 206.080755 -214.77739655 204.89588501 -214.78144836 203.67510986 C-214.57402595 191.63429441 -210.76219431 182.38850703 -202.38671875 173.75 C-194.69538165 166.71792037 -186.27320561 163.96167419 -176.0625 162.625 C-176.03744385 162.00568604 -176.0123877 161.38637207 -175.98657227 160.74829102 C-175.86927342 157.89455112 -175.74716414 155.04103559 -175.625 152.1875 C-175.58568359 151.21361328 -175.54636719 150.23972656 -175.50585938 149.23632812 C-174.49834865 126.06358134 -167.27259931 106.5859792 -150.0625 90.625 C-131.88260041 74.64267069 -111.77081876 70.20014791 -88.0625 71.625 C-72.32939924 73.04879388 -57.89523249 80.47758923 -46.0625 90.625 C-45.33675781 91.23859375 -44.61101562 91.8521875 -43.86328125 92.484375 C-28.2240222 106.8638902 -21.47300071 127.49554404 -20.50488281 148.16699219 C-20.31711258 152.98548699 -20.1700412 157.80406477 -20.0625 162.625 C-18.97908325 162.79588135 -18.97908325 162.79588135 -17.8737793 162.97021484 C-6.37441129 164.89973565 3.77487079 169.00570063 10.9375 178.625 C14.80930273 185.29263403 18.02254009 191.41402277 18.14282227 199.19799805 C18.16276749 200.33895432 18.18271271 201.47991058 18.20326233 202.65544128 C18.22833107 204.50242363 18.22833107 204.50242363 18.25390625 206.38671875 C18.27468735 207.64764847 18.29546844 208.90857819 18.31687927 210.2077179 C18.37122122 213.55645458 18.42146166 216.90520205 18.46972656 220.25402832 C18.52000357 223.67266229 18.57565724 227.09120826 18.63085938 230.50976562 C18.738035 237.21477362 18.83980512 243.91984753 18.9375 250.625 C22.75516135 250.67452541 26.57273858 250.70416825 30.390625 250.73046875 C31.99768311 250.75167786 31.99768311 250.75167786 33.63720703 250.77331543 C42.65471919 250.81981521 50.36653524 249.56885614 58.9375 246.625 C59.9996875 246.26277344 61.061875 245.90054687 62.15625 245.52734375 C82.03854495 237.96899709 97.96968571 222.58621173 106.66308594 203.30053711 C115.41373473 182.768333 116.98948508 160.31319492 108.625 139.375 C107.75615201 137.44595059 106.86051788 135.52872437 105.9375 133.625 C105.48375 132.68914062 105.03 131.75328125 104.5625 130.7890625 C94.31699911 110.91056348 76.66708983 97.76135673 55.7890625 90.46875 C48.17137141 88.21474825 40.31417784 87.44561405 32.41015625 86.96875 C29.59997063 86.57807649 27.45097618 85.94879296 24.9375 84.625 C23.5625 81 23.5625 81 22.859375 78.55859375 C12.30883911 44.98464266 -11.56053134 16.90129471 -42.375 0.3125 C-89.3619897 -24.08030144 -148.53038825 -18.91058015 -189.0625 15.625 Z M-140.0625 114.625 C-151.4558257 129.45440805 -152.0625 144.42511708 -152.0625 162.625 C-116.4225 162.625 -80.7825 162.625 -44.0625 162.625 C-44.0625 140.6847855 -46.28407839 125.33644959 -61.3125 108.875 C-71.25597977 99.5361913 -84.5229559 94.68914767 -98.0625 94.125 C-114.69254183 94.81791841 -129.43195475 101.8683457 -140.0625 114.625 Z M-188.0625 192.625 C-190.54219528 196.848793 -191.43822365 199.93080856 -191.44345093 204.81091309 C-191.4519104 206.03054245 -191.46036987 207.25017181 -191.46908569 208.50675964 C-191.46325373 209.84500257 -191.45710929 211.18324417 -191.45068359 212.52148438 C-191.45475196 213.94119164 -191.46009533 215.36089574 -191.46661377 216.78059387 C-191.48026175 220.62563948 -191.47499923 224.47044293 -191.46547651 228.31549263 C-191.45786682 232.34457158 -191.46492916 236.37363017 -191.46963501 240.40270996 C-191.47508875 247.16808789 -191.46791098 253.93336748 -191.45361328 260.69873047 C-191.43728746 268.51387268 -191.44257624 276.32878008 -191.4590925 284.14391661 C-191.47271825 290.86086899 -191.47462171 297.5777508 -191.46677649 304.29471254 C-191.46210595 308.30338164 -191.46145804 312.31194046 -191.47138596 316.32060242 C-191.48006925 320.08981474 -191.47400909 323.8587251 -191.45670319 327.62790489 C-191.45274558 329.00895881 -191.45385996 330.39003826 -191.46049118 331.77108192 C-191.46872471 333.66040752 -191.45655529 335.54978883 -191.44345093 337.43908691 C-191.44231985 338.49504311 -191.44118877 339.5509993 -191.44002342 340.63895416 C-190.83407313 345.43175708 -188.90272264 349.44732664 -185.0625 352.4375 C-180.7328855 355.59451057 -177.82792454 355.7522881 -172.59196472 355.76544189 C-171.93209936 355.76841302 -171.272234 355.77138414 -170.59237272 355.7744453 C-168.37691733 355.78313049 -166.16151599 355.78464039 -163.94604492 355.78613281 C-162.35929753 355.79076112 -160.77255125 355.79578579 -159.18580627 355.80117798 C-154.87166948 355.81430286 -150.55754825 355.82074712 -146.24339461 355.82518864 C-143.54826571 355.82811924 -140.85314106 355.83222403 -138.1580143 355.83669281 C-129.72609546 355.85036802 -121.29418634 355.86003454 -112.86225718 355.8638947 C-103.12788886 355.86837556 -93.39366094 355.88592463 -83.65933532 355.9148953 C-76.13567351 355.93650969 -68.61205122 355.94659885 -61.0883587 355.94793582 C-56.59449227 355.94898403 -52.10075781 355.95489519 -47.60692406 355.97275543 C-43.3789791 355.98923192 -39.1512654 355.99139372 -34.92329979 355.98261642 C-33.37291851 355.98184582 -31.82252481 355.98619189 -30.27217484 355.99607468 C-28.15250376 356.00879245 -26.03365196 356.00291913 -23.91398621 355.99249268 C-22.72876971 355.99395924 -21.54355322 355.9954258 -20.32242107 355.9969368 C-16.00672732 355.50454288 -12.64004574 354.06390158 -9.41796875 351.125 C-5.82379468 346.50907076 -4.93902199 343.57924853 -4.90859985 337.81330872 C-4.89999939 336.60069366 -4.89139893 335.38807861 -4.88253784 334.13871765 C-4.87810273 332.79275556 -4.87380436 331.446793 -4.86962891 330.10083008 C-4.86172608 328.68481241 -4.85345701 327.26879675 -4.84484863 325.8527832 C-4.8186463 321.20005207 -4.80332137 316.54731202 -4.7890625 311.89453125 C-4.78370182 310.29151593 -4.77832431 308.68850067 -4.77293015 307.08548546 C-4.75130278 300.41571361 -4.73256739 293.74594416 -4.72130775 287.07614613 C-4.70507709 277.52518611 -4.67191947 267.97463345 -4.61490691 258.42382699 C-4.5761671 251.70437647 -4.55667022 244.9850347 -4.55138719 238.26547545 C-4.54773882 234.25431619 -4.5357733 230.24359158 -4.50328445 226.23255348 C-4.47313269 222.45589879 -4.46691676 218.67994011 -4.47866821 214.90319061 C-4.47888837 213.52133523 -4.47063122 212.13944688 -4.45301437 210.75770378 C-4.35791163 202.86530001 -4.54392621 196.66145769 -10.0625 190.625 C-15.12484446 186.70168305 -20.30370882 186.50048003 -26.53903198 186.49128723 C-27.84839722 186.48702225 -29.15776245 186.48275726 -30.50680542 186.47836304 C-31.9509888 186.47871252 -33.39517216 186.47917404 -34.83935547 186.47973633 C-36.36566246 186.47674299 -37.89196869 186.47334005 -39.41827393 186.46955872 C-43.55881572 186.46073254 -47.69933685 186.45838119 -51.83988714 186.45774293 C-54.42816348 186.45703167 -57.01643459 186.45489591 -59.60470963 186.45224571 C-68.63833194 186.44299704 -77.67193951 186.43891025 -86.70556641 186.43969727 C-95.11989375 186.44029801 -103.53415697 186.42974558 -111.94846809 186.4139536 C-119.17834552 186.40086916 -126.40820202 186.39551375 -133.63809121 186.39615268 C-137.95363439 186.39640739 -142.26912058 186.39357098 -146.58465195 186.38297462 C-150.64433307 186.37327838 -154.70390286 186.37322491 -158.76358795 186.38049126 C-160.25065651 186.38153518 -161.73773206 186.37918562 -163.22478867 186.3731308 C-165.26051186 186.36538104 -167.29627315 186.37126845 -169.33200073 186.37776184 C-170.46945173 186.37721707 -171.60690273 186.37667231 -172.77882195 186.37611103 C-178.89300554 186.8395404 -183.68473836 188.24723836 -188.0625 192.625 Z " fill="#006DF0" transform="translate(354.0625,85.375)"/>
<path d="M0 0 C7.4261204 5.14280177 12.8097827 11.10705741 15 20 C16.26435194 31.390558 15.14249659 41.12443451 7.8125 50.3125 C4.14466223 54.22644809 -0.06876335 56.91100362 -5 59 C-5.66 59 -6.32 59 -7 59 C-6.97381592 59.57443848 -6.94763184 60.14887695 -6.9206543 60.74072266 C-6.816082 63.36853171 -6.75149056 65.99590231 -6.6875 68.625 C-6.6246582 69.98044922 -6.6246582 69.98044922 -6.56054688 71.36328125 C-6.47850575 75.85913464 -6.47986798 79.00442325 -9.39453125 82.5859375 C-13.4140654 86.31018353 -16.11525575 86.39025178 -21.44921875 86.359375 C-25.55868504 85.78039966 -27.21349577 84.00085071 -30 81 C-31.20029908 78.59940183 -31.11459743 77.10639351 -31.09765625 74.4296875 C-31.09443359 73.53378906 -31.09121094 72.63789063 -31.08789062 71.71484375 C-31.07951172 70.77769531 -31.07113281 69.84054687 -31.0625 68.875 C-31.05798828 67.93011719 -31.05347656 66.98523438 -31.04882812 66.01171875 C-31.03702357 63.67441613 -31.02055759 61.33723939 -31 59 C-31.9075 58.72285156 -32.815 58.44570313 -33.75 58.16015625 C-41.83496909 55.2740555 -47.07090654 49.5078219 -51 42 C-54.21941755 34.02916621 -54.43483824 24.79006834 -51.97265625 16.5703125 C-47.91501564 7.73567117 -41.9025038 1.3767584 -32.9375 -2.5 C-22.39080845 -5.8134066 -9.70535537 -5.5416381 0 0 Z M-26 25 C-26.75 28.5 -26.75 28.5 -26 32 C-24.00979883 34.65884601 -24.00979883 34.65884601 -21 36 C-17.81590023 35.936318 -15.85067668 35.51040601 -13.125 33.875 C-11.27690779 30.79484632 -11.50939282 28.49557617 -12 25 C-14.41859563 22.30499344 -16.00763965 21.19363129 -19.5625 20.5 C-22.9249123 21.1897256 -24.0486167 22.18133524 -26 25 Z " fill="#006CF0" transform="translate(275,319)"/>
</svg>
