<?xml version="1.0" encoding="UTF-8"?>
<svg version="1.1" xmlns="http://www.w3.org/2000/svg" width="512" height="512">
<path d="M0 0 C1.13526123 -0.0038269 2.27052246 -0.00765381 3.44018555 -0.01159668 C5.83741138 -0.01431537 8.23466689 -0.00695731 10.63183594 0.00976562 C14.29950142 0.03117413 17.96520789 0.00996065 21.6328125 -0.015625 C23.96354599 -0.01298172 26.29427826 -0.00785674 28.625 0 C30.26891724 -0.01214539 30.26891724 -0.01214539 31.94604492 -0.02453613 C36.45980235 0.0310118 39.49278416 0.09021573 43.51245117 2.25292969 C45.63456339 4.93888537 45.90405425 6.12827064 45.80078125 9.515625 C45.78466797 10.45019531 45.76855469 11.38476562 45.75195312 12.34765625 C45.71005859 13.31574219 45.66816406 14.28382813 45.625 15.28125 C45.59116211 16.75658203 45.59116211 16.75658203 45.55664062 18.26171875 C45.49778805 20.6864447 45.41563431 23.10806983 45.3125 25.53125 C46.31925781 25.63308594 47.32601562 25.73492187 48.36328125 25.83984375 C52.41062964 26.41745425 55.78470743 27.87993456 59.5 29.59375 C64.68514206 31.99640325 64.68514206 31.99640325 70.3125 32.53125 C72.70853147 30.30400482 74.84239836 27.99571247 76.98242188 25.52929688 C79.39165484 22.9224182 81.34352758 21.51936633 84.66796875 20.24609375 C88.70099648 20.56164683 89.24106248 20.9971577 92.08349609 23.609375 C92.78385483 24.24874496 93.48421356 24.88811493 94.20579529 25.54685974 C94.90100784 26.20170853 95.5962204 26.85655731 96.3125 27.53125 C96.9258168 28.10807022 97.53913361 28.68489044 98.17103577 29.27919006 C102.05554982 32.98492741 105.86560275 36.76789667 109.6784668 40.54711914 C111.06673645 41.91870011 112.46036656 43.28487524 113.85913086 44.64575195 C115.89618355 46.62812824 117.91636989 48.62637989 119.93359375 50.62890625 C120.55954941 51.23219254 121.18550507 51.83547882 121.83042908 52.45704651 C125.32117526 55.96510314 127.2520353 58.33500645 127.3125 63.53125 C125.45958145 67.76370606 122.4059504 70.64801909 119.125 73.84375 C118.22394531 74.72675781 117.32289063 75.60976563 116.39453125 76.51953125 C115.70746094 77.18339844 115.02039063 77.84726562 114.3125 78.53125 C115.96226299 83.68771852 118.01786897 88.57790688 120.19140625 93.53125 C121.31787883 96.54564352 121.89094675 99.34828611 122.3125 102.53125 C122.93294189 102.51553955 123.55338379 102.4998291 124.19262695 102.48364258 C127.00332528 102.42128786 129.81387812 102.38225852 132.625 102.34375 C133.60146484 102.31861328 134.57792969 102.29347656 135.58398438 102.26757812 C136.99067383 102.25307617 136.99067383 102.25307617 138.42578125 102.23828125 C139.72189331 102.21471558 139.72189331 102.21471558 141.04418945 102.19067383 C143.3125 102.53125 143.3125 102.53125 145.05541992 103.79956055 C147.39442181 107.02165034 147.43990239 110.42890248 147.45776367 114.31225586 C147.46733345 115.72908913 147.46733345 115.72908913 147.47709656 117.17454529 C147.47876579 118.69496178 147.47876579 118.69496178 147.48046875 120.24609375 C147.48379715 121.29398575 147.48712555 122.34187775 147.49055481 123.42152405 C147.4956145 125.63639894 147.49796343 127.85128144 147.49780273 130.06616211 C147.49998947 133.45243896 147.5181562 136.83839014 147.53710938 140.22460938 C147.54004344 142.37760305 147.54202815 144.53059828 147.54296875 146.68359375 C147.55015427 147.69518051 147.55733978 148.70676727 147.56474304 149.74900818 C147.56166641 150.69671585 147.55858978 151.64442352 147.55541992 152.62084961 C147.55684494 153.45039658 147.55826996 154.27994354 147.55973816 155.1346283 C147.27015047 157.94176832 146.58545217 160.01415854 145.3125 162.53125 C142.10843538 164.66729308 141.31649253 164.77333908 137.64453125 164.7265625 C136.75185547 164.72011719 135.85917969 164.71367187 134.93945312 164.70703125 C133.54629883 164.68189453 133.54629883 164.68189453 132.125 164.65625 C131.18462891 164.64722656 130.24425781 164.63820313 129.27539062 164.62890625 C126.95417032 164.60534056 124.63346356 164.57244116 122.3125 164.53125 C122.20583008 165.10190186 122.09916016 165.67255371 121.98925781 166.26049805 C120.7004811 172.64127142 118.3676042 177.83830913 115.359375 183.61328125 C114.06851257 186.36584386 114.06851257 186.36584386 114.82421875 188.61328125 C117.52752293 192.09706696 120.85358502 194.92897202 124.09765625 197.8984375 C126.66754352 200.95329468 127.30731008 202.55577072 127.3125 206.53125 C124.89465424 211.68221301 120.74919956 215.43573721 116.79296875 219.421875 C115.68868279 220.53970367 115.68868279 220.53970367 114.56208801 221.68011475 C113.00726005 223.24941689 111.44963393 224.815951 109.8894043 226.37988281 C107.50648028 228.77473727 105.14285414 231.18761218 102.77929688 233.6015625 C101.26417366 235.12614654 99.74793441 236.64962245 98.23046875 238.171875 C97.52713913 238.89473694 96.82380951 239.61759888 96.09916687 240.36236572 C93.07735584 243.35678846 91.09265182 245.29047861 86.9765625 246.56079102 C82.29400609 246.50886751 79.96554481 244.13662731 76.63671875 241.05078125 C75.76660156 240.15746094 74.89648438 239.26414062 74 238.34375 C73.11699219 237.44269531 72.23398437 236.54164063 71.32421875 235.61328125 C70.66035156 234.92621094 69.99648438 234.23914063 69.3125 233.53125 C63.9542246 235.24257517 58.80025616 237.32936939 53.61523438 239.49609375 C50.6853669 240.69400533 48.51051046 241.53125 45.3125 241.53125 C45.32821045 242.11616211 45.3439209 242.70107422 45.36010742 243.30371094 C45.42260267 245.96279164 45.46153569 248.62171764 45.5 251.28125 C45.52513672 252.20164062 45.55027344 253.12203125 45.57617188 254.0703125 C45.59067383 255.40449219 45.59067383 255.40449219 45.60546875 256.765625 C45.62903442 257.99104004 45.62903442 257.99104004 45.65307617 259.24121094 C45.21603416 262.17988771 44.36995722 263.39468172 42.3125 265.53125 C39.84594727 266.03245544 39.84594727 266.03245544 36.87890625 266.03295898 C35.21202759 266.04703041 35.21202759 266.04703041 33.51147461 266.06138611 C31.71141968 266.04453514 31.71141968 266.04453514 29.875 266.02734375 C28.02757202 266.0295266 28.02757202 266.0295266 26.14282227 266.03175354 C22.86887836 266.02966649 19.59570142 266.00860254 16.32189941 265.98077393 C14.3143722 265.9687612 12.3073507 265.97038332 10.29980469 265.97729492 C6.44963475 265.98986323 2.60014522 265.98123023 -1.25 265.96484375 C-2.45003662 265.96777939 -3.65007324 265.97071503 -4.88647461 265.97373962 C-5.99772705 265.96105545 -7.10897949 265.94837128 -8.25390625 265.93530273 C-9.23302979 265.92989975 -10.21215332 265.92449677 -11.22094727 265.91893005 C-14.08697858 265.46846202 -14.9933379 264.84881947 -16.6875 262.53125 C-17.02807617 260.26293945 -17.02807617 260.26293945 -16.98046875 257.64453125 C-16.97080078 256.70673828 -16.96113281 255.76894531 -16.95117188 254.80273438 C-16.92603516 253.82626953 -16.90089844 252.84980469 -16.875 251.84375 C-16.85469727 250.36165039 -16.85469727 250.36165039 -16.83398438 248.84960938 C-16.79862203 246.40960769 -16.74927033 243.97070281 -16.6875 241.53125 C-17.25815186 241.42458008 -17.82880371 241.31791016 -18.41674805 241.20800781 C-24.79752142 239.9192311 -29.99455913 237.5863542 -35.76953125 234.578125 C-38.5226355 233.28726688 -38.5226355 233.28726688 -40.7734375 234.04296875 C-44.2355499 236.73493778 -47.02697229 240.06958416 -49.95703125 243.31640625 C-53.45806717 246.15630234 -55.16804312 246.83382788 -59.6875 246.53125 C-61.53952026 245.22206116 -61.53952026 245.22206116 -63.46044922 243.45336914 C-64.16052597 242.81363663 -64.86060272 242.17390411 -65.58189392 241.51478577 C-66.27674393 240.86021896 -66.97159393 240.20565216 -67.6875 239.53125 C-68.30077652 238.95664536 -68.91405304 238.38204071 -69.5459137 237.7900238 C-73.43246464 234.10249908 -77.24280873 230.33598963 -81.0534668 226.5703125 C-82.44086835 225.20465808 -83.83450751 223.84531334 -85.23413086 222.4921875 C-87.27362461 220.51957411 -89.29274808 218.5279894 -91.30859375 216.53125 C-91.93454941 215.933125 -92.56050507 215.335 -93.20542908 214.71875 C-97.04431535 210.86133139 -98.64328477 208.21550831 -98.6875 202.53125 C-97.46484375 200.30859375 -97.46484375 200.30859375 -95.625 198.46875 C-94.98304688 197.80746094 -94.34109375 197.14617187 -93.6796875 196.46484375 C-92.69355469 195.50771484 -92.69355469 195.50771484 -91.6875 194.53125 C-91.09195312 193.92410156 -90.49640625 193.31695312 -89.8828125 192.69140625 C-88.50183328 191.28730058 -87.0971755 189.90654317 -85.6875 188.53125 C-86.8332958 185.64451204 -88.0035723 182.7705475 -89.1953125 179.90234375 C-89.73450012 178.59119728 -90.27356017 177.27999834 -90.8125 175.96875 C-91.08964844 175.30939453 -91.36679687 174.65003906 -91.65234375 173.97070312 C-93.05079975 170.54345258 -93.6875 168.29356486 -93.6875 164.53125 C-94.30270508 164.55743408 -94.91791016 164.58361816 -95.55175781 164.6105957 C-98.34674408 164.71470921 -101.14132258 164.77961749 -103.9375 164.84375 C-105.38962891 164.9065918 -105.38962891 164.9065918 -106.87109375 164.97070312 C-108.27294922 164.99487305 -108.27294922 164.99487305 -109.703125 165.01953125 C-110.56196289 165.04571533 -111.42080078 165.07189941 -112.30566406 165.09887695 C-114.6875 164.53125 -114.6875 164.53125 -116.96582031 162.73120117 C-119.58266071 157.86748491 -119.25895011 153.2849652 -119.21875 147.84375 C-119.2225769 146.70848877 -119.22640381 145.57322754 -119.23034668 144.40356445 C-119.23306537 142.00633862 -119.22570731 139.60908311 -119.20898438 137.21191406 C-119.18757587 133.54424858 -119.20878935 129.87854211 -119.234375 126.2109375 C-119.23173172 123.88020401 -119.22660674 121.54947174 -119.21875 119.21875 C-119.22684692 118.12280518 -119.23494385 117.02686035 -119.24328613 115.89770508 C-119.1876887 111.3799255 -119.1378509 108.35813936 -116.95214844 104.3449707 C-114.37662685 102.28227667 -113.18637653 101.88699763 -109.921875 101.82421875 C-109.03242188 101.79521484 -108.14296875 101.76621094 -107.2265625 101.73632812 C-106.30617187 101.73052734 -105.38578125 101.72472656 -104.4375 101.71875 C-103.50164062 101.69361328 -102.56578125 101.66847656 -101.6015625 101.64257812 C-99.29645268 101.5837743 -96.99323826 101.54744733 -94.6875 101.53125 C-94.28917969 100.45746094 -93.89085937 99.38367188 -93.48046875 98.27734375 C-92.94540218 96.84111242 -92.41024086 95.40491638 -91.875 93.96875 C-91.61396484 93.26427734 -91.35292969 92.55980469 -91.08398438 91.83398438 C-89.40671959 87.3405713 -87.61028185 82.92535506 -85.6875 78.53125 C-86.54214844 77.74621094 -87.39679688 76.96117187 -88.27734375 76.15234375 C-89.39401624 75.09197408 -90.50985831 74.03072943 -91.625 72.96875 C-92.18896484 72.45505859 -92.75292969 71.94136719 -93.33398438 71.41210938 C-96.27364169 68.57806849 -97.58027233 66.89543416 -98.76171875 62.8828125 C-98.67711833 59.06243551 -98.23254481 58.09969373 -95.5625 55.46875 C-94.91667969 54.80746094 -94.27085937 54.14617187 -93.60546875 53.46484375 C-92.97253906 52.82675781 -92.33960938 52.18867188 -91.6875 51.53125 C-90.73734828 50.37486379 -89.79808186 49.20935748 -88.875 48.03125 C-88.153125 47.20625 -87.43125 46.38125 -86.6875 45.53125 C-86.0275 45.53125 -85.3675 45.53125 -84.6875 45.53125 C-84.32277588 44.67974365 -84.32277588 44.67974365 -83.95068359 43.81103516 C-82.44987804 41.1023915 -80.66299425 39.24760855 -78.4765625 37.0546875 C-77.64382813 36.219375 -76.81109375 35.3840625 -75.953125 34.5234375 C-75.08171875 33.65976562 -74.2103125 32.79609375 -73.3125 31.90625 C-72.01699219 30.59914063 -72.01699219 30.59914063 -70.6953125 29.265625 C-69.86 28.43289063 -69.0246875 27.60015625 -68.1640625 26.7421875 C-67.40174316 25.98212402 -66.63942383 25.22206055 -65.85400391 24.43896484 C-62.59295531 21.56744876 -60.71596729 20.53245008 -56.33984375 20.52734375 C-51.6111954 21.82708988 -49.47925453 24.05104742 -46.25 27.59375 C-44.414375 29.553125 -42.57875 31.5125 -40.6875 33.53125 C-29.3025 29.07625 -29.3025 29.07625 -17.6875 24.53125 C-17.55674474 18.12974208 -17.55674474 18.12974208 -17.47973633 11.72753906 C-17.45161865 10.92541992 -17.42350098 10.12330078 -17.39453125 9.296875 C-17.3788208 8.47993164 -17.36311035 7.66298828 -17.34692383 6.82128906 C-16.6875 4.53125 -16.6875 4.53125 -14.8737793 2.26660156 C-10.02219452 -0.37572964 -5.44076839 -0.04019681 0 0 Z M-32.8125 88.625 C-42.71193136 99.27438829 -48.39058859 111.07058848 -49.6875 125.53125 C-48.76469238 125.560979 -48.76469238 125.560979 -47.82324219 125.59130859 C-45.02757458 125.68674727 -42.2326349 125.79634955 -39.4375 125.90625 C-38.46941406 125.9371875 -37.50132812 125.968125 -36.50390625 126 C-35.10205078 126.05800781 -35.10205078 126.05800781 -33.671875 126.1171875 C-32.81303711 126.1486084 -31.95419922 126.1800293 -31.06933594 126.21240234 C-28.52239613 126.55335185 -26.85766095 127.16899894 -24.6875 128.53125 C-23.28814987 131.32995027 -23.43484595 133.43623792 -23.6875 136.53125 C-25.35278519 138.86746123 -26.29189908 139.46148905 -29.1394043 139.96362305 C-30.08726807 139.98980713 -31.03513184 140.01599121 -32.01171875 140.04296875 C-33.55375977 140.09614258 -33.55375977 140.09614258 -35.12695312 140.15039062 C-36.19880859 140.17294922 -37.27066406 140.19550781 -38.375 140.21875 C-39.45845703 140.25291016 -40.54191406 140.28707031 -41.65820312 140.32226562 C-44.3345322 140.4047956 -47.01053159 140.47392937 -49.6875 140.53125 C-48.26657187 156.19794848 -41.38744075 170.78363001 -29.6875 181.53125 C-18.78456947 190.24500944 -7.58145626 195.57124857 6.3125 197.53125 C6.32708252 196.92128174 6.34166504 196.31131348 6.35668945 195.68286133 C6.43144775 192.90253936 6.52801482 190.12338176 6.625 187.34375 C6.64755859 186.38404297 6.67011719 185.42433594 6.69335938 184.43554688 C7.0469025 175.14700481 7.0469025 175.14700481 10.3125 171.53125 C16.1406886 170.69865163 16.1406886 170.69865163 18.99926758 172.72973633 C20.77308696 175.16309071 20.74148528 176.8605172 20.82421875 179.85546875 C20.85966797 180.88349609 20.89511719 181.91152344 20.93164062 182.97070312 C20.95419922 184.04255859 20.97675781 185.11441406 21 186.21875 C21.03416016 187.30220703 21.06832031 188.38566406 21.10351562 189.50195312 C21.1860456 192.1782822 21.25517937 194.85428159 21.3125 197.53125 C39.41672485 195.67136242 53.47222042 187.12359587 65.3125 173.53125 C72.86395161 163.82834708 77.06181875 152.70543454 78.3125 140.53125 C77.63147217 140.51666748 76.95044434 140.50208496 76.2487793 140.48706055 C73.16527785 140.41262304 70.08286433 140.31594917 67 140.21875 C65.92814453 140.19619141 64.85628906 140.17363281 63.75195312 140.15039062 C62.20991211 140.0972168 62.20991211 140.0972168 60.63671875 140.04296875 C59.2149231 140.00369263 59.2149231 140.00369263 57.7644043 139.96362305 C54.91710567 139.46152548 53.98318527 138.8618233 52.3125 136.53125 C51.88771414 132.45330575 51.99967413 131.00048881 54.3125 127.53125 C57.16756049 126.57956317 59.22187282 126.3411554 62.19921875 126.21484375 C63.13701172 126.17294922 64.07480469 126.13105469 65.04101562 126.08789062 C66.50571289 126.02891602 66.50571289 126.02891602 68 125.96875 C68.98806641 125.92556641 69.97613281 125.88238281 70.99414062 125.83789062 C73.43345546 125.73183346 75.87287113 125.62977286 78.3125 125.53125 C76.51650832 112.81579942 72.17557135 102.68401933 64.3125 92.53125 C63.87550781 91.91765625 63.43851562 91.3040625 62.98828125 90.671875 C54.58400301 79.66807527 39.68228991 72.06689981 26.3125 69.53125 C24.64604026 69.50498774 22.97886906 69.49975505 21.3125 69.53125 C21.29791748 70.21227783 21.28333496 70.89330566 21.26831055 71.5949707 C21.19387304 74.67847215 21.09719917 77.76088567 21 80.84375 C20.97744141 81.91560547 20.95488281 82.98746094 20.93164062 84.09179688 C20.8784668 85.63383789 20.8784668 85.63383789 20.82421875 87.20703125 C20.79803467 88.15489502 20.77185059 89.10275879 20.74487305 90.0793457 C20.24277548 92.92664433 19.6430733 93.86056473 17.3125 95.53125 C13.23455575 95.95603586 11.78173881 95.84407587 8.3125 93.53125 C7.36081317 90.67618951 7.1224054 88.62187718 6.99609375 85.64453125 C6.95419922 84.70673828 6.91230469 83.76894531 6.86914062 82.80273438 C6.82982422 81.82626953 6.79050781 80.84980469 6.75 79.84375 C6.70681641 78.85568359 6.66363281 77.86761719 6.61914062 76.84960938 C6.51308346 74.41029454 6.41102286 71.97087887 6.3125 69.53125 C-8.26672938 69.53125 -22.71237167 78.67340297 -32.8125 88.625 Z " fill="#9AC8FF" transform="translate(356.6875,237.46875)"/>
<path d="M0 0 C0.66837891 0.18191895 1.33675781 0.36383789 2.02539062 0.55126953 C35.51119654 9.89090483 62.58779029 33.38684945 80.25 62.8125 C87.72891918 76.43700645 92.27170756 90.73667647 95 106 C95.19335938 107.051875 95.38671875 108.10375 95.5859375 109.1875 C99.27862327 143.18807839 92.15635024 178.43232298 71.0625 205.9375 C69.40113052 207.97986996 67.71359274 210.0012445 66 212 C65.56574707 212.51111328 65.13149414 213.02222656 64.68408203 213.54882812 C43.57317934 238.20006853 13.48498001 255.05286704 -18.98046875 258.75 C-57.15905201 261.49216389 -92.23883703 252.88216571 -121.66796875 227.71875 C-124.15512888 225.52131956 -126.5845543 223.27577707 -129 221 C-129.67546875 220.38898438 -130.3509375 219.77796875 -131.046875 219.1484375 C-153.89510324 197.67110296 -166.44623871 164.49627326 -167.9765625 133.63964844 C-168.93275887 96.84316312 -156.36994094 62.77479109 -131 36 C-130.16726562 35.1028125 -129.33453125 34.205625 -128.4765625 33.28125 C-111.81617551 15.88800141 -91.03541823 5.41602802 -68 -1 C-67.31067383 -1.19352051 -66.62134766 -1.38704102 -65.91113281 -1.58642578 C-45.28897487 -7.03604702 -20.37658068 -5.75633674 0 0 Z M-65 14 C-65.69561035 14.19867676 -66.3912207 14.39735352 -67.10791016 14.60205078 C-97.83711927 23.48351737 -123.33882342 43.64228408 -138.85473633 71.68408203 C-143.11966124 79.78772995 -146.26848843 88.27320073 -149 97 C-149.36222656 98.14984375 -149.72445312 99.2996875 -150.09765625 100.484375 C-154.43690771 117.67992034 -154.10532679 140.05342096 -149 157 C-148.81195801 157.67820801 -148.62391602 158.35641602 -148.43017578 159.05517578 C-143.88770099 175.32785994 -136.24220958 192.02163115 -124 204 C-123.34 204 -122.68 204 -122 204 C-121.32517578 202.51113281 -121.32517578 202.51113281 -120.63671875 200.9921875 C-110.20354524 178.68001384 -94.79019468 163.95186981 -72.53125 153.26171875 C-69.85439627 151.99339671 -69.85439627 151.99339671 -67 150 C-67.64066406 149.47792969 -68.28132813 148.95585937 -68.94140625 148.41796875 C-79.65729742 139.29908074 -86.80304667 128.0729369 -89 114 C-89.96722995 97.0176742 -87.07336471 82.9939354 -75.75 69.75 C-65.293858 58.7719208 -52.50617191 52.56108426 -37.22265625 51.9296875 C-21.25224563 52.27813282 -8.44625499 57.22380808 3.2578125 68.09765625 C13.19254125 78.50456792 17.93147809 91.95047192 18.3125 106.25 C17.72610938 121.25182662 11.73540808 135.47885665 0.9296875 146.01953125 C-0.66816171 147.40066812 -2.3272525 148.71059047 -4 150 C-1.27901161 152.72098839 2.00381907 153.99551653 5.4375 155.625 C12.52816274 159.07651009 18.8428726 163.04064176 25 168 C25.9796875 168.77214844 26.959375 169.54429687 27.96875 170.33984375 C31.18573919 173.04357088 33.79385831 176.06954157 36.375 179.375 C36.84542725 179.97352783 37.31585449 180.57205566 37.80053711 181.1887207 C42.04232841 186.75152496 45.3188522 192.67454943 48.44140625 198.91796875 C49.95189008 202.05731111 49.95189008 202.05731111 52 205 C73.91595542 179.15146192 83.37224754 148.87161584 81 115 C78.33730584 91.65544865 68.88371531 70.09070369 54 52 C53.39285156 51.25234375 52.78570312 50.5046875 52.16015625 49.734375 C37.19155585 31.94855503 16.14691575 20.23989942 -6 14 C-7.61068359 13.52046875 -7.61068359 13.52046875 -9.25390625 13.03125 C-26.60611182 8.6881719 -47.85350071 8.8657375 -65 14 Z " fill="#6599FF" transform="translate(176,13)"/>
<path d="M0 0 C1.13526123 -0.0038269 2.27052246 -0.00765381 3.44018555 -0.01159668 C5.83741138 -0.01431537 8.23466689 -0.00695731 10.63183594 0.00976562 C14.29950142 0.03117413 17.96520789 0.00996065 21.6328125 -0.015625 C23.96354599 -0.01298172 26.29427826 -0.00785674 28.625 0 C30.26891724 -0.01214539 30.26891724 -0.01214539 31.94604492 -0.02453613 C36.45980235 0.0310118 39.49278416 0.09021573 43.51245117 2.25292969 C45.63456339 4.93888537 45.90405425 6.12827064 45.80078125 9.515625 C45.78466797 10.45019531 45.76855469 11.38476562 45.75195312 12.34765625 C45.71005859 13.31574219 45.66816406 14.28382813 45.625 15.28125 C45.59116211 16.75658203 45.59116211 16.75658203 45.55664062 18.26171875 C45.49778805 20.6864447 45.41563431 23.10806983 45.3125 25.53125 C46.31925781 25.63308594 47.32601562 25.73492187 48.36328125 25.83984375 C52.41062964 26.41745425 55.78470743 27.87993456 59.5 29.59375 C64.68514206 31.99640325 64.68514206 31.99640325 70.3125 32.53125 C72.70853147 30.30400482 74.84239836 27.99571247 76.98242188 25.52929688 C79.39165484 22.9224182 81.34352758 21.51936633 84.66796875 20.24609375 C88.70099648 20.56164683 89.24106248 20.9971577 92.08349609 23.609375 C92.78385483 24.24874496 93.48421356 24.88811493 94.20579529 25.54685974 C94.90100784 26.20170853 95.5962204 26.85655731 96.3125 27.53125 C96.9258168 28.10807022 97.53913361 28.68489044 98.17103577 29.27919006 C102.05554982 32.98492741 105.86560275 36.76789667 109.6784668 40.54711914 C111.06673645 41.91870011 112.46036656 43.28487524 113.85913086 44.64575195 C115.89618355 46.62812824 117.91636989 48.62637989 119.93359375 50.62890625 C120.55954941 51.23219254 121.18550507 51.83547882 121.83042908 52.45704651 C125.32117526 55.96510314 127.2520353 58.33500645 127.3125 63.53125 C125.45958145 67.76370606 122.4059504 70.64801909 119.125 73.84375 C118.22394531 74.72675781 117.32289063 75.60976563 116.39453125 76.51953125 C115.70746094 77.18339844 115.02039063 77.84726562 114.3125 78.53125 C115.96226299 83.68771852 118.01786897 88.57790688 120.19140625 93.53125 C121.31787883 96.54564352 121.89094675 99.34828611 122.3125 102.53125 C122.93294189 102.51553955 123.55338379 102.4998291 124.19262695 102.48364258 C127.00332528 102.42128786 129.81387812 102.38225852 132.625 102.34375 C133.60146484 102.31861328 134.57792969 102.29347656 135.58398438 102.26757812 C136.99067383 102.25307617 136.99067383 102.25307617 138.42578125 102.23828125 C139.72189331 102.21471558 139.72189331 102.21471558 141.04418945 102.19067383 C143.3125 102.53125 143.3125 102.53125 145.05541992 103.79956055 C147.39442181 107.02165034 147.43990239 110.42890248 147.45776367 114.31225586 C147.46733345 115.72908913 147.46733345 115.72908913 147.47709656 117.17454529 C147.47876579 118.69496178 147.47876579 118.69496178 147.48046875 120.24609375 C147.48379715 121.29398575 147.48712555 122.34187775 147.49055481 123.42152405 C147.4956145 125.63639894 147.49796343 127.85128144 147.49780273 130.06616211 C147.49998947 133.45243896 147.5181562 136.83839014 147.53710938 140.22460938 C147.54004344 142.37760305 147.54202815 144.53059828 147.54296875 146.68359375 C147.55015427 147.69518051 147.55733978 148.70676727 147.56474304 149.74900818 C147.56166641 150.69671585 147.55858978 151.64442352 147.55541992 152.62084961 C147.55684494 153.45039658 147.55826996 154.27994354 147.55973816 155.1346283 C147.27015047 157.94176832 146.58545217 160.01415854 145.3125 162.53125 C142.10843538 164.66729308 141.31649253 164.77333908 137.64453125 164.7265625 C136.75185547 164.72011719 135.85917969 164.71367187 134.93945312 164.70703125 C133.54629883 164.68189453 133.54629883 164.68189453 132.125 164.65625 C131.18462891 164.64722656 130.24425781 164.63820313 129.27539062 164.62890625 C126.95417032 164.60534056 124.63346356 164.57244116 122.3125 164.53125 C122.20583008 165.10190186 122.09916016 165.67255371 121.98925781 166.26049805 C120.7004811 172.64127142 118.3676042 177.83830913 115.359375 183.61328125 C114.06851257 186.36584386 114.06851257 186.36584386 114.82421875 188.61328125 C117.52752293 192.09706696 120.85358502 194.92897202 124.09765625 197.8984375 C126.66754352 200.95329468 127.30731008 202.55577072 127.3125 206.53125 C124.89465424 211.68221301 120.74919956 215.43573721 116.79296875 219.421875 C115.68868279 220.53970367 115.68868279 220.53970367 114.56208801 221.68011475 C113.00726005 223.24941689 111.44963393 224.815951 109.8894043 226.37988281 C107.50648028 228.77473727 105.14285414 231.18761218 102.77929688 233.6015625 C101.26417366 235.12614654 99.74793441 236.64962245 98.23046875 238.171875 C97.52713913 238.89473694 96.82380951 239.61759888 96.09916687 240.36236572 C93.07735584 243.35678846 91.09265182 245.29047861 86.9765625 246.56079102 C82.29400609 246.50886751 79.96554481 244.13662731 76.63671875 241.05078125 C75.76660156 240.15746094 74.89648438 239.26414062 74 238.34375 C73.11699219 237.44269531 72.23398437 236.54164063 71.32421875 235.61328125 C70.66035156 234.92621094 69.99648438 234.23914063 69.3125 233.53125 C63.9542246 235.24257517 58.80025616 237.32936939 53.61523438 239.49609375 C50.6853669 240.69400533 48.51051046 241.53125 45.3125 241.53125 C45.32821045 242.11616211 45.3439209 242.70107422 45.36010742 243.30371094 C45.42260267 245.96279164 45.46153569 248.62171764 45.5 251.28125 C45.52513672 252.20164062 45.55027344 253.12203125 45.57617188 254.0703125 C45.59067383 255.40449219 45.59067383 255.40449219 45.60546875 256.765625 C45.62903442 257.99104004 45.62903442 257.99104004 45.65307617 259.24121094 C45.21603416 262.17988771 44.36995722 263.39468172 42.3125 265.53125 C39.84594727 266.03245544 39.84594727 266.03245544 36.87890625 266.03295898 C35.21202759 266.04703041 35.21202759 266.04703041 33.51147461 266.06138611 C31.71141968 266.04453514 31.71141968 266.04453514 29.875 266.02734375 C28.02757202 266.0295266 28.02757202 266.0295266 26.14282227 266.03175354 C22.86887836 266.02966649 19.59570142 266.00860254 16.32189941 265.98077393 C14.3143722 265.9687612 12.3073507 265.97038332 10.29980469 265.97729492 C6.44963475 265.98986323 2.60014522 265.98123023 -1.25 265.96484375 C-2.45003662 265.96777939 -3.65007324 265.97071503 -4.88647461 265.97373962 C-5.99772705 265.96105545 -7.10897949 265.94837128 -8.25390625 265.93530273 C-9.23302979 265.92989975 -10.21215332 265.92449677 -11.22094727 265.91893005 C-14.08697858 265.46846202 -14.9933379 264.84881947 -16.6875 262.53125 C-17.02807617 260.26293945 -17.02807617 260.26293945 -16.98046875 257.64453125 C-16.97080078 256.70673828 -16.96113281 255.76894531 -16.95117188 254.80273438 C-16.92603516 253.82626953 -16.90089844 252.84980469 -16.875 251.84375 C-16.85469727 250.36165039 -16.85469727 250.36165039 -16.83398438 248.84960938 C-16.79862203 246.40960769 -16.74927033 243.97070281 -16.6875 241.53125 C-17.25815186 241.42458008 -17.82880371 241.31791016 -18.41674805 241.20800781 C-24.79752142 239.9192311 -29.99455913 237.5863542 -35.76953125 234.578125 C-38.5226355 233.28726688 -38.5226355 233.28726688 -40.7734375 234.04296875 C-44.2355499 236.73493778 -47.02697229 240.06958416 -49.95703125 243.31640625 C-53.45806717 246.15630234 -55.16804312 246.83382788 -59.6875 246.53125 C-61.53952026 245.22206116 -61.53952026 245.22206116 -63.46044922 243.45336914 C-64.16052597 242.81363663 -64.86060272 242.17390411 -65.58189392 241.51478577 C-66.27674393 240.86021896 -66.97159393 240.20565216 -67.6875 239.53125 C-68.30077652 238.95664536 -68.91405304 238.38204071 -69.5459137 237.7900238 C-73.43246464 234.10249908 -77.24280873 230.33598963 -81.0534668 226.5703125 C-82.44086835 225.20465808 -83.83450751 223.84531334 -85.23413086 222.4921875 C-87.27362461 220.51957411 -89.29274808 218.5279894 -91.30859375 216.53125 C-91.93454941 215.933125 -92.56050507 215.335 -93.20542908 214.71875 C-97.04431535 210.86133139 -98.64328477 208.21550831 -98.6875 202.53125 C-97.46484375 200.30859375 -97.46484375 200.30859375 -95.625 198.46875 C-94.98304688 197.80746094 -94.34109375 197.14617187 -93.6796875 196.46484375 C-92.69355469 195.50771484 -92.69355469 195.50771484 -91.6875 194.53125 C-91.09195312 193.92410156 -90.49640625 193.31695312 -89.8828125 192.69140625 C-88.50183328 191.28730058 -87.0971755 189.90654317 -85.6875 188.53125 C-86.8332958 185.64451204 -88.0035723 182.7705475 -89.1953125 179.90234375 C-89.73450012 178.59119728 -90.27356017 177.27999834 -90.8125 175.96875 C-91.08964844 175.30939453 -91.36679687 174.65003906 -91.65234375 173.97070312 C-93.05079975 170.54345258 -93.6875 168.29356486 -93.6875 164.53125 C-94.30270508 164.55743408 -94.91791016 164.58361816 -95.55175781 164.6105957 C-98.34674408 164.71470921 -101.14132258 164.77961749 -103.9375 164.84375 C-105.38962891 164.9065918 -105.38962891 164.9065918 -106.87109375 164.97070312 C-108.27294922 164.99487305 -108.27294922 164.99487305 -109.703125 165.01953125 C-110.56196289 165.04571533 -111.42080078 165.07189941 -112.30566406 165.09887695 C-114.6875 164.53125 -114.6875 164.53125 -116.96582031 162.73120117 C-119.58266071 157.86748491 -119.25895011 153.2849652 -119.21875 147.84375 C-119.2225769 146.70848877 -119.22640381 145.57322754 -119.23034668 144.40356445 C-119.23306537 142.00633862 -119.22570731 139.60908311 -119.20898438 137.21191406 C-119.18757587 133.54424858 -119.20878935 129.87854211 -119.234375 126.2109375 C-119.23173172 123.88020401 -119.22660674 121.54947174 -119.21875 119.21875 C-119.22684692 118.12280518 -119.23494385 117.02686035 -119.24328613 115.89770508 C-119.1876887 111.3799255 -119.1378509 108.35813936 -116.95214844 104.3449707 C-114.37662685 102.28227667 -113.18637653 101.88699763 -109.921875 101.82421875 C-109.03242188 101.79521484 -108.14296875 101.76621094 -107.2265625 101.73632812 C-106.30617187 101.73052734 -105.38578125 101.72472656 -104.4375 101.71875 C-103.50164062 101.69361328 -102.56578125 101.66847656 -101.6015625 101.64257812 C-99.29645268 101.5837743 -96.99323826 101.54744733 -94.6875 101.53125 C-94.28917969 100.45746094 -93.89085937 99.38367188 -93.48046875 98.27734375 C-92.94540218 96.84111242 -92.41024086 95.40491638 -91.875 93.96875 C-91.61396484 93.26427734 -91.35292969 92.55980469 -91.08398438 91.83398438 C-89.40671959 87.3405713 -87.61028185 82.92535506 -85.6875 78.53125 C-86.54214844 77.74621094 -87.39679688 76.96117187 -88.27734375 76.15234375 C-89.39401624 75.09197408 -90.50985831 74.03072943 -91.625 72.96875 C-92.18896484 72.45505859 -92.75292969 71.94136719 -93.33398438 71.41210938 C-96.27364169 68.57806849 -97.58027233 66.89543416 -98.76171875 62.8828125 C-98.67711833 59.06243551 -98.23254481 58.09969373 -95.5625 55.46875 C-94.91667969 54.80746094 -94.27085937 54.14617187 -93.60546875 53.46484375 C-92.97253906 52.82675781 -92.33960938 52.18867188 -91.6875 51.53125 C-90.73734828 50.37486379 -89.79808186 49.20935748 -88.875 48.03125 C-88.153125 47.20625 -87.43125 46.38125 -86.6875 45.53125 C-86.0275 45.53125 -85.3675 45.53125 -84.6875 45.53125 C-84.32277588 44.67974365 -84.32277588 44.67974365 -83.95068359 43.81103516 C-82.44987804 41.1023915 -80.66299425 39.24760855 -78.4765625 37.0546875 C-77.64382813 36.219375 -76.81109375 35.3840625 -75.953125 34.5234375 C-75.08171875 33.65976562 -74.2103125 32.79609375 -73.3125 31.90625 C-72.01699219 30.59914063 -72.01699219 30.59914063 -70.6953125 29.265625 C-69.86 28.43289063 -69.0246875 27.60015625 -68.1640625 26.7421875 C-67.40174316 25.98212402 -66.63942383 25.22206055 -65.85400391 24.43896484 C-62.59295531 21.56744876 -60.71596729 20.53245008 -56.33984375 20.52734375 C-51.6111954 21.82708988 -49.47925453 24.05104742 -46.25 27.59375 C-44.414375 29.553125 -42.57875 31.5125 -40.6875 33.53125 C-29.3025 29.07625 -29.3025 29.07625 -17.6875 24.53125 C-17.55674474 18.12974208 -17.55674474 18.12974208 -17.47973633 11.72753906 C-17.45161865 10.92541992 -17.42350098 10.12330078 -17.39453125 9.296875 C-17.3788208 8.47993164 -17.36311035 7.66298828 -17.34692383 6.82128906 C-16.6875 4.53125 -16.6875 4.53125 -14.8737793 2.26660156 C-10.02219452 -0.37572964 -5.44076839 -0.04019681 0 0 Z M-2.6875 15.53125 C-2.93670634 21.31953952 -2.93670634 21.31953952 -3.16552734 27.10864258 C-3.2011377 27.83204834 -3.23674805 28.5554541 -3.2734375 29.30078125 C-3.32056885 30.40836792 -3.32056885 30.40836792 -3.36865234 31.53833008 C-3.6875 33.53125 -3.6875 33.53125 -5.6875 36.53125 C-7.63598633 37.40332031 -7.63598633 37.40332031 -10.01953125 38.109375 C-10.89472412 38.38007813 -11.76991699 38.65078125 -12.67163086 38.9296875 C-13.60499268 39.21070313 -14.53835449 39.49171875 -15.5 39.78125 C-23.31173397 42.22386883 -30.05413157 44.96134122 -36.99609375 49.34375 C-40.50318552 50.89114608 -42.06725963 50.77234146 -45.6875 49.53125 C-47.85589417 47.71670605 -49.67071628 46.02760701 -51.5625 43.96875 C-52.06007813 43.44861328 -52.55765625 42.92847656 -53.0703125 42.39257812 C-54.28778612 41.11657211 -55.48930992 39.82538056 -56.6875 38.53125 C-60.35502005 40.0704301 -62.67330573 42.28610452 -65.453125 45.1015625 C-66.34257812 45.99746094 -67.23203125 46.89335937 -68.1484375 47.81640625 C-69.06882812 48.75355469 -69.98921875 49.69070313 -70.9375 50.65625 C-71.88234856 51.61113637 -72.82765633 52.56556859 -73.7734375 53.51953125 C-76.08268338 55.85234087 -78.38713203 58.18969086 -80.6875 60.53125 C-78.56782025 65.09294885 -75.38400219 67.76609761 -71.68359375 71.1171875 C-69.2236746 74.09219735 -68.6875 75.67405736 -68.6875 79.53125 C-69.77494831 81.9448548 -70.8680907 83.99073657 -72.25 86.21875 C-76.19679675 92.99372339 -78.6104075 99.81653697 -80.69555664 107.36010742 C-80.91590576 108.13459229 -81.13625488 108.90907715 -81.36328125 109.70703125 C-81.54802002 110.39708252 -81.73275879 111.08713379 -81.9230957 111.7980957 C-82.6875 113.53125 -82.6875 113.53125 -85.6875 115.53125 C-87.68041992 115.85009766 -87.68041992 115.85009766 -89.91796875 115.9453125 C-91.00307739 115.99872803 -91.00307739 115.99872803 -92.11010742 116.05322266 C-93.02252197 116.08722168 -93.93493652 116.1212207 -94.875 116.15625 C-99.2371875 116.341875 -99.2371875 116.341875 -103.6875 116.53125 C-103.6875 127.75125 -103.6875 138.97125 -103.6875 150.53125 C-97.57006642 150.66205005 -97.57006642 150.66205005 -91.4519043 150.73901367 C-85.22666781 150.96811918 -85.22666781 150.96811918 -82.75390625 153.55078125 C-81.39247149 157.35581686 -80.11638493 161.16579332 -78.9375 165.03125 C-76.67130735 172.23374735 -73.88008794 178.38405303 -69.91015625 184.83203125 C-68.45982826 188.03387354 -68.46341146 189.26878792 -69.6875 192.53125 C-71.17578125 194.59375 -71.17578125 194.59375 -73 196.53125 C-75.72613601 199.46435946 -78.1656928 202.37899099 -80.6875 205.53125 C-73.0975 213.12125 -65.5075 220.71125 -57.6875 228.53125 C-53.10626823 224.65161243 -53.10626823 224.65161243 -48.68359375 220.59765625 C-48.16925781 220.10136719 -47.65492188 219.60507812 -47.125 219.09375 C-46.34962891 218.32224609 -46.34962891 218.32224609 -45.55859375 217.53515625 C-42.60069436 215.94814134 -40.89526363 216.64145076 -37.6875 217.53125 C-34.60138874 218.84149888 -31.61894445 220.33673098 -28.625 221.84375 C-21.85547051 225.16928218 -15.36462238 227.85078588 -8.05859375 229.77734375 C-5.6875 230.53125 -5.6875 230.53125 -3.6875 232.53125 C-3.36865234 234.50244141 -3.36865234 234.50244141 -3.2734375 236.8828125 C-3.22002197 238.03257568 -3.22002197 238.03257568 -3.16552734 239.20556641 C-3.13152832 240.17929199 -3.0975293 241.15301758 -3.0625 242.15625 C-2.93875 245.25 -2.815 248.34375 -2.6875 251.53125 C8.5325 251.53125 19.7525 251.53125 31.3125 251.53125 C31.48277913 245.41391354 31.48277913 245.41391354 31.61035156 239.2956543 C31.85825014 233.10928003 31.85825014 233.10928003 33.83203125 230.59765625 C37.40142254 229.06309905 41.03268527 227.90244321 44.75 226.78125 C51.94699364 224.53368629 58.01983225 221.78807264 64.41796875 217.75390625 C68.28159391 216.12190264 70.30326645 216.34365966 74.3125 217.53125 C76.5640182 219.35580521 78.33955351 220.97719725 80.25 223.09375 C80.98959961 223.87395508 80.98959961 223.87395508 81.74414062 224.66992188 C82.94782929 225.94372833 84.13222352 227.23572049 85.3125 228.53125 C90.93553757 223.85658663 96.10991554 218.85359333 101.25 213.65625 C102.41885742 212.480625 102.41885742 212.480625 103.61132812 211.28125 C105.51404085 209.36686419 107.41436171 207.45016966 109.3125 205.53125 C105.45563666 200.9476232 105.45563666 200.9476232 101.37890625 196.5625 C100.88261719 196.0571875 100.38632812 195.551875 99.875 195.03125 C99.10349609 194.27328125 99.10349609 194.27328125 98.31640625 193.5 C96.67677093 190.2845284 97.49118392 187.97432176 98.3125 184.53125 C99.39745724 181.93653009 100.71262912 179.49647246 102.0625 177.03125 C105.59324632 170.33184464 108.12397918 163.68892404 110.3046875 156.4453125 C111.3125 153.53125 111.3125 153.53125 113.3125 151.53125 C115.28369141 151.21240234 115.28369141 151.21240234 117.6640625 151.1171875 C118.81382568 151.06377197 118.81382568 151.06377197 119.98681641 151.00927734 C120.96054199 150.97527832 121.93426758 150.9412793 122.9375 150.90625 C127.578125 150.720625 127.578125 150.720625 132.3125 150.53125 C132.3125 139.31125 132.3125 128.09125 132.3125 116.53125 C126.19516354 116.36097087 126.19516354 116.36097087 120.0769043 116.23339844 C113.84610202 115.98371955 113.84610202 115.98371955 111.30859375 113.83203125 C110.18320896 111.23261305 109.39605835 108.71351895 108.6875 105.96875 C106.67183732 98.94181529 103.61190884 92.62267812 100.22216797 86.15600586 C98.48460707 82.70858432 97.33628041 80.2268269 97.203125 76.33203125 C98.66829925 72.63298218 101.00242435 70.29572026 103.875 67.65625 C104.65520508 66.90988281 104.65520508 66.90988281 105.45117188 66.1484375 C106.72717789 64.93096388 108.01836944 63.72944008 109.3125 62.53125 C104.63783663 56.90821243 99.63484333 51.73383446 94.4375 46.59375 C93.261875 45.42489258 93.261875 45.42489258 92.0625 44.23242188 C90.14811419 42.32970915 88.23141966 40.42938829 86.3125 38.53125 C85.21051329 39.47215964 84.1090549 40.41368807 83.0078125 41.35546875 C82.39437988 41.87971436 81.78094727 42.40395996 81.14892578 42.9440918 C79.98668981 43.94857146 78.83505849 44.96557009 77.69873047 45.99926758 C74.58298087 48.77122768 72.49984989 50.31863421 68.3125 50.53125 C65.77961284 49.44319952 63.51297023 48.3132772 61.125 46.96875 C54.30753182 43.31831297 47.46725057 40.6926991 40.07739258 38.43530273 C34.49240877 36.71115877 34.49240877 36.71115877 32.3125 34.53125 C31.99365234 32.56005859 31.99365234 32.56005859 31.8984375 30.1796875 C31.86282715 29.41317871 31.8272168 28.64666992 31.79052734 27.85693359 C31.75652832 26.88320801 31.7225293 25.90948242 31.6875 24.90625 C31.56375 21.8125 31.44 18.71875 31.3125 15.53125 C20.0925 15.53125 8.8725 15.53125 -2.6875 15.53125 Z " fill="#6699FF" transform="translate(356.6875,237.46875)"/>
<path d="M0 0 C3.17417665 0.74029128 6.1543239 1.8149393 9.1875 3 C10.01266113 3.31614258 10.83782227 3.63228516 11.68798828 3.95800781 C36.66477834 13.82478396 54.85272254 31.60167457 65.90673828 56.00146484 C72.34850851 71.04958861 75.34207602 86.79161163 77 103 C78.18078125 102.96519531 79.3615625 102.93039063 80.578125 102.89453125 C82.13540242 102.86638768 83.69269525 102.83908813 85.25 102.8125 C86.02730469 102.78736328 86.80460937 102.76222656 87.60546875 102.73632812 C90.93234528 102.69367586 93.40579542 102.74307192 96.484375 104.07421875 C98.19207541 106.24405458 99.051146 108.06860471 99.28955078 110.84033203 C98.61631946 115.86175219 95.49121059 120.16389625 92.9375 124.4375 C92.30062256 125.53715088 91.66374512 126.63680176 91.00756836 127.76977539 C89.67559944 130.06413161 88.33803731 132.35353067 86.98730469 134.63671875 C85.13568678 137.77036597 83.30231135 140.91372975 81.4765625 144.0625 C79.19596432 147.99148031 76.90490807 151.91404985 74.60546875 155.83203125 C72.02531554 160.23464529 69.46795995 164.6496277 66.92578125 169.07421875 C66.58638016 169.6645842 66.24697906 170.25494965 65.89729309 170.86320496 C64.25325211 173.72366667 62.61153657 176.58541004 60.97290039 179.44897461 C52.86049383 193.56975309 52.86049383 193.56975309 50 195 C46.75 195.5625 46.75 195.5625 43 195 C37.13521184 189.40395148 33.48240684 181.11604638 29.5625 174.125 C28.86239293 172.88642802 28.16161562 171.64823468 27.46020508 170.41040039 C26.37890629 168.50207148 25.29795686 166.59355644 24.21897888 164.68391418 C20.58071316 158.24587869 16.88725235 151.84040301 13.1875 145.4375 C12.57390625 144.37063965 11.9603125 143.3037793 11.328125 142.20458984 C8.46514205 137.2320001 5.57841699 132.27808757 2.6171875 127.36328125 C1.83952026 126.06015991 1.83952026 126.06015991 1.04614258 124.73071289 C0.09084637 123.13341739 -0.87470634 121.54218881 -1.8527832 119.95874023 C-4.26294943 115.90993934 -6.03337261 112.83591363 -5 108 C-3.08203125 105.14453125 -3.08203125 105.14453125 0 103 C3.13506807 102.41905388 6.13816986 102.5246496 9.3125 102.6875 C10.14845703 102.71005859 10.98441406 102.73261719 11.84570312 102.75585938 C13.89791149 102.8144939 15.94919202 102.90416785 18 103 C19.17832385 69.81054484 7.42334378 40.0033486 -11.234375 12.734375 C-13.34653266 9.46333438 -13.66458943 7.82138924 -13 4 C-9.87797461 -1.1581289 -5.41657404 -0.52457932 0 0 Z " fill="#6699FF" transform="translate(328,9)"/>
<path d="M0 0 C3.92654547 0.68886763 4.77370849 1.54488744 7.1496582 4.58642578 C10.20983865 9.0019272 12.79667703 13.70152474 15.4375 18.375 C16.43443757 20.12191715 17.43138476 21.8688289 18.42892456 23.61540222 C19.46016588 25.4224943 20.4889531 27.23096845 21.51757812 29.03955078 C24.094383 33.56454113 26.70443715 38.07017368 29.31469727 42.57592773 C31.17849771 45.79694227 33.03334571 49.02297646 34.88671875 52.25 C37.36247302 56.55795779 39.86869252 60.84623565 42.39453125 65.125 C43.59666104 67.18732115 44.79849655 69.24981388 46 71.3125 C46.84328857 72.719552 46.84328857 72.719552 47.70361328 74.1550293 C52.77350866 82.92824331 52.77350866 82.92824331 51.5625 88.625 C49.44708734 91.29619317 47.87016557 92.43649671 44.46240234 92.92773438 C42.04429029 93.01911799 39.6676106 92.97422317 37.25 92.875 C36.41404297 92.85695313 35.57808594 92.83890625 34.71679688 92.8203125 C32.66486772 92.77341126 30.61353244 92.70167411 28.5625 92.625 C27.53688816 125.10270821 38.23990681 156.34264261 58.26953125 182.1953125 C60.01086951 185.46755539 59.84375974 187.97288489 59.5625 191.625 C58.625 194.0625 58.625 194.0625 56.5625 195.625 C42.50329872 197.73388019 24.80698457 188.43409335 13.5078125 180.47265625 C11.13297713 178.58053965 8.84166412 176.6303274 6.5625 174.625 C5.73878906 173.99207031 4.91507813 173.35914063 4.06640625 172.70703125 C-16.08226769 155.95314169 -25.987699 126.84140256 -29.4375 101.625 C-29.62044027 98.56671596 -29.60158689 95.68795519 -29.4375 92.625 C-30.61828125 92.64820313 -31.7990625 92.67140625 -33.015625 92.6953125 C-34.57291033 92.71407497 -36.13020252 92.73227466 -37.6875 92.75 C-38.46480469 92.76675781 -39.24210937 92.78351563 -40.04296875 92.80078125 C-47.45947899 92.86417023 -47.45947899 92.86417023 -50.4375 90.625 C-51.875 87.9375 -51.875 87.9375 -52.4375 84.625 C-50.21220663 78.454151 -46.87371792 72.8676757 -43.625 67.1875 C-43.05313965 66.18178955 -42.4812793 65.1760791 -41.89208984 64.13989258 C-37.26087754 56.01605309 -32.56457518 47.93039607 -27.83325195 39.86450195 C-24.64076985 34.41965245 -21.47949309 28.95916845 -18.359375 23.47265625 C-17.67703724 22.27638202 -16.99458377 21.08017377 -16.31201172 19.8840332 C-15.00479207 17.59325514 -13.70572447 15.29846026 -12.41064453 13.00073242 C-11.81880371 11.96408447 -11.22696289 10.92743652 -10.6171875 9.859375 C-10.09882324 8.94381836 -9.58045898 8.02826172 -9.04638672 7.08496094 C-6.44645582 3.10970999 -4.76540574 0.86643741 0 0 Z " fill="#6699FF" transform="translate(136.4375,307.375)"/>
<path d="M0 0 C13.06023825 10.48853111 25.24541035 24.97162763 28 42 C13.97469824 55.04679234 -3.64027967 62.42414146 -22 67 C-23.09429321 67.28363403 -23.09429321 67.28363403 -24.21069336 67.57299805 C-31.17691393 69.19112171 -38.04246745 69.33907639 -45.17504883 69.31567383 C-47.16688509 69.31253251 -49.15870307 69.33678786 -51.15039062 69.36132812 C-77.43800269 69.37430966 -102.59591844 59.41496899 -123 43 C-122.4842068 37.39892168 -121.00182028 33.1712637 -118.4375 28.1875 C-118.08107422 27.48753906 -117.72464844 26.78757813 -117.35742188 26.06640625 C-114.22939441 20.10721157 -110.54871084 14.97121955 -106 10 C-105.40960938 9.31808594 -104.81921875 8.63617188 -104.2109375 7.93359375 C-77.99141848 -20.57315991 -30.41581843 -22.77950657 0 0 Z " fill="#9AC8FF" transform="translate(188,188)"/>
<path d="M0 0 C2.11900949 1.63135664 4.15089244 3.31627703 6.171875 5.06640625 C7.3784375 5.9790625 7.3784375 5.9790625 8.609375 6.91015625 C21.08934547 17.41159482 29.24569307 34.27469715 32.171875 50.06640625 C32.44451172 51.21109375 32.44451172 51.21109375 32.72265625 52.37890625 C36.06707972 72.38728318 31.03269598 92.99366261 19.984375 109.75390625 C7.27736225 127.18369208 -9.96402367 139.41137748 -31.41357422 143.23999023 C-53.20561564 146.58649695 -73.37127709 142.63427879 -91.65625 130.1328125 C-93.77525949 128.50145586 -95.80714244 126.81653547 -97.828125 125.06640625 C-99.01728516 124.17115234 -99.01728516 124.17115234 -100.23046875 123.2578125 C-109.94566562 115.06198476 -116.38427223 103.80599775 -120.828125 92.06640625 C-121.4778125 90.38224609 -121.4778125 90.38224609 -122.140625 88.6640625 C-127.30028777 72.73718681 -126.95966456 53.62944589 -120.828125 38.06640625 C-120.395 36.76123047 -120.395 36.76123047 -119.953125 35.4296875 C-113.3115242 16.54263524 -98.082998 2.39903581 -80.765625 -6.74609375 C-54.41219587 -19.19076862 -23.96780221 -16.3868261 0 0 Z M-92.953125 20.16015625 C-102.85255636 30.80954454 -108.53121359 42.60574473 -109.828125 57.06640625 C-108.90531738 57.09613525 -108.90531738 57.09613525 -107.96386719 57.12646484 C-105.16819958 57.22190352 -102.3732599 57.3315058 -99.578125 57.44140625 C-98.61003906 57.47234375 -97.64195312 57.50328125 -96.64453125 57.53515625 C-95.24267578 57.59316406 -95.24267578 57.59316406 -93.8125 57.65234375 C-92.95366211 57.68376465 -92.09482422 57.71518555 -91.20996094 57.74755859 C-88.66302113 58.0885081 -86.99828595 58.70415519 -84.828125 60.06640625 C-83.42877487 62.86510652 -83.57547095 64.97139417 -83.828125 68.06640625 C-85.49341019 70.40261748 -86.43252408 70.9966453 -89.2800293 71.4987793 C-90.22789307 71.52496338 -91.17575684 71.55114746 -92.15234375 71.578125 C-93.69438477 71.63129883 -93.69438477 71.63129883 -95.26757812 71.68554688 C-96.33943359 71.70810547 -97.41128906 71.73066406 -98.515625 71.75390625 C-99.59908203 71.78806641 -100.68253906 71.82222656 -101.79882812 71.85742188 C-104.4751572 71.93995185 -107.15115659 72.00908562 -109.828125 72.06640625 C-108.40719687 87.73310473 -101.52806575 102.31878626 -89.828125 113.06640625 C-78.92519447 121.78016569 -67.72208126 127.10640482 -53.828125 129.06640625 C-53.81354248 128.45643799 -53.79895996 127.84646973 -53.78393555 127.21801758 C-53.70917725 124.43769561 -53.61261018 121.65853801 -53.515625 118.87890625 C-53.49306641 117.91919922 -53.47050781 116.95949219 -53.44726562 115.97070312 C-53.0937225 106.68216106 -53.0937225 106.68216106 -49.828125 103.06640625 C-43.9999364 102.23380788 -43.9999364 102.23380788 -41.14135742 104.26489258 C-39.36753804 106.69824696 -39.39913972 108.39567345 -39.31640625 111.390625 C-39.28095703 112.41865234 -39.24550781 113.44667969 -39.20898438 114.50585938 C-39.18642578 115.57771484 -39.16386719 116.64957031 -39.140625 117.75390625 C-39.10646484 118.83736328 -39.07230469 119.92082031 -39.03710938 121.03710938 C-38.9545794 123.71343845 -38.88544563 126.38943784 -38.828125 129.06640625 C-20.72390015 127.20651867 -6.66840458 118.65875212 5.171875 105.06640625 C12.72332661 95.36350333 16.92119375 84.24059079 18.171875 72.06640625 C17.49084717 72.05182373 16.80981934 72.03724121 16.1081543 72.0222168 C13.02465285 71.94777929 9.94223933 71.85110542 6.859375 71.75390625 C5.78751953 71.73134766 4.71566406 71.70878906 3.61132812 71.68554688 C2.06928711 71.63237305 2.06928711 71.63237305 0.49609375 71.578125 C-0.9257019 71.53884888 -0.9257019 71.53884888 -2.3762207 71.4987793 C-5.22351933 70.99668173 -6.15743973 70.39697955 -7.828125 68.06640625 C-8.25291086 63.988462 -8.14095087 62.53564506 -5.828125 59.06640625 C-2.97306451 58.11471942 -0.91875218 57.87631165 2.05859375 57.75 C2.99638672 57.70810547 3.93417969 57.66621094 4.90039062 57.62304688 C6.36508789 57.56407227 6.36508789 57.56407227 7.859375 57.50390625 C8.84744141 57.46072266 9.83550781 57.41753906 10.85351562 57.37304688 C13.29283046 57.26698971 15.73224613 57.16492911 18.171875 57.06640625 C16.37588332 44.35095567 12.03494635 34.21917558 4.171875 24.06640625 C3.73488281 23.4528125 3.29789062 22.83921875 2.84765625 22.20703125 C-5.55662199 11.20323152 -20.45833509 3.60205606 -33.828125 1.06640625 C-35.49458474 1.04014399 -37.16175594 1.0349113 -38.828125 1.06640625 C-38.84270752 1.74743408 -38.85729004 2.42846191 -38.87231445 3.13012695 C-38.94675196 6.2136284 -39.04342583 9.29604192 -39.140625 12.37890625 C-39.16318359 13.45076172 -39.18574219 14.52261719 -39.20898438 15.62695312 C-39.2621582 17.16899414 -39.2621582 17.16899414 -39.31640625 18.7421875 C-39.34259033 19.69005127 -39.36877441 20.63791504 -39.39575195 21.61450195 C-39.89784952 24.46180058 -40.4975517 25.39572098 -42.828125 27.06640625 C-46.90606925 27.49119211 -48.35888619 27.37923212 -51.828125 25.06640625 C-52.77981183 22.21134576 -53.0182196 20.15703343 -53.14453125 17.1796875 C-53.18642578 16.24189453 -53.22832031 15.30410156 -53.27148438 14.33789062 C-53.31080078 13.36142578 -53.35011719 12.38496094 -53.390625 11.37890625 C-53.43380859 10.39083984 -53.47699219 9.40277344 -53.52148438 8.38476562 C-53.62754154 5.94545079 -53.72960214 3.50603512 -53.828125 1.06640625 C-68.40735438 1.06640625 -82.85299667 10.20855922 -92.953125 20.16015625 Z " fill="#6699FF" transform="translate(416.828125,305.93359375)"/>
<path d="M0 0 C8.9202513 6.25462933 16.15499092 14.76135251 18.328125 25.59765625 C20.07785942 38.5262495 17.99447605 49.05361915 10.37109375 59.71875 C4.65352595 66.75893589 -3.34555982 71.78062737 -12.25 73.71484375 C-26.01091531 74.67810782 -36.64005768 73.71949133 -47.625 64.52734375 C-55.64705649 56.77612839 -60.39440329 47.82684616 -60.62988281 36.56176758 C-60.62827148 35.84915771 -60.62666016 35.13654785 -60.625 34.40234375 C-60.62338867 33.65686279 -60.62177734 32.91138184 -60.62011719 32.14331055 C-60.40132565 22.26444378 -56.59712661 14.54498443 -50 7.21484375 C-49.0925 6.38984375 -48.185 5.56484375 -47.25 4.71484375 C-46.70859375 4.21855469 -46.1671875 3.72226563 -45.609375 3.2109375 C-32.68604169 -7.6218566 -14.38531174 -8.21661035 0 0 Z " fill="#9AC8FF" transform="translate(161.25,84.28515625)"/>
<path d="M0 0 C21.39100794 9.51955851 35.0025202 25.93259056 43.6953125 47.453125 C48.16766975 59.61150939 49.97430797 71.70970646 51.43017578 84.54150391 C51.57696777 85.71890137 51.72375977 86.89629883 51.875 88.109375 C52.05675781 89.70217285 52.05675781 89.70217285 52.2421875 91.32714844 C52.78739767 94.10099177 52.78739767 94.10099177 54.89550781 95.83618164 C57.57046921 97.31547874 59.70975554 97.50653307 62.75 97.6875 C63.73484375 97.75324219 64.7196875 97.81898437 65.734375 97.88671875 C66.48203125 97.92410156 67.2296875 97.96148437 68 98 C67.53851563 98.80179687 67.07703125 99.60359375 66.6015625 100.4296875 C63.19600242 106.3658614 59.81778625 112.31303795 56.51904297 118.30932617 C52.12261933 126.29174408 47.60722002 134.19978347 43 142.0625 C42.43579346 143.03316406 41.87158691 144.00382813 41.2902832 145.00390625 C40.76136475 145.90109375 40.23244629 146.79828125 39.6875 147.72265625 C39.21699219 148.52453369 38.74648438 149.32641113 38.26171875 150.15258789 C37 152 37 152 35 153 C34.58862793 152.27748047 34.17725586 151.55496094 33.75341797 150.81054688 C31.79521649 147.37297222 29.83546337 143.93628497 27.875 140.5 C27.34010452 139.56210129 27.34010452 139.56210129 26.79440308 138.60525513 C22.84644569 131.68563131 18.8839083 124.77549043 14.85546875 117.90234375 C14.21561035 116.81050781 13.57575195 115.71867187 12.91650391 114.59375 C11.69872475 112.52060688 10.47842409 110.44894245 9.25537109 108.37890625 C8.7083252 107.44820313 8.1612793 106.5175 7.59765625 105.55859375 C7.11820557 104.74704834 6.63875488 103.93550293 6.14477539 103.09936523 C5 101 5 101 4 98 C4.74765625 97.97421875 5.4953125 97.9484375 6.265625 97.921875 C7.25046875 97.86515625 8.2353125 97.8084375 9.25 97.75 C10.22453125 97.70359375 11.1990625 97.6571875 12.203125 97.609375 C15.73885916 96.83901951 16.86657717 95.90964587 19 93 C27.79794458 65.98243139 17.88366713 36.44533325 6 12 C4.42269858 9.13188661 2.80717724 6.36851861 0.99609375 3.64453125 C0 2 0 2 0 0 Z " fill="#9AC8FF" transform="translate(339,29)"/>
<path d="M0 0 C2.84000345 2.52271762 4.4819976 5.34646149 6.3359375 8.64453125 C6.98240234 9.78680176 7.62886719 10.92907227 8.29492188 12.10595703 C8.9883208 13.34144916 9.68167935 14.57696395 10.375 15.8125 C11.80707596 18.34925676 13.24288939 20.8838841 14.6796875 23.41796875 C15.04048401 24.05504761 15.40128052 24.69212646 15.77301025 25.34851074 C19.79892187 32.43936667 23.97316114 39.44172659 28.18896484 46.42114258 C28.69379395 47.26443115 29.19862305 48.10771973 29.71875 48.9765625 C30.38293945 50.07605225 30.38293945 50.07605225 31.06054688 51.19775391 C32 53 32 53 32 55 C30.86111328 55.05607422 30.86111328 55.05607422 29.69921875 55.11328125 C28.70535156 55.17902344 27.71148437 55.24476563 26.6875 55.3125 C25.70136719 55.37050781 24.71523437 55.42851562 23.69921875 55.48828125 C20.60256917 56.07534506 19.95861512 56.61927817 18 59 C14.7509798 66.12259124 14.5221888 73.48670452 14.625 81.1875 C14.63515137 82.29101807 14.64530273 83.39453613 14.65576172 84.53149414 C14.81681861 93.0406665 15.6432562 100.7873775 18 109 C18.18272461 109.65887207 18.36544922 110.31774414 18.55371094 110.99658203 C21.68022638 122.04206312 26.264568 132.21663601 31.39257812 142.47265625 C32.09157227 143.87644531 32.09157227 143.87644531 32.8046875 145.30859375 C33.22733887 146.14189209 33.64999023 146.97519043 34.08544922 147.83374023 C35 150 35 150 35 153 C11.54877821 139.77351091 -3.65801718 121.37921176 -10.97265625 95.2890625 C-13.63571954 84.82896377 -14.78337761 73.97142459 -15.72753906 63.23974609 C-15.99177914 60.68265975 -15.99177914 60.68265975 -17 57 C-21.62 56.34 -26.24 55.68 -31 55 C-29.76540872 51.9135218 -28.68785459 49.26074518 -27.109375 46.41796875 C-26.73643311 45.74491699 -26.36349121 45.07186523 -25.97924805 44.37841797 C-25.57359619 43.65541504 -25.16794434 42.93241211 -24.75 42.1875 C-24.32178955 41.42066895 -23.8935791 40.65383789 -23.45239258 39.86376953 C-19.59733502 32.99569622 -15.65168469 26.18053237 -11.6875 19.375 C-11.10129883 18.36848389 -10.51509766 17.36196777 -9.91113281 16.32495117 C-6.69401986 10.82530301 -3.40789122 5.383573 0 0 Z " fill="#9AC8FF" transform="translate(136,330)"/>
<path d="M0 0 C2.22671677 1.65611449 2.92424989 2.49548801 3.34057617 5.26831055 C3.32486572 6.13238525 3.30915527 6.99645996 3.29296875 7.88671875 C3.28330078 8.82451172 3.27363281 9.76230469 3.26367188 10.72851562 C3.23853516 11.70498047 3.21339844 12.68144531 3.1875 13.6875 C3.17396484 14.67556641 3.16042969 15.66363281 3.14648438 16.68164062 C3.11112203 19.12164231 3.06177033 21.56054719 3 24 C4.03640625 23.97679687 5.0728125 23.95359375 6.140625 23.9296875 C7.51040944 23.91092333 8.8802017 23.89272382 10.25 23.875 C10.93191406 23.85824219 11.61382812 23.84148437 12.31640625 23.82421875 C16.04686395 23.78800071 18.87792373 23.84737039 22 26 C23.92199114 28.56265486 24.01028636 29.83198949 23.8125 33.0625 C22.94505321 36.19865378 22.57872065 37.12400804 20 39 C17.13671875 39.38818359 17.13671875 39.38818359 13.6875 39.3984375 C12.44742187 39.40230469 11.20734375 39.40617187 9.9296875 39.41015625 C7.98449219 39.39275391 7.98449219 39.39275391 6 39.375 C4.70320313 39.38660156 3.40640625 39.39820313 2.0703125 39.41015625 C0.83023437 39.40628906 -0.40984375 39.40242188 -1.6875 39.3984375 C-2.82574219 39.39505371 -3.96398437 39.39166992 -5.13671875 39.38818359 C-8 39 -8 39 -9.83203125 37.66259766 C-13.47507513 32.47674297 -12.2258307 25.16128241 -12.25 19.125 C-12.270625 17.84496094 -12.29125 16.56492187 -12.3125 15.24609375 C-12.32023437 13.39564453 -12.32023437 13.39564453 -12.328125 11.5078125 C-12.3374707 10.38004395 -12.34681641 9.25227539 -12.35644531 8.09033203 C-11.95594146 4.61801848 -11.12897614 2.75320143 -9 0 C-5.45026831 -1.1832439 -3.60040463 -0.90010116 0 0 Z " fill="#6599FF" transform="translate(375,339)"/>
</svg>
